<?xml version="1.0" encoding="utf-8"?>
<!-- Generator: Adobe Illustrator 19.2.0, SVG Export Plug-In . SVG Version: 6.00 Build 0)  -->
<svg version="1.1" id="Layer_1" xmlns="http://www.w3.org/2000/svg" xmlns:xlink="http://www.w3.org/1999/xlink" x="0px" y="0px"
	 viewBox="0 0 800 800" style="enable-background:new 0 0 800 800;" xml:space="preserve">
<style type="text/css">
	.st0{fill:#373333;}
	.st1{fill:#010101;}
	.st2{font-family:'FontinSans-Regular';}
	.st3{font-size:24.704px;}
	.st4{fill:none;}
	.st5{fill:#D8B144;}
	.st6{fill:#DFB4A1;}
	.st7{fill:#CE4244;}
</style>
<g>
	<path class="st0" d="M370.3,673c1.6-0.1,2.7-0.5,3.8-1.4c1.1-0.9,3.3,0.2,5.1-0.3c1.8-0.5,0.3-1.2,1.8-3.1c1.5-1.9,1.1-2.1,0.6-3.7
		c-0.5-1.6-1.2-1.2-3,0c-1.8,1.2-3,3.4-4,4.1c-1,0.7-2.3-0.3-3.6-0.4c-1.3-0.1-0.5,0.6-1.4,0.8c-0.8,0.1-1.1-0.3-2.8,0.7
		s0,1.6,0,1.6C365.2,673.6,368.6,673.2,370.3,673z"/>
	<path class="st0" d="M384.1,685.8c-0.9-1.5-0.6-3.1,0.5-3c1.2,0.1,1.6,0,1.3-0.8c-0.3-0.8,0-2.9-0.9-2.8c-0.9,0.1-0.6-0.9-1.6-0.2
		c-1.7,1.1-2.1-1.2-2.9,0c-0.9,1.2,0.3,2.3-0.8,2.5c-1.1,0.1-2.9,1.4-0.8,3.1C381,686.2,385,687.3,384.1,685.8z"/>
	<path class="st0" d="M383.9,669.4c-0.5,0.9-0.8,2.7-1.6,3.7c-0.8,1-0.1,2.3,1.4,2.3c1.4,0,1,1.2,3.5,0c2.5-1.2,2.5-0.9,2-2.9
		c-0.5-2.1-1.9-1.9-1.8-3c0.1-1.1,0.4-2.1-0.7-1.6C386.6,667.9,384.5,668.5,383.9,669.4z"/>
	<path class="st0" d="M387.7,663.9c1.2,0.2,0.3,1,1.4,1.9c1.2,1,0.9,0.4,1.6,2c0.7,1.6,1.5,1.6,3.2,1.5s2.8-2.1,2.3-3
		c-0.5-0.9,0.2-3.1-1.4-2.9c-1.6,0.2-0.9-1.4-1-2.2c-0.1-0.8-1.8-0.3-2.8,0.5c-0.8,0.7-2.3,0.7-3,0.9c-0.2,0-0.3,0.1-0.3,0.1
		C386.3,663,386.5,663.7,387.7,663.9z"/>
	<path class="st0" d="M387.4,659c1,0.3,3.2,0.4,4.2-0.6c1-1,1.5-1.6,3.2-1.6s4.2,0.5,4.3-0.8c0.1-1.3,0.3-1.5-0.7-2.1
		c-1-0.5-2.5-1.1-2.5-1.1s-4.7-0.1-4.7,1.5c0,1.3-1.5,1.6-1.7,2.2C389.3,657.2,386.4,658.7,387.4,659z"/>
	<path class="st0" d="M366.8,666.1c1.5,0.8,5.2-0.8,5.8-2.1c0.5-1.4,1.5-3.5,3.1-3s4.4,0,4.4,0s3.2-0.2,3.5-1.3c0.3-1-0.1-1.6,1-2.6
		c1.2-1,2.4-4.2,1.8-4.1c-0.6,0.1-7.7,1.1-7.9,1.7c-0.2,0.6,0.4,2.7-1.8,2.6c-2.2-0.1-4.1,1-4.1,1s-3.1,1-4.2,2.6
		C367.2,662.6,362.6,663.9,366.8,666.1z"/>
	<path class="st0" d="M398.3,666.3c1,2,4.7-0.9,4.8-2.8c0.1-1.9,3-6.7,4.8-7.4c1.8-0.7,1-1.3,1.9-1.7c0.9-0.5,1.1-1.4,1.1-1.4
		l-1.8,0.4c0,0-5.4,1.7-7.1,4.1C400.2,659.9,397.3,664.3,398.3,666.3z"/>
	<path class="st0" d="M399.1,677.1c-1.7,2.5,2.2,3.3,3.6,0.9c0,0,6.9-6.3,7.2-9.3c0.3-3.1,1.8-7.4,4.6-8.7s0.7-3.6,2.9-5.1
		s6.8-5,6.6-6.1c-0.2-1.2-7.4,3.3-8.6,6.4c-1.2,3.1-7.5,8.2-8.6,11.2C405.8,669.2,400.9,674.5,399.1,677.1z"/>
	<path class="st0" d="M418.9,657.8c-1.8,1.7-2.7,3.2-3.9,5.7c-1.2,2.4-2.7,2.3-2.3,4.9c0.5,2.5-1.9,3.8-3.4,6.8c-1.5,3-1,3.3,2.1,1
		c3.1-2.4,2.8-6.4,4.5-10.9c1.7-4.5,4.2-4.6,6.2-5.9s2.7-4.4,2.7-4.4c0.2-2.8,2.6-4.6,2.1-5.6c-0.5-1-1.5,1-4,3.1
		C420.4,654.3,420.7,656,418.9,657.8z"/>
	<path class="st0" d="M428.9,655.5c2.1-1.4,0.4-2.6,3.1-3.8c2.7-1.2,7.1-3.9,3.5-5.1c0,0-3.7,1-5.5,3.2
		C428.2,651.9,426.8,656.9,428.9,655.5z"/>
	<path class="st0" d="M341.9,690.6c3.1,0.2,2.8-0.1,4.6,0.5c1.8,0.6,3.6-1.7,1.8-3c-1.8-1.3-1.5-4.3-3.2-4.7c0,0-2.7-0.3-3.8,1.9
		C340.2,687.6,338.9,690.4,341.9,690.6z"/>
	<path class="st0" d="M336,692.8c0,0-3.8,1.9-2.3,4.4c1.5,2.5,4.3,4.1,4.7,1.6c0.4-2.5,0.6-2.7,1.2-3.6
		C340.3,694.3,338.8,691.8,336,692.8z"/>
	<path class="st0" d="M349.1,698.4c0.3-1.3-0.8-0.6-1.1-2.1c-0.3-1.6-1.3-2.7-2.7-2.3c-0.1,0-0.2,0.1-0.2,0.1c-0.1,0-0.1-0.1-0.2,0
		c-0.6,0.1-1.2,0.5-1.7,1c-0.2,0.1-0.3,0.3-0.4,0.5c-0.8,0.9-2,2.8-0.7,3.8c1.8,1.4,1,0.4,3.2,0.7
		C347.4,700.3,348.8,699.7,349.1,698.4z"/>
	<path class="st0" d="M359.1,692.3c-0.9-2.5,1-3.2-0.5-4.1c-1.4-1-2.9,0-2.9,0s-5.7,1.9-4.4,5.3c1.3,3.4,2.3,2.8,4.9,2.4
		C358.7,695.6,360,694.8,359.1,692.3z"/>
	<path class="st0" d="M357.3,684c0.2-1.2,0.8-5.1-1.5-4.5c-2.4,0.5-1.3,1.6-2.2,2c-0.9,0.4-2.1-0.3-2.4,1.1
		c-0.1,0.5,0.7,2.9,2.8,2.8C356,685.4,357.1,685.2,357.3,684z"/>
	<path class="st0" d="M344.6,708.2c1.6-1.8,0.7-1.9,1.4-3.1c0.7-1.3-1.6-3.3-3.6-1c0,0-3.2,0.8-1.5,3.2
		C342.6,709.8,343,710,344.6,708.2z"/>
	<path class="st0" d="M364,712.2c-0.4-2.3-0.1-4.2-2.2-4c-2.1,0.2-1.4-1-3.4,0c0,0-1.9,1-1,3.6c1,2.5,1.1,5.1,3.4,4.6
		C363.1,715.8,364.4,714.5,364,712.2z"/>
	<path class="st0" d="M361.4,704.2c3.3,1.6,3.2,2.3,4.1,0.6s0.8-2.3,1.2-3.3c0.4-1.1-0.7-1.4-2.7-2.2c-2-0.8-2.5-1-3.4-0.6
		C360.7,698.8,358.1,702.6,361.4,704.2z"/>
	<path class="st0" d="M367.6,696.2c0.5-1.7,0-3.6-1.6-4.3c-1.6-0.6-2.6-1-3.2,0c0,0-2.2,2.6,0,3.6S367.1,697.9,367.6,696.2z"/>
	<path class="st0" d="M353.9,705.8c-0.3-1.2-0.9-3.6-3.6-2.7c-0.3,0.1-1.9,0.9-1.2,3.6c0.7,2.6,2.3,3.2,4.3,2
		C355.4,707.5,354.2,707,353.9,705.8z"/>
	<path class="st0" d="M353.7,674.2c2.8,0.1,4.5-2.8,6-3.9c1.4-1.2,4.3-4.4,0.5-5.1c0,0-4,0.5-4.8,2.7
		C354.4,669.9,350.8,674.1,353.7,674.2z"/>
	<path class="st0" d="M376.3,694.7c1.1-0.8,3.1,0.3,3.9-1.3c0.8-1.6-0.5-4.1-1.9-5.3c-1.4-1.2-3.9-1.7-5.2-0.4
		c-1.1,1.1,1.6,1.2,0.9,2.8S375.2,695.5,376.3,694.7z"/>
	<path class="st0" d="M390,687.7c-1.1-1.2-3.2-1.1-4.2,0c-1,1.1-1.2,1.6-1.2,1.6s-1.7,6.1,0.8,7c2.4,0.9,2.3-0.7,3.6-2.1
		c1.3-1.4,0.3-2.1,0.6-2.9C389.7,690.5,391.1,688.9,390,687.7z"/>
	<path class="st0" d="M365.9,677.6c-0.1,0.9,0.8,1.7,1.8,1.2c0.7-0.3,1-1.1,1.9-1.1c0.5,0,1,0.3,1.5,0.3c0.5,0,1.7-0.4,1.8-1
		c0.1-0.6-0.7-0.9-1.1-1c-0.3-0.1-0.7-0.1-1,0c-0.8,0.1-1.3,0.1-2.1,0C367.9,675.8,365.4,676.5,365.9,677.6z"/>
	<path class="st0" d="M448.1,654.9c0.1,0.5,0.4,0.7,0.8,0.9c0.5,0.2,1.5-0.4,1.7-0.3c0.4,0.2,0.6,1.3,1,1.7c0.4,0.4,1,0.7,1.6,0.7
		c1.2,0,2.2-1.1,2.1-2.3c-0.1-0.4-0.2-0.9-0.4-1.3c0-0.1,0-0.1,0-0.2c-0.1-1.1,0.5-2.1,1.3-3.1c0.6-0.3,1.1-0.7,1.4-1
		c0.7-0.8,1.4-1.4,2.3-2c0.6-0.3,1-0.5,1.5-1c0.7-0.8,3.1-6.9,1.9-7.5c-0.1-0.1-0.1-0.2-0.2-0.2c-0.2-0.1-0.5-0.1-0.6,0
		c-0.3,0.2-0.5,0.5-0.7,0.8c-0.6,0.4-0.9,1-1.2,1.8c0,0,0,0,0,0c-0.6,0.9-1.2,1.8-1.8,2.7c-0.5,0.3-1,0.6-1.7,0.7
		c-0.6,0.1-1.3,0.1-1.9,0.4c-0.7,0.5-0.8,1.4-0.9,2.1c-0.3,1.8-1.6,2.6-2.8,3.7c0,0,0,0-0.1,0C450.7,652.2,447.8,653.5,448.1,654.9z
		 M452.1,651.8C452.1,651.8,452.1,651.8,452.1,651.8C452.1,651.9,452.1,651.9,452.1,651.8C452.1,651.9,452.1,651.9,452.1,651.8z
		 M451.9,652c0,0-0.1,0.1-0.1,0.1c0,0,0,0,0,0C451.8,652.1,451.8,652,451.9,652z"/>
	<path class="st0" d="M427.3,675.9c-0.2-0.1-0.3-0.2-0.4-0.3c0-0.1,0.1-0.3,0-0.5c-0.2-1.3-1.5-1-2.3-0.5c-0.1,0-0.2,0.1-0.3,0.1
		c-0.6,0.2-1.2,0.4-1.7,0.8c-1,0.8-0.7,1.8-1.3,2.7c-0.1,0.2,0,0.4,0.2,0.4c0.4,0.1,0.8,0.1,1.2-0.1c0.3,0,0.5,0,0.8-0.1
		c0.3-0.1,0.6-0.3,0.9-0.5c0.2,0,0.5,0,0.8,0c0.3,0.1,0.6,0.1,0.9,0.1c0.8,0,1.7-0.1,2-0.8C428.5,676.5,427.9,676.2,427.3,675.9z"/>
	<path class="st0" d="M431.1,678.6c0.4,0,0.8,0,1.2-0.1c0.1,0,0.2,0,0.3,0c0.7,0,1.5,0.1,2.3,0c0.5,0.1,1,0.4,1.6,0.8
		c1.6,1.1,3.4,3.7,5.7,2.4c1.7-0.9,0.2-1.8-0.9-2.4c-0.1,0-0.1-0.1-0.2-0.1c-0.2-0.1-0.4-0.3-0.7-0.4c-0.4-0.3-0.7-0.5-1.1-0.9
		c-0.2-0.3-0.4-0.5-0.6-0.7c-0.1-0.1-0.2-0.2-0.3-0.3c0-0.1-0.1-0.1-0.1-0.2c-0.1-0.1-0.2-0.1-0.3-0.2c-0.8-0.6-1.8-1.2-2.7-1.2
		c-0.5,0-1,0.2-1.5,0.5c-0.2,0.1-0.3,0.2-0.5,0.2c-1.4,0.4-2.7,1-4.1,0.9c-0.3,0-0.3,0.3-0.2,0.5
		C429.6,678.3,430.2,678.6,431.1,678.6z M431.2,678.1C431.2,678.1,431.2,678.1,431.2,678.1C431.2,678.1,431.2,678.1,431.2,678.1
		C431.1,678.1,431.1,678.1,431.2,678.1C431.2,678.1,431.2,678.1,431.2,678.1z"/>
	<path class="st0" d="M444.5,658.7c0-0.1,0-0.2-0.1-0.3c-0.5-0.6-0.9-1.8-0.9-2.6c0-0.3,0.1-0.5,0.1-0.7c1.4-0.8,3-1.3,3.4-3.3
		c0-0.1,0-0.2,0-0.3c0.1-0.4,0-0.9-0.4-1.2c-0.1-0.1-0.4-0.1-0.5,0.1c-0.7,1.2-1.9,1.6-3,2.4c-1,0.7-1.7,1.6-2.8,2.1
		c-0.9,0.4-1.9,0.7-2.5,1.4c-0.7,0.2-0.9,1-0.6,1.7c0,0.3,0.1,0.6,0.5,0.7c0.4,0.1,0.8,0.2,1.2,0.3c0.1,0.1,0.2,0.2,0.3,0.3
		c0,0.1,0.1,0.1,0.1,0.2c0.1,0.3,0.1,0.5,0.3,0.8c0.3,0.4,0.8,0.5,1.3,0.5C442.4,660.7,444.1,659.9,444.5,658.7z M446.6,651.1
		C446.6,651.1,446.6,651.1,446.6,651.1C446.6,651.1,446.6,651.1,446.6,651.1C446.6,651.1,446.6,651.1,446.6,651.1z"/>
	<path class="st0" d="M426.7,662.3c-0.1,0.1-0.1,0.3,0.1,0.4c0.7,0.4,1.5,0.6,2.2,0.2c0.5-0.2,1-0.9,0.6-1.4
		c-0.4-0.4-1.3-0.8-1.9-0.6c-0.6,0.2-0.7,0.7-0.8,1.2C426.8,662.2,426.8,662.2,426.7,662.3z"/>
	<path class="st0" d="M437.2,663.8c0.6,0.3,4.6,0,3.2-1.1c-0.1-0.1-0.2-0.1-0.3-0.2c-0.1-0.2-0.4-0.8-0.7-0.7
		c-0.2,0.1-0.4-0.5-0.6-0.5c0,0,0,0,0,0c-0.4,0-0.8,0.4-1.2,0.2c-0.6-0.4-1-0.6-1.6-1c-0.4-0.3-0.8-0.3-1.2-0.2
		c-0.9-0.3-2.3-0.6-3,0.1c-0.4,0.4-0.5,1.1,0.1,1.4c0.3,0.2,0.7,0,1,0c0.8-0.1,1.1-0.6,1.9,0c0.1,0.1,0.2,0.4,0.4,0.5
		c0.4,0.2,0.8,0.4,1.2,0.8C436.7,663.3,436.7,663.5,437.2,663.8z"/>
	<path class="st0" d="M398.1,673.9c0.3-0.5,0.6-2.4,0-2.8c0,0,0-0.1-0.1-0.1c0,0,0,0-0.1,0c-0.1,0-0.3,0-0.5,0.1c0,0,0,0-0.1,0.1
		c-1,0.3-2.2,0.5-3,1c-0.2,0.1-0.3,0.3-0.5,0.5c-0.3,0.5-0.5,1.1-0.8,1.6c-0.3,0.4-0.6,0.7-0.9,1c-0.4,0.6-0.4,1.1,0,1.8
		c0.4,0.6,1.6,1.7,2.4,1.7c0.7,0,1.5-0.7,1.9-1.1c0.3-0.4,0.4-0.7,0.5-1.2c0.2-0.6,0.1-1.4,0.4-2
		C397.6,674.2,397.9,674.1,398.1,673.9z"/>
	<path class="st0" d="M398.3,693.1c0.1,0.2,1,0.5,1.2,0.7c0.7,0.5,1.1,0.6,2,0.3c0.4-0.1,0.5-0.2,0.7-0.3c0.4,0.2,1,0.3,1.8,0.3
		c0.1,0,0.2,0.1,0.4,0.1c1.2,0.2,2.7-0.3,3.8-0.8c0.5-0.2,1.6-0.7,1.5-1.4c0-0.5-0.3-0.8-0.8-1.1c-0.3-0.5-1-0.8-1.6-1
		c-0.2-0.1-0.4-0.3-0.5-0.5c-0.1-0.1-0.2-0.2-0.4-0.1c-0.4,0.2-0.8,0.4-1.2,0.6c-0.1,0-0.2,0.1-0.3,0.1c-0.5,0.2-1,0.4-1.4,0.7
		c-0.7,0.3-1.4,0.6-2.1,0.9c-1.1,0-4,0.1-3.5,1.2C398,693,398.3,693,398.3,693.1z M399.5,692.2C399.5,692.2,399.4,692.2,399.5,692.2
		C399.4,692.2,399.4,692.2,399.5,692.2c-0.1,0.1-0.2,0.1-0.3,0.1C399.3,692.2,399.4,692.2,399.5,692.2z"/>
	<path class="st0" d="M412.1,681.9c1.8-1.5,3.4-3.1,4.1-5.4c0-0.1,0-0.1,0-0.2c0.1-0.2,0-0.5-0.3-0.6c-0.7-0.4-1.6,0.9-2,1.3
		c-0.7,0.8-1.4,2.3-2.4,3.2c-0.1,0-0.1,0.1-0.2,0.1c-0.5,0.3-0.9,0.4-1.3,0.5c-0.5,0-1-0.2-1.5,0c-0.5,0.2-0.8,0.7-1.1,1.1
		c-0.3,0.2-0.7,0.3-1.1,0.4c0,0,0,0,0,0c-0.3,0-0.6-0.2-0.8-0.4c-0.2-0.2-0.3-0.4-0.4-0.6c-0.1-0.1-0.2-0.2-0.3-0.2
		c-0.1,0-0.2,0.1-0.3,0.1c-0.1,0.1-0.3,0.2-0.4,0.3c-0.2,0-0.4,0.1-0.6,0.1c-0.1,0-0.3,0-0.4,0c-0.8,0.1-2.1,0.8-2.6,1.7
		c0,0-0.1,0-0.1,0c-0.9,1,0,1.8,1.1,1.9c1.1,0.1,1.7-0.5,2.5-1c0.2-0.1,0.5-0.2,0.7-0.3c1-0.2,2.3,0.6,3.3,0.7
		c0.7,0.1,2,0.2,2.6-0.4C411.4,683.2,410.6,683.1,412.1,681.9z"/>
	<path class="st0" d="M426.3,681.5c-0.8-0.5-1.9-0.3-2.8-0.6c-0.8-0.2-1.1-0.4-2-0.3c-0.9,0.2-1.6,0.6-2.5,0.8c-0.3,0-0.7,0.1-1,0.1
		c-0.9,0.2-1.3,0.5-1.9,1.1c-0.4,0.4-0.8,1.2-1.1,1.6c-0.3,0.4-0.7,0.7-1,1c-0.3,0.2-0.7,0.4-1,0.6c-0.4,0.1-0.7,0.2-1,0.4
		c-0.2,0.2-0.5,0.5-0.4,0.9c0,0.1,0.1,0.2,0.1,0.2c-0.1,0.2-0.1,0.5,0.1,0.7c0.4,0.5,1.5,0.2,2,0c1.4-0.6,1.9-2.1,3.4-2.6
		c0.4-0.1,0.6-0.1,0.9-0.4c0.6-0.4,0.8-0.7,1.5-0.8c0.4-0.1,0.9-0.1,1.3,0c0.5,0.2,0.8,0.5,1.2,0.8c0.2,0.2,0.3,0.3,0.6,0.4
		c0.6,0.2,1.2-0.1,1.8,0.1c0.8,0.3,1.9,0.9,2.5,0c0,0,0-0.1,0-0.1c0.2-0.2,0.3-0.5,0.3-0.9c0-0.3-0.1-0.6-0.2-0.9
		C427.3,682.9,427.1,682,426.3,681.5z M415.6,684.2C415.6,684.2,415.5,684.2,415.6,684.2c0-0.1,0.1-0.2,0.2-0.3
		C415.7,684,415.7,684.1,415.6,684.2z M415.8,683.9c0.2-0.2,0.3-0.4,0.3-0.4c0.1-0.1,0.2-0.2,0.2-0.2
		C416.2,683.4,416,683.6,415.8,683.9z M416.5,683.1c0.5-0.5,0.9-0.7,1.2-0.9C417.3,682.5,416.9,682.8,416.5,683.1z"/>
	<path class="st0" d="M388.7,708.1c0.7,0.5,2.4,0.2,3.2,0.2c0.2,0,0.3-0.1,0.3-0.3c0.7-0.2,0.7-0.8,0.4-1.4
		c-0.2-0.4-0.7-0.8-0.9-1.3c-0.2-0.6,0.1-1.2-0.1-1.8c-0.1-0.3-0.3-0.5-0.6-0.7c-0.8-0.6-1.5-0.9-2.1-1.8c-0.3-0.5-0.6-0.9-1.1-1.3
		c-0.7-0.4-1.6-0.5-2,0.3c0,0,0,0.1,0,0.1c0,0,0,0,0,0c0.7,1.2,0.6,1.4,0.3,2.9c-0.1,0.4-0.2,0.6-0.2,1c0.1,0.8,0.8,1.2,1.3,1.8
		C387.9,706.4,388,707.6,388.7,708.1z M386.2,700C386.2,699.9,386.2,699.9,386.2,700C386.2,700,386.2,700,386.2,700
		c0.1,0.1,0.1,0.1,0.1,0.1C386.2,700,386.2,700,386.2,700z M386.8,703.8C386.8,703.8,386.8,703.8,386.8,703.8
		C386.8,703.8,386.8,703.8,386.8,703.8C386.8,703.8,386.8,703.8,386.8,703.8z"/>
	<path class="st0" d="M393.3,702.3c0.1,0.3,0.2,0.4,0.4,0.5c0.6,0.4,2.2,0.2,3,0c0.5-0.1,1-0.5,0.9-1.1c0-0.4-0.3-0.6-0.5-0.9
		c0-0.1-0.1-0.3-0.2-0.3c-0.5-0.4-0.8-0.7-1.1-1.3c-0.1-0.2-0.2-0.4-0.3-0.6c0.1-0.5,0.2-1.1-0.3-1.6c-0.3-0.2-0.6-0.3-0.9-0.3
		c0,0-0.1-0.1-0.2-0.1c-0.9-0.5-1.5,0.3-1.8,1.1c-0.2,0.1-0.5,0.3-0.6,0.7c-0.3,0.9,0.2,1.8,0.7,2.4c0.2,0.3,0.6,0.6,0.7,1
		C393.4,701.9,393.3,702.1,393.3,702.3z M394.2,702.3c-0.1-0.1-0.2-0.1-0.2-0.2C394.1,702.2,394.1,702.3,394.2,702.3z"/>
	<path class="st0" d="M393.2,686.2c0,0.2,0,0.3,0,0.5c-0.1,0.7-0.3,1.3-0.6,1.9c-0.2,0.4-0.4,0.7-0.4,1.2c0,1.4,1.9,3.1,3.2,2
		c0.6-0.5,0.3-0.9,0.3-1.6c-0.2-1.5,0.2-2.9-0.2-4.5c0-0.2-0.1-4.1-1.2-3c-0.5,0.1-0.4,0.5-0.4,1.1c0,0,0,0,0,0
		c0,0.5-0.5,0.9-0.5,1.6c0,0.2-0.1,0.3-0.1,0.4C393.3,686,393.2,686.1,393.2,686.2z M394.5,683.5c0,0.1,0,0.1,0.1,0.2
		C394.5,683.6,394.5,683.6,394.5,683.5C394.5,683.5,394.5,683.5,394.5,683.5z"/>
	<path class="st0" d="M329.5,702.3c-0.6-1.6-0.4-3-0.6-4.7c0-0.1-0.1-0.6-0.3-1.1c0-0.1,0-0.1,0-0.2c0.1-0.4,0.2-1-0.2-1.3
		c-0.3-0.2-0.8-0.3-1.1-0.2c-0.1,0.1-0.2,0.2-0.3,0.3c-0.1,0.1-0.1,0.1-0.2,0.2c-0.3,0.2-0.5,0.4-0.6,0.8c-0.2,0.5-0.1,1-0.1,1.5
		c0,0.7-0.2,1.3-0.2,1.9c-0.1,1.3,0,3.7,1.6,4.1c0.5,0.1,1.5,0,1.9-0.3C329.9,703,329.7,702.8,329.5,702.3z"/>
	<path class="st0" d="M329.5,708.9c-0.2,0.3-0.1,0.9-0.1,1.2c0,0.5,0.1,0.9,0.3,1.4c0,0.4,0.1,0.8,0.1,1.1c0,0.2,0.1,0.3,0.1,0.5
		c0,0,0,0.1,0,0.1c0,0.2-0.1,0.5-0.1,0.7c0,0.8,0.5,1.1,1.2,1.4c0.5,0.3,1.3,0.9,1.9,0.6c0.4-0.2,0.5-0.7,0.3-1.1
		c-0.1-0.4-0.5-0.6-0.8-0.9c-0.7-0.7-0.8-1.4-0.8-2.4c0-0.4,0-0.7-0.2-1.1c-0.2-0.4-0.5-1.1-0.8-1.4c-0.3-0.4-0.6-0.7-1.1-0.3
		C329.6,708.7,329.5,708.8,329.5,708.9z"/>
	<path class="st0" d="M323.1,707.1c-0.5-0.8-0.3-1.5-0.2-2.4c0.1-1.1,0.1-2.4-1.1-2.8c-0.2-0.1-0.4,0.1-0.3,0.3
		c0,0.2,0.1,0.4,0.2,0.6c0,0,0,0,0,0c0,0.5,0.1,0.9,0.1,1.4c-0.3,1.2-1,2.3-0.4,3.5c0.3,0.6,1.8,1.8,2.5,1c0.2-0.2,0.2-0.5,0.1-0.8
		C323.7,707.7,323.3,707.4,323.1,707.1z M322,702.8C322,702.8,322,702.8,322,702.8C322,702.8,322,702.8,322,702.8
		C322,702.8,322,702.8,322,702.8C322,702.8,322,702.8,322,702.8C322,702.9,322,702.9,322,702.8z"/>
	<path class="st0" d="M349.1,711.2c0-0.2-0.1-0.5-0.3-0.7c-0.3-0.4-0.8-0.5-1.2-0.3c-0.1,0-0.2,0.1-0.2,0.1c0,0-0.1,0-0.1,0.1
		c-0.5,0.1-1.1,0.4-1.4,0.8c-0.2,0.4-0.2,0.6-0.3,1c0,0.6,0.1,1.2-0.2,1.8c-0.4,0.8-0.6,0.4-0.9,0.8c-1.3,1.6,0.6,3.1,2.2,3.2
		c0.6,0.1,1.6-0.1,1.8-0.8c0.2-0.6-0.4-1.1-0.6-1.6c-0.4-1.3,0.5-1.7,1.5-2.1C350.6,712.9,350,711.9,349.1,711.2z"/>
	<path class="st0" d="M338.9,715c1.4,0.8,4.1,0.6,4-1.6c0-0.8-0.5-0.9-0.9-1.2c-0.1-0.4-0.2-0.8-0.5-1.1c-0.3-0.4-0.8-0.5-1.3-0.7
		c-0.3-0.1-0.6-0.2-1-0.3c-0.4-0.5-0.7-1.1-1.5-1.2c-0.8-0.1-1.6,0.4-1.9,1.2c-0.3,0.6-0.5,1.6-0.1,2.1c0.4,0.5,4.4,1,3.1,2.4
		C338.8,714.8,338.8,714.9,338.9,715z"/>
	<path class="st0" d="M338.6,704c0.3-0.5,0.3-0.9,0-1.4c-0.1-0.1-0.3-0.2-0.4-0.1c-0.3,0.1-0.5,0.4-0.7,0.6
		c-0.6,0.1-1.2,0.2-1.8,0.3c-0.5,0.1-1,0.2-1.5,0.5c-1,0.1-2.2,0.3-2.4,1.2c-0.1,0.4,0.1,0.7,0.1,1.1c0.1,0.3,0,1,0.2,1.3
		c0.3,0.4,0.9,0.5,1.4,0.6c1,0.1,3.2,0.2,3.7-1c0.5-1.3-0.6-0.8,0.8-2.4C338.2,704.4,338.4,704.3,338.6,704z"/>
	<path class="st0" d="M337.8,722.6c-0.1-0.1-0.2-0.1-0.2-0.2c-0.2-0.4-0.5-0.7-0.8-0.9c-0.1-0.3-0.2-0.5-0.3-0.8
		c-0.1-0.1,0-0.4-0.2-0.5c-0.3-0.3-0.5-0.3-0.9-0.3c-0.4,0-0.8-0.1-1.2-0.1c-0.9-0.3-1.7-0.5-2.6-0.7c-0.5-0.1-1,0.1-1.4,0.3
		c-1,0.1-1.7,0.6-1.4,1.9c0.5,2.4,2.5,2.2,4.3,1.9c0.1,0,0.1,0.1,0.2,0.1c0.2,0.9,0.6,1.8,1.5,2c0.9,0.2,3.1-0.8,3.2-1.8
		C338.3,722.8,338.1,723.2,337.8,722.6z"/>
	<path class="st0" d="M342.8,721.5c0-0.4,0-0.8,0-1.2c0.1-0.1,0.1-0.1,0.2-0.2c0-0.1,0.1-0.2,0.2-0.3c0.7-1.9-3.2-1.8-4.1-1.7
		c-0.1,0-0.2,0.1-0.2,0.2c-0.1,0.1-0.1,0.2-0.1,0.3c0.1,0.5,0.9,0.8,1.3,1c0.7,0.5,0.8,1,0.8,1.8c0,0.4,0.1,0.9,0.2,1.2
		c0.2,0.6,0.7,0.8,1.3,0.7c0.5-0.1,1.4-0.3,1.2-0.9C343.5,722.1,342.9,721.9,342.8,721.5z M342.3,720
		C342.3,719.9,342.3,719.9,342.3,720C342.3,719.9,342.4,719.9,342.3,720C342.4,719.9,342.4,719.9,342.3,720z"/>
	<path class="st0" d="M357.5,717.3c-0.2-0.4-0.4-0.8-0.5-1.4c0-0.3,0.1-0.2,0-0.6c-0.4-1.6-3.1-2.2-4-0.8c0,0,0,0,0,0
		c-0.1,0.1-0.2,0.3-0.2,0.4c0,0.4,0.2,0.3,0.4,0.6c0.3,0.3,0.7,0.6,0.9,1c0.1,0.3,0.1,0.7,0.1,1.1c0,0.2,0,0.4,0,0.6c0,0,0,0,0,0.1
		c-0.1,1.5,1.3,3.1,2.9,2.2c0.7-0.4,1-1.1,0.9-1.9C358,718,357.8,717.8,357.5,717.3z"/>
	<path class="st0" d="M368.1,724.9c-0.1-0.4-0.2-0.9-0.4-1.3c0.2-0.6,0.4-1.3,0.5-1.7c0-0.1,0.1-0.2,0.1-0.3
		c0.6-0.5,1.3-0.7,2.3-0.5c0.2,0.1,0.5,0.1,0.7,0.2c0.4,0.3,0.9,0.5,1.5,0.4c0.4-0.1,0.9-0.2,1.2-0.5c0.3-0.1,0.5-0.3,0.7-0.6
		c0.2-0.2,0.5-0.5,0.6-0.8c1.1-1.6,0.7-3.3-0.7-4.6c-1.2-1-2.6-1.3-4-0.9c0,0-0.1-0.1-0.1,0c0,0,0,0-0.1,0.1c-0.7,0.2-1.3,0.5-1.9,1
		c0,0,0,0.1-0.1,0.1c-0.7,0.2-1.5,0.2-2.3,0.7c-0.5,0.3-1.5,1.1-1.9,1.5c-0.2,0.1-0.4,0.3-0.5,0.4c-0.5,0.6-0.5,1.5-0.3,2.3
		c0.1,0.3,0.5,0.8,0.6,1.1c0.4,1.5,0,1.1-1,2c-3.4,3.2,2.6,4.3,4.1,2.8C367.8,725.9,368.2,725.6,368.1,724.9z"/>
	<path class="st0" d="M342,676.8c0.8,0.2,1.5-0.7,1.6-1.3c0,0,0.1-0.1,0.1-0.1c0-0.1,0.1-0.1,0.1-0.2c1-1.2,1.9-2.3,3.5-2.8
		c1.2-0.4,2.2-1.3,2-2.6c0-0.2-0.3-0.2-0.4-0.1c-1.2,1.4-2.5,2.3-4,3.4c-0.8,0.6-1.3,1.4-2.1,1.9c-0.3,0.2-0.9,0.4-1.1,0.8
		C341.3,676.1,341.4,676.7,342,676.8z"/>
	<path class="st0" d="M343.4,679.9c0,0-0.1,0.1-0.1,0.2c0,0.4,0.2,0.7,0.6,0.7c0.7,0.1,1.3-1,1.7-1.4c0.4-0.4,0.8-0.7,1.2-1.1
		c0.4-0.1,0.8-0.2,1.2-0.4c0.9-0.4,1-0.9,1.4-1.6c0.3-0.5,3.1-2.3,1.6-3c-1.5-0.7-2.8,2.4-3.5,3.1
		C346.5,677.5,343.4,678,343.4,679.9z"/>
	<path class="st0" d="M357.4,676c-0.5,0.6-0.9,1.4-0.2,1.8c0,0,0,0,0,0.1c0,0.1,0.2,0.2,0.3,0.2c2.2-0.1,3.7-1.3,5.2-2.7
		c0.6-0.6,2.8-2.5,1-3.1c-0.5-0.2-1,0-1.4,0.3c-1.1,0.8-1.9,1.6-3.2,2.1C358.2,674.9,357.6,675.3,357.4,676z"/>
	<path class="st0" d="M368.2,681.5c-0.1,0.3-0.1,0.6,0.2,0.7c0.2,0.1,0.5,0.3,0.8,0.5c0.2,0.3,0.4,0.5,0.7,0.6
		c0.2,0.1,0.4,0.1,0.6,0c0.5,0.1,1.1,0.1,1.6,0c0.5,0.2,1,0.4,1.5,0.4c0.6,0,1.2,0,1.6-0.5c0.3-0.4,0.2-0.6,0.3-1.1
		c0.1-0.4,0.5-1.3,0.4-1.6c0-0.5-0.1-0.8-0.6-0.9c-0.2,0-0.5,0.1-0.6,0.1c-0.2,0.1-0.3,0.1-0.4,0.2c-0.7,0.3-1.2,0.2-1.8-0.1
		c-1.3-0.3-2.2-0.2-3.6-0.1c-1,0.1-1.8,0-2.5,0.7c-0.1,0.1-0.1,0.3,0.1,0.4c0.5,0.3,1,0.5,1.5,0.6
		C368.2,681.4,368.2,681.5,368.2,681.5z"/>
	<path class="st0" d="M381.8,706c0.5-0.4,0.3-0.8,0-1.2c-0.1-0.2-0.5-0.5-0.7-0.8c-0.4-0.7-0.3-0.9-0.2-1.6c0.1-0.5,0.3-0.7,0.2-1.2
		c-0.2-0.5-0.7-1.1-1.1-1.4c-0.3-0.3-0.6-0.4-1-0.6c-0.6-0.3-2-1.4-2.8-0.9c-0.4,0.2-0.4,0.5-0.2,0.8c-0.1,0.1,0,0.1,0.1,0.6
		c0,0.2,0.2,0.6,0.4,0.9c0.1,0.4,0.2,0.7,0.4,1.1c0,0.2,0.1,0.4,0.1,0.6c0.3,1.3,1.6,2.4,2.6,3.2C380,705.9,381,706.5,381.8,706z"/>
	<path class="st0" d="M368.7,710.3c0.4,0.2,0.7,0.1,0.9,0.6c0.2,0.3,0.2,0.5,0.5,0.7c0.7,0.5,3.6,0.5,3.6-0.7c0-0.3-0.2-0.4-0.4-0.6
		c-0.5-0.6-0.6-1-0.8-1.7c-0.1-0.4-0.2-0.9-0.5-1.2c-0.3-1.1-2.6-1-3.1,0.1c-0.6,0.3-1.1,0.7-1.2,1.5
		C367.8,709.5,368.1,710.1,368.7,710.3z"/>
	<path class="st0" d="M370.9,701.9c-0.1-0.1-0.1-0.2-0.3-0.3c0,0,0,0,0,0c-0.5-0.4-1.5,0.2-1.5,0.9c-0.2,0.2-0.3,0.3-0.5,0.5
		c-0.2,0.2-0.3,0.4-0.3,0.6c0,0,0,0,0,0.1c0,0.2,0.1,0.4,0.4,0.5c0.1,0,0.2,0.1,0.3,0.1c0.1,0,0.1,0,0.2,0c0.1,0,0.2,0,0.3,0
		c0.1,0,0.1,0,0.2,0c0,0,0,0,0,0c0.4,0,0.9,0,1.3,0.2c0.5,0.2,0.9,0.6,1.5,0.3c1.1-0.5,0.1-1.7-0.5-2.1
		C371.4,702.6,371.2,702.3,370.9,701.9z"/>
	<path class="st0" d="M356,698.5c-0.4,0.2-0.8,0.4-1.2,0.5c-0.2,0.1-0.5,0.1-0.7,0.3c-0.3,0.4-0.2,0.8,0,1.1c0,0.3,0.3,0.6,0.6,0.8
		c0.1,0.2,0.4,0.4,0.6,0.4c0.2,0.1,0.4,0.3,0.6,0.5c0.2,0.3,0.3,0.6,0.6,0.8c0.4,0.2,0.8,0,1-0.4c0.1-0.3,0-0.6-0.1-0.9
		c-0.2-0.6-0.1-0.9,0.1-1.5C358.1,698.9,357.2,698.1,356,698.5z"/>
	<path class="st0" d="M378.4,726.2c0-0.1,0.1-0.3,0.1-0.4c0.2-0.5,0.4-1,0.5-1.5c0.6-0.5,1.2-1.3,0.6-2c-0.7-0.7-1.8-0.7-2.4-0.1
		c-1.1,0.2-2.5,0.7-2.7,1.8c-0.3,1.3,0.5,2.6,1.6,3.3c-0.6,0.7-1.1,1.4-1.7,2.1c-0.1,0.1-0.1,0.4,0.1,0.4c0.6,0.1,2.6,0.8,3.5,0.2
		c0.1,0,0.1,0,0.1,0c0.2,0,0.5-0.1,0.6-0.3c0.7-0.8-0.3-2.1-0.4-2.8c0-0.2,0-0.4,0-0.6C378.4,726.4,378.4,726.3,378.4,726.2z"/>
	<path class="st0" d="M370.4,733c0.3-0.2,0.4-0.4,0.5-0.7c0.1-0.5-0.2-0.9-0.1-1.3c0.2-1,1.6-0.2,1.9-1.1c0.3-0.6-0.3-1.3-0.7-1.6
		c-0.5-0.4-1.3-0.6-1.9-0.2c-0.3,0.2-0.4,0.4-0.6,0.7c-0.3,0.5-0.3,0.7-0.8,1.1c-0.1,0-0.1,0.1-0.2,0.1c-0.4,0-0.8,0.1-0.9,0.5
		c-0.2,0.7,0.8,1.5,1.2,2C369.3,732.9,369.8,733.4,370.4,733z"/>
	<path class="st0" d="M384.3,730.3c0.6-0.2,0.5-1.2-0.2-1.1c-1.8,0-3,1.3-3.8,2.9c-0.5,1-0.7,2.1-1.2,3c-0.7,1.4-1.9,2.1-3.2,3
		c-0.2,0.1-0.1,0.4,0.2,0.4c1.6-0.5,3-1.4,4.1-2.7C381.6,733.8,381.9,731.2,384.3,730.3z"/>
	<path class="st0" d="M376.8,732.4c-0.6-0.6-1.6,0.3-2.1,0.7c-0.2,0.1-0.4,0.3-0.6,0.4c-0.1,0.1-0.3,0.1-0.4,0.2
		c-0.4,0.2-0.7,0.3-1.1,0.4c-0.6,0.1-1.2,0.3-1.7,0.7c-1,0.9-1.5,2.2-0.1,2.8c1.2,0.5,2.7,0.5,3.4-0.5c0.1,0,0.1-0.1,0.1-0.1
		c0.3-0.5,0.7-0.8,1.1-1.2c0.4-0.3,0.7-0.7,1-1.2C376.7,734.1,377.4,732.9,376.8,732.4z"/>
	<path class="st0" d="M401.5,701.3C401.5,701.3,401.5,701.3,401.5,701.3c0,0.1,0,0.1,0,0.1c0,0.4,0.1,0.8,0.3,1c0,0,0.1,0.1,0.2,0
		c0.5-0.1,0.3-0.1,0.9,0c0.7,0.1,0.6,0.3,1.1,0.6c0.4,0.3,0.9,0.3,1.4,0.3c0.9-0.1,2.2-0.4,2.4-1.4c0.2-1-0.7-1.8-1.5-2.1
		c-0.8-0.3-1.7-0.1-2.5,0c-0.2,0-0.4,0-0.6,0c-0.5-0.1-0.8-0.6-1.3-0.6c-0.6-0.1-1.1,0.4-0.9,1c0.1,0.3,0.3,0.5,0.5,0.7
		c0,0.1,0,0.2,0,0.4C401.5,701.2,401.5,701.3,401.5,701.3z"/>
	<path class="st0" d="M413,694.8c0-0.3-0.2-0.5-0.4-0.7c-0.4-0.3-1-0.3-1.4,0.1c-0.2,0.2-0.2,0.5-0.3,0.8c-0.1,0.1-0.2,0.2-0.4,0.3
		c-0.5,0.2-1,0.4-1.4,0.6c-0.4,0.1-0.8,0.2-1.1,0.4c-0.3,0.1-0.6,0.3-0.6,0.6c-0.3,1.3,1.7,1.6,2.5,1.4c0.6-0.2,1.1-0.2,1.7-0.1
		c0.4,0.1,0.7,0.1,1,0c0.5-0.1,1.1-0.3,1.3-0.8c0.2-0.4,0-1.4-0.2-1.8C413.6,695.3,413.3,695,413,694.8z"/>
	<path class="st0" d="M415.9,698.5c-0.1,0.2-0.1,0.3,0,0.5c0.1,0.4,0.5,0.5,0.9,0.5c0.7,0.1,1.9-0.3,1.6-1.2
		c-0.1-0.2-0.3-0.3-0.3-0.5c0-0.2,0.1-0.4,0.1-0.6c0-0.4-0.3-0.2-0.6-0.4c0,0-0.1,0.5-0.1,0.5c0,0,0,0,0,0c-0.8,0-1.5,0.2-1.4,1
		c0,0.2,0.1,0,0,0.2C416.1,698.6,416,698.4,415.9,698.5z"/>
	<path class="st0" d="M413.2,705c-0.5-0.2-0.9-0.1-1.4-0.4c-0.3-0.2-0.5-0.4-0.8-0.5c-0.7-0.1-1.6,0.3-2.2,0.7
		c-0.2,0-0.3,0.1-0.5,0.2c-0.1,0.1-0.2,0.1-0.3,0.3c-0.2,0.5,0.5,1.1,0.9,1.3c0.3,0.2,0.7,0.2,1.1,0.3c0.6,0.1,0.9,0.6,1.4,0.8
		c0.1,0,0.2,0.1,0.3,0.1c0.2,0.2,0.5,0.2,0.8,0.2c0.4,0,0.6-0.2,0.8-0.5C414.1,706.9,414.3,705.5,413.2,705z"/>
	<path class="st0" d="M411.8,711.9c1.2-0.2,2-1.5,1-1.9c0-0.1-0.1-0.1-0.1-0.1c-1-0.1-2-0.1-3-0.2c-0.8-0.1-1.1-0.1-1.9-0.6
		c-0.2-0.1-0.1-0.2-0.4-0.3c-0.9-0.3-1.6,0.2-2.3,0.7c-0.1,0.1-0.1,0.4,0.1,0.4c0.5,0.2,0.9,0.2,1.4,0.3c0.2,0,0.4,0.1,0.5,0.1
		c0.1,0.1,0.3,0.2,0.4,0.2c0.6,0.3,1.1,0.8,1.7,1.1c0.1,0,0.1,0.1,0.2,0.1C410.1,712.1,411,712.1,411.8,711.9z M405.8,709.7
		C405.8,709.7,405.8,709.7,405.8,709.7C405.8,709.7,405.8,709.7,405.8,709.7C405.8,709.7,405.8,709.7,405.8,709.7z M405.9,709.7
		C406,709.7,406,709.7,405.9,709.7C406,709.7,406,709.7,405.9,709.7C406,709.7,406,709.7,405.9,709.7z"/>
	<path class="st0" d="M415,717.5c-0.1-0.3-0.3-0.5-0.2-0.8c0-0.2,0.2-0.2,0.1-0.4c0-0.4-0.3-0.5-0.5-0.6c0,0,0,0-0.1-0.1
		c-0.2-0.2-0.4-0.2-0.6-0.2c0,0,0,0-0.1,0c-0.2,0-0.5,0.1-0.7,0.1c-0.2,0-0.5,0-0.7,0.1c-0.1,0-0.1,0-0.2,0c-0.4,0-0.8-0.2-1.2-0.2
		c-0.4,0-0.7,0.2-0.7,0.6c0,0.7,1,0.8,1.4,1.2c0.4,0.5,0.4,1,1.1,1.2C413.2,718.7,415.3,718.6,415,717.5z"/>
	<path class="st0" d="M421.9,668.1c0.1-0.1,0.1-0.2,0.1-0.3c0.2-0.2,0.4-0.4,0.7-0.6c0.4-0.3,0.9-0.4,1.2-0.7c0.1,0,0.1-0.1,0.2-0.2
		c0.2,0,0.3,0,0.6-0.4c0.4-0.6,0.4-1.7,0.4-2.4c0.1-1.7-0.1-2.9,1-4.3c0.1-0.1,0.2-0.2,0.3-0.2c0.1-0.1,0.1-0.2,0-0.3
		c0-0.2-0.3-0.3-0.4-0.1c-0.2,0.2-0.4,0.4-0.6,0.7c-0.7,0.6-1.2,1.4-1.8,2.2c-0.9,1.2-2.3,2.1-3,3.5c-0.4,0.8-0.3,1.8-0.6,2.7
		c-0.4,1.1-1.1,1.9-1.7,2.8c-0.4,0.7-0.8,1.2-0.6,1.9c-0.1,0.5,0.1,0.6,0.5,0.9c0.1,0.1,0.4,0,0.5,0c0.2,0.1,0.5,1.3,0.9,1.5
		c1.4,0.9,3.8-0.7,3.4-2.4c-0.4-1.6-2.4-0.9-1.7-3.2C421.3,669,421.7,668.3,421.9,668.1z"/>
	<path class="st0" d="M443.7,676.1c0.1,0.2,0.1,0.3,0.3,0.5c0.5,0.3,1.6,0.2,2.1,0c0.3-0.1,0.7-0.4,0.5-0.8
		c-0.1-0.4-0.5-0.4-0.7-0.7c0,0,0,0,0-0.1c0-0.1,0-0.1-0.1-0.2c0-0.1-0.1-0.1-0.1-0.2c-0.1-0.3,0.3-0.3,0.4-0.7c0-0.1,0-0.2,0-0.3
		c0-0.1,0-0.2,0-0.2c-0.1-0.3-0.3-0.8-0.6-0.9c-0.4-0.2-0.9,0.1-1.3,0.3c-0.2,0.1-0.6,0.3-1,0.5c-0.2,0.1-0.4,0.2-0.6,0.3
		c-0.4,0.4-0.2,1,0.2,1.4C443.2,675.5,443.5,675.6,443.7,676.1z"/>
	<path class="st0" d="M319.6,703.8c0.1-0.2,0.1-0.3,0-0.5c-0.1-0.2-0.3-0.4-0.6-0.4c-0.4,0-0.5,0.4-0.6,0.8
		c-0.6,0.7-1.1,1.2-1.8,1.8c0,0-0.1,0-0.1,0.1c-0.5,0.2-0.8,0.4-1,0.7c-0.3,0.2-0.6,0.5-0.8,0.7c-0.2,0.2-0.3,0.4-0.4,0.6
		c-0.2,0.3-0.4,0.6-0.6,0.9c-0.6,1-0.8,2.1,0.1,2.7c0.1,0.2,0.2,0.3,0.3,0.5c0,0.1,0.1,0.2,0.1,0.2c0.1,0.1,0,0.3,0.1,0.5
		c0.2,0.3,0.4,0.5,0.8,0.3c0.3-0.1,0.4-0.3,0.5-0.6c0.2-0.5,0-1.7,0.1-2.2c0.2-0.9,0.6-1.7,1.1-2.4c0.2-0.3,0.5-0.6,0.8-0.8
		c0.3-0.2,0.5-0.4,0.7-0.7C319.1,705.5,319.7,704.8,319.6,703.8z"/>
	<path class="st0" d="M322.3,716.8c0-0.2,0-0.3-0.1-0.5c0,0-0.1-0.1-0.1-0.1c0-0.1-0.1-0.2-0.1-0.3c-0.3-0.6-0.4-1-0.4-1.5
		c0-0.1,0-0.1,0-0.2c0-0.4,0.1-0.7,0.1-1.1c0.1-0.6,0.4-1.3,0.1-1.9c-0.3-0.8-1.8-1.4-2.3-0.5c-0.1,0.2,0.1,0.4,0.3,0.3
		c0.6,0.8,0.1,2,0.1,3c0,0.6,0.1,1.3,0.3,1.8c0.3,0.9,0.9,1.4,1.9,1.4C322.2,717.3,322.4,717.1,322.3,716.8
		C322.3,716.9,322.3,716.8,322.3,716.8z"/>
	<path class="st0" d="M349.3,722.4c0-0.4,0-0.9-0.2-1.3c-0.4-0.7-1.2-0.6-1.6,0c-0.5,0.7-0.9,1.8-0.6,2.7c0.1,0.3,0.3,0.5,0.5,0.7
		c0.3,0.6,1.2,1,1.8,0.6c0.4-0.2,0.5-0.6,0.5-1.1c0-0.4-0.1-0.7-0.3-1C349.3,722.9,349.3,722.6,349.3,722.4z"/>
	<path class="st0" d="M310,711.1c0.3,0.1,0.6-0.1,0.7-0.3c0.3-0.5,0.1-1.3,0.3-1.9c0.2-0.4,0.4-0.8,0.7-1.2c0.1-0.1,0.3-0.3,0.4-0.5
		c0.1,0,0.2,0,0.2-0.1c0.1-0.3,0.1-0.6-0.2-0.8c-0.3-0.2-0.7-0.1-1,0.1c-0.2,0.1-0.3,0.2-0.5,0.4c-0.5,0.3-0.8,0.7-0.9,1.4
		c-0.1,0.7-0.2,1.4-0.1,2.1C309.6,710.6,309.6,710.9,310,711.1z M311.7,706.7C311.7,706.8,311.7,706.8,311.7,706.7
		C311.7,706.8,311.7,706.8,311.7,706.7C311.7,706.8,311.7,706.8,311.7,706.7z"/>
	<path class="st0" d="M331.7,692.5c0.9,0.1,1.3-0.7,1.6-1.4c0.1-0.4,0.3-0.7,0.5-1.1c0.5-0.9,1-1.8,1.1-2.1c0.5-1.2,0.9-2,2-2.8
		c0.6-0.4,1.2-0.9,1.7-1.4c0.6-0.6,1.7-1.4,1.3-2.4c-0.1-0.2-0.3-0.3-0.5-0.2c-2.1,1.3-4.3,2.7-5.2,5.1c-0.4,1.1-1.2,1.6-1.8,2.5
		c-0.3,0.3-0.6,0.6-0.8,1c-0.3,0.3-0.5,0.8-0.7,1.2C330.6,691.5,330.8,692.4,331.7,692.5z"/>
	<path class="st0" d="M365.4,686.1c-0.3-0.6-0.6-0.7-1.2-1c-0.6-0.2-1.6-0.7-2.3-0.6c-0.2-0.1-0.7-0.3-0.9-0.1
		c-0.4,0.3-0.3,0.8-0.1,1.2c0,0.1,0,0.1,0,0.2c0.1,0.4,0.6,0.6,0.8,0.9c0.2,0.3,0.4,0.5,0.7,0.7c0,0,0,0,0,0
		c0.2,0.2,0.2,0.3,0.5,0.4c0.1,0,0.2,0.1,0.3,0.1c0.5,0.2,1.1,0.4,1.6,0.3c0.6,0.2,1.2,0.2,1.7-0.2c0.2-0.2,0.2-0.5,0.1-0.7
		C366.6,686.7,365.8,686.8,365.4,686.1z"/>
	<path class="st0" d="M386.6,711.1c-0.1-0.1-0.2-0.2-0.4-0.3c-0.2-0.2-0.2-0.5-0.4-0.8c-0.5-0.8-1.6-0.4-2.2-1.1
		c-0.1-0.1-0.2-0.1-0.2,0c-0.3,0.1-0.5,0.4-0.5,0.7c0,0.1,0,0.1,0.1,0.2c0,0.1,0,0.1,0.1,0.2c0,0,0.1,0.1,0.1,0.1
		c0.1,0.1,0.1,0.1,0.2,0.2c0.1,0.2,0.1,0.3,0.2,0.5c-0.1,0.2-0.1,0.5,0.1,0.7c0.1,0.1,0.2,0.2,0.3,0.3c0,0,0,0.1,0.1,0.2
		c0.1,0.2,0.2,0.6,0.4,0.7c0.1,0,0.2,0,0.3,0c0.1,0,0.3,0.1,0.4,0.1c0.5,0,1,0,1.4-0.4c0.1,0,0.3-0.1,0.3-0.2c0.1-0.2,0-0.5-0.2-0.7
		C386.7,711.3,386.6,711.2,386.6,711.1z M383.5,709.4C383.5,709.4,383.5,709.4,383.5,709.4C383.5,709.4,383.5,709.4,383.5,709.4
		C383.5,709.4,383.5,709.4,383.5,709.4z"/>
	<path class="st0" d="M414.7,710.3c-0.1,0.3,0,0.5,0.2,0.6c0.1,0.1,0.2,0.1,0.3,0.1c0,0.1,0,0.2,0,0.3c0.1,0.2,0.3,0.5,0.6,0.4
		c0.2,0,0.5-0.1,0.7-0.2c0.3-0.1,0.5-0.2,0.7-0.4c0.3-0.4,0.3-0.9,0-1.3c0-0.1-0.1-0.2-0.1-0.3c-0.2-0.2-0.5-0.2-0.8-0.2
		c-0.3,0-0.5,0.1-0.7,0.2c-0.1,0-0.1,0.1-0.2,0.1c0,0-0.1,0-0.1,0c0,0-0.1,0-0.1,0.1C414.9,710,414.7,710.1,414.7,710.3z"/>
	<path class="st0" d="M327.5,708.6c-0.2-0.4-0.7-0.4-1-0.1c-0.1,0.1-0.2,0.3-0.2,0.4c-1.1,0.9-1.1,2.6-1.2,3.9c0,0.1,0,0.1,0,0.2
		c-0.1,1.1-0.3,2.6,0.1,3.7c0.4,1.1,1.5,1.6,1.7,0.2c0.1-0.4-0.1-0.7-0.2-1.2c-0.2-1.1-0.1-2.1,0.1-3.2c0.1-0.5,0.1-1.1,0.2-1.6
		c0.2-0.3,0.3-0.6,0.5-1c0.2-0.4,0.4-1,0.1-1.3C327.6,708.8,327.6,708.7,327.5,708.6z"/>
	<path class="st0" d="M456.2,661.3c-0.2,0-0.4,0-0.7-0.1c-1.6-0.2-1-0.4-2-1c-0.2-0.1-0.4-0.2-0.6-0.3c-0.8-0.2-1.3,0.3-2,0.6
		c-0.7,0.4-1.3,0.5-1.9,0.5c-0.7-0.1-1.5-0.2-2.3-0.3c-0.5-0.1-1-0.1-1.5,0c-0.1,0-0.1,0-0.2,0c-0.2,0-0.4,0.1-0.7,0.3
		c-0.2,0.1-0.4,0.4-0.3,0.6c0,0.1,0,0.2,0,0.3c0,0.2,0.1,0.3,0.2,0.5c0.1,0.2,0.1,0.4,0.1,0.6c0,0.1,0,0.1,0,0.1
		c0,0.3,0.2,0.5,0.4,0.6c0.1,0.3,0.2,0.6,0.5,0.8c0.6,0.4,1.2-0.1,1.8,0c0.9,0.1,1.6,0.9,2.4,1.3c0.9,0.5,2.4,0.4,3.4,0.1
		c1.5-0.5,2.5-1.8,4.2-1.8c0.9,0,1.1-0.1,1.7-0.5c0.1,0,0.1,0,0.2-0.1c0.1,0,0.1-0.1,0.1-0.1c1.2-0.5,2.5,0.3,3.3-1.1
		c0,0,0.1-0.1,0.1-0.1c0.1-0.1,0.1-0.3,0.1-0.4c0.8-2.4-1.3-1.4-2.8-1.8c-0.1-0.3-0.4-0.7-0.7-1c-0.2-0.2-0.6-0.3-0.9-0.1
		c-0.3,0.2-0.4,0.3-0.6,0.5c-0.1,0.2,0,0.3-0.1,0.5C457.3,660.7,456.8,661.1,456.2,661.3z"/>
	<path class="st0" d="M428.6,647.7C428.6,647.7,428.6,647.7,428.6,647.7c0,0.1,0,0.2,0,0.3c0.4,1.1,2.4-0.9,2.7-1.3
		c0.7-1.1,0.2-2.3-1.2-2c-0.6,0.1-1.2,0.5-1.5,1c-0.1,0.3-0.2,0.6-0.2,0.9c0,0.2,0.1,0.5,0.2,0.8
		C428.6,647.3,428.6,647.5,428.6,647.7z"/>
	<path class="st0" d="M433,665.4c0.4-0.2,0.7-0.8,0.3-1.2c-0.2-0.2-0.5-0.2-0.7-0.1c0,0,0,0,0,0c-0.1,0-0.2,0.1-0.3,0.1
		c0,0-0.1,0-0.1,0.1c-0.1,0.1-0.2,0.1-0.3,0.2c-0.2,0.2-0.2,0.4-0.1,0.6C432,665.5,432.6,665.6,433,665.4z"/>
	<path class="st0" d="M424.7,670.7c0.5,0.3,1.3-0.1,1.8-0.4c0.2-0.1,0.5-0.3,0.7-0.5c0.4-0.1,0.8-0.3,1.1-0.5c0.8,0,1.8-0.7,1.5-1.5
		c-0.5-1.3-2.2-0.8-2.9-0.1c-0.4,0.4-0.5,0.9-1,1.1c-0.3,0.2-0.6,0.3-0.9,0.5c-0.2,0.2-0.4,0.4-0.4,0.6c-0.1,0.1-0.1,0.2-0.1,0.4
		C424.5,670.4,424.6,670.6,424.7,670.7z M428.7,667.8c-0.1,0-0.1,0-0.2-0.1C428.7,667.7,428.7,667.7,428.7,667.8z"/>
	<path class="st0" d="M431.2,671.4c-0.1,0.1,0,0.3,0.1,0.4c0.9,0.6,3.1,0.9,3.3-0.6c0.1-0.6-0.2-1.2-0.8-1.3c-0.3,0-0.6,0.1-0.8,0.3
		c-0.2,0.2-0.3,0.3-0.5,0.4C431.9,670.7,431.5,671,431.2,671.4z"/>
	<path class="st0" d="M435.9,665.4c-0.4-0.1-0.7,0.1-0.9,0.4c0,0-0.1,0-0.1,0c-0.3,0.3-0.1,0.7,0.2,0.8c0.4,0.2,0.9,0,1.1-0.3
		C436.5,666.1,436.3,665.6,435.9,665.4z"/>
	<path class="st0" d="M442.2,667.9c0.1-0.4,0.1-0.7-0.1-0.8c0-0.3-0.2-0.5-0.4-0.6c-0.6-0.6-2.2-0.5-2.7,0c-0.2,0.2-0.3,0.5-0.3,0.8
		c0.1,0.5,0.4,0.8,0.3,1.4c-0.2,0.6,0.1,1,0.7,1.2c0.6,0.1,1.4-0.2,1.9-0.7c0.1-0.1,0.2-0.2,0.2-0.4c0-0.1-0.1-0.4-0.1-0.4
		C441.7,668.4,442.1,668.2,442.2,667.9z M439.6,667.6C439.6,667.6,439.6,667.6,439.6,667.6C439.6,667.5,439.6,667.6,439.6,667.6
		C439.6,667.6,439.6,667.6,439.6,667.6z"/>
	<path class="st0" d="M429.4,672.8c0-0.1-0.1-0.1-0.1-0.2c0-0.2-0.1-0.4-0.3-0.5c0,0,0,0,0,0c0,0,0,0,0,0c0,0,0,0,0,0c0,0,0,0,0,0
		c0,0,0,0,0,0c0,0,0,0,0,0c-0.4-0.3-1.3,0.1-1.3,0.6c0,0.3,0.2,0.4,0.5,0.6c0.3,0.2,0.4,0.5,0.8,0.6c0.2,0.1,0.5,0,0.7-0.2
		C429.6,673.4,429.5,673.1,429.4,672.8z"/>
	<path class="st0" d="M434.7,674.7c0.4,0.1,0.8,0.1,1.1,0c0.7-0.3,0.1-1.8-0.6-1.5c-0.2,0.1-0.4,0.2-0.6,0.3c-0.2,0.1-0.5,0-0.7,0.1
		c-0.4,0.1-0.4,0.5-0.1,0.8C434,674.6,434.4,674.7,434.7,674.7z"/>
	<path class="st0" d="M439.8,673.5c0.1-0.1,0.1-0.4,0-0.5c0-0.1-0.1-0.3-0.3-0.3c-0.5,0-0.9,0.1-1.4,0.4c-0.2,0.1-0.2,0.4,0,0.5
		C438.7,673.9,439.4,673.9,439.8,673.5z"/>
	<path class="st0" d="M450.6,680.8c0.3,0.5,0.8,0.9,1.5,0.6c0.6-0.2,0.8-0.9,0.6-1.5c-0.1-0.2-0.2-0.3-0.3-0.4
		c-0.1-0.3-0.4-0.5-0.8-0.6c-0.3,0-0.5,0-0.8,0.1c-0.4,0.1-0.8,0.1-1.3-0.1c-0.3-0.1-0.5,0.3-0.4,0.5c0.1,0.3,0.3,0.4,0.6,0.6
		C450.2,680.2,450.4,680.4,450.6,680.8z"/>
	<path class="st0" d="M435.3,687.4c-0.2-0.2-0.4-0.3-0.5-0.7c0,0,0.1-0.7,0.1-0.7c0-0.4-0.2-0.7-0.4-1c-0.4-0.5-1.1-1.1-1.8-1.2
		c-0.5-0.3-1.2-0.3-1.8-0.1c-0.6,0.2-1.2,0.7-0.7,1.3c0.8,1,2.8,0.4,2.5,2.5c0,0.3-0.3,0.3-0.1,0.6c0.1,0.3,0.6,0.4,0.8,0.5
		C434.4,689.1,436.4,688.7,435.3,687.4z M433.4,685.1C433.4,685.1,433.4,685.1,433.4,685.1C433.4,685.1,433.4,685.1,433.4,685.1
		C433.4,685.1,433.4,685.1,433.4,685.1z"/>
	<path class="st0" d="M424.6,690.1c0-0.9-0.3-1.9-1.2-2.3c-0.6-0.3-2.4-0.9-3-0.5c-0.3,0.2-0.4,0.6-0.2,0.9c0,0,0,0,0,0
		c0,0.2,0.1,0.4,0.3,0.5c0,0,0.1,0,0.1,0c0,0,0,0.1,0.1,0.1c0,0,0,0,0,0c0.5,0.7,1,0.1,1.4,1.3c0.1,0.6-0.2,1.5-0.1,2.1
		c0.1,0.6,0.5,1.2,0.6,2c0,0.1,0,0,0,0c0,0.1,0,0,0,0c0,0,0,0,0,0c0.1,3,0.7,3,0.8,0c0,0,0,0,0,0c0,0,0,0.1,0,0.1c0,0,0,0.1,0,0.1
		c0-0.1,0-0.1,0-0.1c0-1.2,0.2-1.7,0.7-2.7C424.4,691.2,424.6,690.7,424.6,690.1z"/>
	<path class="st0" d="M440.5,696.9C440.5,696.9,440.5,696.9,440.5,696.9c-0.3-0.3-0.6-0.3-1-0.3c0,0-0.1,0-0.1,0
		c-0.7,0.1-1.3,0.4-1.9,0.9c-0.5,0.4-0.9,0.8-1.3,1.2c-0.3,0.2-0.7,0.3-1,0.5c-0.3,0.3-0.4,0.6-0.1,0.9c0.5,0.5,1.8,0.1,2.3,0.1
		c0.7-0.1,1.1-0.3,1.7-0.8c0.5-0.5,1.5-0.7,1.8-1.4C441.1,697.4,440.8,697.1,440.5,696.9z"/>
	<path class="st0" d="M442,700.2c-0.1,0-0.3,0.1-0.5,0.1c-0.1,0-0.2,0-0.2,0c-0.2,0-0.3,0.1-0.4,0.2c-0.3,0.2-0.4,0.4-0.3,0.7
		c0.1,0.2,0.3,0.3,0.4,0.4c0.2,0.2,0.4,0.5,0.7,0.5c0.2,0.1,0.5-0.1,0.7-0.2c0.1,0,0.2-0.1,0.2-0.1c0.1-0.1,0.3-0.3,0.4-0.5
		c0.4-0.4,0.8-1,0.6-1.5C443.4,699.5,442.6,699.9,442,700.2z"/>
	<path class="st0" d="M464.4,687.6c-3.1,1.1-6.1,2.5-9.4,2.6c-0.2,0-0.4,0-0.7,0c-1.2-0.3-4-1.1-4.3,0.4c-0.2,0.9,0.9,1.2,2,1.2
		c1.1,0.3,2.3,0.6,3.4,0.6c1.1,0.3,2.2,0.2,3.3-0.7c1.4-1.3,2.7-1.4,4.3-2.2c0.8-0.4,1.3-0.8,1.7-1.6
		C464.7,687.7,464.6,687.5,464.4,687.6z"/>
	<path class="st0" d="M461.8,700.4C461.8,700.4,461.8,700.4,461.8,700.4c-3-1.2-5.6,0.8-7.8,2.9c-0.6,0.5-1.1,1-1.5,1.6
		c-0.1,0.2-0.3,0.3-0.4,0.4c-0.3,0.2-0.6,0.3-0.9,0.6c0,0,0,0.1,0,0.2c0.4,0.8,1.7,0.6,2.9,0.1c2.2-0.3,3.4-2.7,5.4-3.8
		c0.5-0.1,1.3-0.1,1.8-0.3c0.2-0.1,0.3-0.3,0.4-0.4c0.2-0.1,0.5-0.2,0.7-0.4c0.1-0.1,0.1-0.2,0-0.3
		C462.2,700.5,462.2,700.6,461.8,700.4z M452.1,705.7c0,0,0-0.1,0.1-0.1c0,0,0,0,0,0c0,0,0,0,0,0
		C452.2,705.6,452.2,705.6,452.1,705.7C452.1,705.7,452.1,705.7,452.1,705.7z"/>
	<path class="st0" d="M449.4,706.4c0.2-0.7,0.3-1.3,0.9-1.9c0.5-0.6,1.1-1.1,1.5-1.8c0,0,0,0,0,0c0.1,0,0.2-0.2,0.1-0.4
		c0-0.1-0.1-0.1-0.1-0.2c-0.1-0.1-0.2-0.1-0.3-0.1c-1,0.2-1.7,1.5-2.2,2.3c-0.4,0.7-0.6,1.5-1.1,2.2c-0.6,0.9-1.6,1.4-2.4,2.2
		c-0.3,0.3-1,1-0.8,1.5c-0.1,0.3-0.2,0.6,0.2,0.8c0.6,0.3,1.3-0.4,1.7-0.7c0.3-0.4,0.6-0.8,0.9-1.1c0.4-0.5,0.8-0.8,1.3-1.2
		C449.5,707.5,449.8,707,449.4,706.4z M449,706.2C449,706.2,448.9,706.2,449,706.2c0-0.1,0-0.1,0-0.1C449,706.1,449,706.1,449,706.2
		z"/>
	<path class="st0" d="M453.5,710.7c0.3,0,0.7-0.1,1-0.3c0.7-0.4,1-1.2,0.8-2c-0.1-0.2-0.3-0.2-0.4-0.1c-0.4,0.4-0.9,0.8-1.5,1
		c-0.6,0.2-1,0-1.6,0.1c-0.4,0-0.7,0.2-0.9,0.4c-0.6,0.2-1.3,0.5-1.3,0.9c0,0.3,0.3,0.5,0.6,0.5C451,712.2,452.4,711.4,453.5,710.7z
		 M454.8,709.2L454.8,709.2C454.8,709.2,454.8,709.1,454.8,709.2C454.8,709.1,454.8,709.2,454.8,709.2z M454.8,709
		C454.8,709,454.8,709.1,454.8,709C454.8,709.1,454.8,709,454.8,709C454.8,709,454.8,709,454.8,709z"/>
	<path class="st0" d="M455.2,714c-0.7,0.1-1.2,0.4-1.7,0.9c-0.8,0.4-1.6,0.8-2.1,1.3c-0.2,0.2-0.3,0.5-0.4,0.8
		c-0.1,0.3-0.3,1.4-0.1,1.8c0.1,0.3,0.1,0.1,0.3,0.3c0.1,0.1,0.3,0.2,0.4,0.3c0,0.1,0,0.2,0,0.3c0.1,0.1,0.1,0.2,0.2,0.2
		c0.4,0.4,1.2,0.1,1.5-0.2c0.2-0.2,0.2-0.5,0.3-0.8c0.4-0.7,0.8-1.5,1.4-2c0.1-0.1,0.2-0.1,0.3-0.2c0,0,0.1-0.1,0.1-0.1
		c0.3-0.1,0.7-0.3,0.9-0.5c0.4-0.2,0.6-0.6,0.6-1C456.7,714.2,455.8,713.9,455.2,714z M451.4,718.7c-0.1,0-0.1-0.1-0.1-0.1
		C451.3,718.6,451.3,718.7,451.4,718.7C451.4,718.7,451.4,718.7,451.4,718.7z"/>
	<path class="st0" d="M464.6,716.2c0.3-0.4,0.2-0.8-0.3-1.1c-0.2-0.1-0.4-0.1-0.7-0.1c-0.1,0-0.2,0-0.3,0c-0.3,0.1-0.6,0.2-0.9,0.3
		c0,0-0.1,0-0.1,0c-0.7,0.2-1.2,0.5-1.6,1.2c-0.5,0.9-1,1.4-1.8,2c-0.4,0.3-0.9,0.6-1.2,1c-0.5,0.5-0.9,1.3-0.5,1.9
		c0.3,0.5,1,0.7,1.5,0.5c0.4-0.2,0.5-0.5,0.7-0.9c0.4-0.8,0.6-1.5,1.3-2.1c0.7-0.7,1.5-1.2,2.3-1.7
		C463.5,717,464.3,716.6,464.6,716.2z"/>
	<path class="st0" d="M468.2,721.7c-1,0.2-1.8,0.6-1.3,1.1c0.5,0.4,1.4,0.2,1.9-0.1c0.1,0,0.2-0.1,0.2-0.2c0.2-0.1,0.4-0.2,0.6-0.3
		c0.2,0,0.3,0,0.5-0.1c0.2-0.1,0.3-0.2,0.4-0.3c0,0,0.1-0.1,0.1-0.1c0.2-0.5-0.3-0.9-0.8-0.8c-0.4,0-0.6,0.3-0.9,0.5
		C468.6,721.5,468.4,721.6,468.2,721.7z"/>
	<path class="st0" d="M415.5,703c-0.3,0.1-0.5,0.4-0.4,0.7c0.1,0.4,0.4,0.6,0.8,0.7c0.4,0.1,0.4,0.3,0.6,0.6
		c0.1,0.1,0.2,0.2,0.4,0.2c1,0.2,1.2-0.9,1.1-1.7c-0.1-0.9-1-0.7-1.6-0.4C416.1,703.1,415.8,703,415.5,703z M417.3,704.8
		C417.3,704.8,417.3,704.8,417.3,704.8C417.3,704.8,417.3,704.8,417.3,704.8C417.3,704.8,417.3,704.8,417.3,704.8z"/>
	<path class="st0" d="M420.6,715c-0.6-0.7-1.5-0.3-2,0.3c-0.3,0.1-0.6,0.2-0.8,0.5c0,0.1-0.1,0.1-0.1,0.2c-0.1,0.3,0,0.6,0.1,0.8
		c0.2,0.4,0.5,0.4,0.8,0.3c0.4-0.1,0.7-0.1,1.1-0.1c0.2,0,0.4,0.1,0.6,0.1C421.5,716.9,421.1,715.5,420.6,715z"/>
	<path class="st0" d="M418.4,721.7c-0.5-0.4-1.3-0.6-1.8-0.2c-0.3,0.2-0.3,0.5,0,0.7c0.3,0.2,0.6,0.3,0.8,0.6
		c0.1,0.3,0.1,0.6,0.3,0.9c0.4,0.6,1.8,0.4,2-0.3C419.9,722.7,419.2,721.9,418.4,721.7z"/>
	<path class="st0" d="M411.6,720.4c-0.2-0.1-0.1-0.1-0.1-0.3c0-0.1,0-0.2-0.1-0.2c-0.1-0.1-0.3-0.2-0.4-0.2
		c-0.3-0.1-0.8-0.2-1.1,0.1c-0.3,0.3-0.1,0.8,0,1.1c0.1,0.3,0.3,0.8,0.7,0.9c0.2,0,0.5,0,0.7-0.1c0.3,0.1,0.6,0.1,0.9-0.1
		c0.2-0.2,0.4-0.5,0.3-0.8C412.2,720.4,411.9,720.5,411.6,720.4z M410.2,720.2L410.2,720.2C410.2,720.2,410.2,720.2,410.2,720.2
		C410.2,720.2,410.2,720.2,410.2,720.2z"/>
	<path class="st0" d="M472.2,724.6c-0.3,0-0.6,0-0.9,0.2c-0.2,0.1-0.4,0.3-0.3,0.5c0.1,0.6,0.8,0.4,1.2,0.3c0.3-0.1,1.1-0.5,0.7-0.9
		C472.7,724.6,472.4,724.6,472.2,724.6z"/>
	<path class="st0" d="M447.8,697.3c0.7,0,1.5-0.7,1.8-1.3c0.1-0.3,0.1-0.7-0.2-0.9c-0.3-0.2-0.6-0.3-1-0.2c-0.2,0-0.5,0.1-0.7,0.2
		c0,0,0,0-0.1,0c-0.5,0.1-0.9,0.4-1,1C446.5,696.9,447.1,697.4,447.8,697.3z"/>
	<path class="st0" d="M443.5,686.3c-0.7-0.2-1-0.6-1.4-1.2c-0.5-0.7-1.3-0.9-2.1-1.1c-0.4-0.1-1.2-0.2-1.5,0.3
		c-0.2,0.3-0.1,0.6,0.2,0.9c0,0.1,0,0.1,0,0.2c1.3,0.7,0.5,2.2,2,2.5c1.3,0.2,2.8-0.3,4-0.7c0.2-0.1,0.2-0.3,0-0.4
		C444.3,686.5,443.9,686.5,443.5,686.3z M444.1,687C444.1,687,444.1,687,444.1,687C444.1,687,444.1,687,444.1,687
		C444.1,687,444.1,687,444.1,687z"/>
	<path class="st0" d="M455.3,670.1c-0.4-0.4-1-0.6-1.6-0.5c-0.4,0.1-1.2,0.3-1.2,0.8c0,0.2,0.1,0.4,0.3,0.5c0.4,0.6,0.5,1.1,0.6,1.8
		c0.1,0.5,0.2,1.1,0.8,1.3c0.6,0.2,1.7,0.1,2.3-0.2c0.6-0.3,0.6-1.2,0.2-1.7c0,0,0-0.1-0.1-0.1C455.9,671.6,455.9,670.7,455.3,670.1
		z"/>
	<path class="st0" d="M462.6,650.5c-0.3,0.3-0.1,0.4-0.7,0.8c-0.4,0.2-0.8,0.4-1.2,0.6c-0.5,0.2-1,0.5-1.3,0.8
		c-0.1,0.1-0.2,0.2-0.3,0.2c-0.5,0.3-0.7,0.8-0.2,1.5c0.3,0.4,1,0.7,1.6,0.5c0.2-0.1,0.4-0.2,0.6-0.4c0,0,0,0,0.1-0.1
		c0.3-0.3,0.4-0.4,0.7-0.4c0.3,0.1,0.7,0.2,0.8,0.1c0.3-0.1,0.2-0.2,0.4-0.3c0.4-0.1,0.8-0.3,1.2-0.5c0,0,0.1,0,0.3-0.1
		c1-0.6,1-1.7,0.2-2.6C463.9,649.9,463.3,649.8,462.6,650.5z"/>
	<path class="st0" d="M472.1,661.3c-0.5-0.6-1-0.8-1.7-0.5c-0.3,0.1-0.4,0.3-0.7,0.2c-0.1,0-0.2-0.1-0.3-0.1c-0.3,0-0.4,0.1-0.6,0.3
		c-0.3,0.3-1.1,1.5-0.8,2.1c0.2,0.4,0.7,0.4,0.9,0.7c0.2,0.4,0.1,1,0.4,1.5c0.3,0.6,1,0.8,1.5,0.4c0.3-0.2,0.4-0.4,0.5-0.7
		c0.1-0.4,0-0.5,0.3-0.8c0.2-0.3,0.4-0.2,0.7-0.4C473.2,663.5,473.3,661.5,472.1,661.3z M470.9,665C470.9,665,470.9,665,470.9,665
		C470.9,665,470.9,665,470.9,665C470.9,665,470.9,665,470.9,665z"/>
	<path class="st0" d="M435.2,652.3c-0.3,0.4,0.1,1,0.5,1.1c0.9,1.1,3.5-1.3,4.1-1.5c1-0.3,1.7-0.2,2.5-1c1.2-1.1,1.5-2.6,2.8-3.7
		c0.9-0.7,2-1.3,2.4-2.3c0.6-1.4,0.4-3.4,0.4-4.8c0.1-2.4,0-4.7,1.7-6.6c0.7-0.8,1.3-1.4,1.6-2.4c0,0,0-0.1,0-0.1c0,0,0,0,0,0
		c0.2-0.2-0.1-0.4-0.3-0.3c-1.8,1.6-2.9,3.7-3.8,6c-0.3,0.7-0.6,1.5-0.6,2.3c0,0.1,0.1,0.2,0.1,0.2c-0.1,1-0.6,2-0.5,3.1
		c0,0.2,0,0.7,0.1,1c0,0.3,0,0.5-0.1,0.7c-0.4,1.3-1.2,1.9-2.3,2.5c-0.2,0.1-0.3,0.2-0.5,0.2c-0.2,0.1-0.3,0.1-0.5,0.2
		c-1.1,0.5-2.2,0.9-3.2,1.5c-0.8,0.4-1.7,1-2.3,1.6C436.6,650.5,435.9,651.2,435.2,652.3z M447.5,639.7
		C447.5,639.8,447.5,639.8,447.5,639.7C447.5,639.7,447.5,639.7,447.5,639.7C447.5,639.7,447.5,639.7,447.5,639.7z"/>
	<path class="st0" d="M386,731.7c-0.1-0.1-0.3-0.1-0.4,0.1c-0.1,0.1-0.1,0.1-0.2,0.2c-0.1,0.1-0.2,0.2-0.3,0.5c0,0.1,0,0.2-0.1,0.3
		c-0.1,0.2-0.3,0.6-0.3,0.9c-0.4,0.5-0.9,0.9-1.3,1.4c-0.3,0.4-0.5,0.8-0.8,1.3c-0.5,0.8-0.9,1.2-1.7,1.7c-0.6,0.4-0.8,1.2,0.1,1.3
		c1.5,0.1,2.8-2.2,3.4-3.2c0.6-0.9,1.7-2.1,1.9-3.2C386.6,732.3,386.5,732,386,731.7z"/>
	<path class="st0" d="M392.2,731.1c0,0,0.7,0,0.7,0c0,0,0,0,0,0c0-0.1-0.8-0.2-0.9-0.2c-0.3,0.1-0.9,0.2-1.1,0.4c0,0-0.2,0-0.2,0
		c-0.3,0.2-0.7,0.4-0.9,0.7c-0.1,0.2-0.3,0.5-0.5,0.7c-0.3,0.4-0.7,0.9-0.9,1.3c-0.2,0.2-0.3,0.5-0.4,0.8c0,0.1,0,0.1-0.1,0.2
		c-0.1,0.1-0.2,0.3-0.2,0.4c-0.2,0.4-0.6,1.6,0.3,1.5c0.2,0,0.4-0.2,0.5-0.4c0.1-0.2,0-0.5,0-0.7c0-0.6,0.2-1.1,0.6-1.6
		c0.2-0.2,0.4-0.4,0.6-0.7c0.4-0.4,0.8-0.9,1.2-1.3c0.3-0.3,0.6-0.6,0.6-1c0,0,0.4-0.1,0.3-0.1C391.9,731.1,392.2,731.1,392.2,731.1
		z M390.7,731.6C390.7,731.6,390.7,731.6,390.7,731.6c0.1-0.1,0.1-0.1,0.2-0.2C390.8,731.5,390.7,731.6,390.7,731.6z"/>
	<path class="st0" d="M396.1,731.5c0-0.4-0.4-0.7-0.8-0.8c-0.4-0.1-0.7,0.1-1,0.4c-0.7,0.4-1.5,0.9-1.8,1.5
		c-0.1,0.1-0.2,0.2-0.2,0.4c-0.1,0.3-0.1,0.5,0,0.6c0.2,0.7,1.1,0.7,1.5,0c0.2-0.4,0.3-0.8,0.8-1c0.3-0.1,0.6-0.1,0.9-0.2
		C395.7,732.2,396.1,731.9,396.1,731.5z"/>
	<path class="st0" d="M414.6,724.8c0.3,0,0.8,0,0.9-0.3c0-0.2-0.1-0.3-0.2-0.4c0-0.1-0.1-0.1-0.2-0.2c-0.1,0-0.2,0-0.3,0
		c-0.1-0.1-0.3-0.2-0.4-0.3c-0.2-0.1-0.4,0-0.6,0c-0.4,0.1-0.9,0.3-0.8,0.8c0.1,0.4,0.5,0.6,0.9,0.5
		C414,725,414.2,724.9,414.6,724.8C414.5,724.8,414.5,724.8,414.6,724.8z"/>
	<path class="st0" d="M421.7,721.6c0.2-0.4,0.2-1-0.1-1.3c-0.4-0.5-1.3-0.5-1.5,0.1c0,0-0.1,0.1-0.1,0.1c-0.1,0.1-0.1,0.2-0.1,0.3
		c0,0,0,0,0,0c0,0.3,0.2,0.5,0.5,0.6c0,0,0,0,0,0c0,0.1,0,0.2,0.1,0.3c0.1,0.3,0.4,0.4,0.7,0.3C421.5,721.9,421.6,721.8,421.7,721.6
		z M420.9,721.1C420.9,721.2,420.9,721.2,420.9,721.1C420.9,721.2,420.9,721.2,420.9,721.1C420.9,721.2,420.9,721.1,420.9,721.1
		C420.9,721.1,420.9,721.1,420.9,721.1z"/>
	<path class="st0" d="M467.5,682c0.2-0.7,0.1-1-0.7-1.2c-0.3,0-0.8,0.2-1.2,0.5c-0.9,0.2-2,1.2-2.5,1.6c-0.4,0.3-0.9,0.6-1.3,0.9
		c-0.9,0.3-1.8,0.6-2.6,0.9c-0.4,0.1-0.9,0.2-1.3,0.3c0,0,0,0,0,0c-1,0-2.1,0.1-3.1,0.3c-0.7,0.2-1.3,0.5-1.7,1.2
		c-0.2,0.2-0.2,0.3-0.2,0.5c0,0,0,0.1,0,0.1c0.3,0.9,2,0.6,2.7,0.4c0.9-0.2,1.7-0.6,2.4-1.1c1.3-0.4,2.5-0.8,3.7-1.5
		c0.1-0.1,0.3-0.2,0.4-0.3c0.8-0.2,1.6-0.4,2.4-0.8c0.1-0.1,0.2-0.1,0.4-0.2C466.2,683.1,467.3,682.6,467.5,682z"/>
	<path class="st0" d="M459.7,706.2c-0.1,0.1-0.2,0.1-0.3,0.2c-0.2,0.3,0,0.6,0.3,0.7c0.2,0.1,0.6,0,0.8-0.1c0.1-0.1,0.2-0.2,0.2-0.4
		c0.1,0,0.2,0,0.2,0.1c0.1,0,0.2,0.1,0.2,0.1c0.2,0.1,0.4,0.2,0.7,0.2c0.2,0,0.3-0.1,0.4-0.3c0,0,0,0,0,0c0.1-0.1,0.2-0.2,0.3-0.3
		c0.2-0.3,0.3-0.8,0.1-1.2c-0.2-0.3-0.5-0.2-0.8-0.1C461.3,705.1,460,705.5,459.7,706.2z M461.3,706.4c0,0,0.1,0,0.1,0c0,0,0,0,0,0
		C461.4,706.4,461.4,706.4,461.3,706.4z"/>
	<path class="st0" d="M457.4,713C457.4,713,457.5,713,457.4,713C457.5,713,457.5,713,457.4,713C457.5,713,457.5,713,457.4,713
		c0.1,0,0.2,0,0.3,0c0.5,0,1-0.1,1.3-0.3c0.3-0.2,0.3-0.4,0.4-0.7c0.3-0.6,0.5-1,1.3-1.1c0,0,0.9,0.1,0.9,0.1c0.7,0,1.9-0.1,2.3-0.8
		c0.3-0.5-0.1-1.4-0.6-1.7c-0.5-0.3-0.9-0.2-1.3,0c-1.1,0.1-2.3,0.4-3.3,0.9c-0.6,0.3-1.1,0.8-1.6,1.2c-0.3,0.3-1.1,0.7-1.2,1.1
		C455.8,712.5,456.6,712.9,457.4,713z"/>
	<path class="st0" d="M464.7,722.1c0-0.4-0.4-0.7-0.8-0.8c-0.2,0-0.3-0.1-0.5,0c-0.3,0-0.7,0.1-0.9,0.2c-0.5,0.1-1.1,0.4-1.4,0.8
		c-0.2,0.2-0.4,0.4-0.4,0.7c0,0.1,0,0.2,0.1,0.2c0,0,0,0.1,0,0.1c0,0.3,0.3,0.5,0.6,0.5c0.1,0,0.3,0.1,0.5,0.1c0.8-0.1,1.3-0.7,2-1
		C464.3,722.6,464.7,722.5,464.7,722.1z"/>
	<path class="st0" d="M466.7,719.5c0.4,0.1,0.9,0.2,1.3,0.1c0.3-0.1,0.4-0.3,0.3-0.5c0-0.2-0.1-0.3-0.2-0.4
		c-0.1-0.1-0.2-0.2-0.2-0.2c-0.5-0.4-1.3-0.5-1.7,0c0,0,0,0,0,0c-0.1,0.1-0.3,0.4-0.2,0.7C465.9,719.5,466.5,719.4,466.7,719.5z"/>
	<path class="st0" d="M467.6,725.2c-0.2-0.1-0.4,0.1-0.6,0.1c0,0,0,0-0.1,0c-0.9-0.1-1.9-0.1-2.6,0.6c-0.1,0-0.1,0.1-0.2,0.1
		c-0.1,0.1-0.1,0.3-0.1,0.4c0,0.1,0.1,0.1,0.2,0.2c0,0,0,0.1,0.1,0.1c0.2,0.2,0.4,0.1,0.6,0.1c0.4,0,0.5,0.3,0.7,0.5
		c0.3,0.3,0.8,0.4,1.2,0.2c0.5-0.2,0.8-0.8,0.9-1.3C467.8,726.1,468,725.4,467.6,725.2z"/>
	<path class="st0" d="M470.1,622.4c0.5,0,1-0.1,1.2-0.5c0.2-0.4,0.4-0.6,0.7-0.8c0.3-0.2,0.5-0.5,0.7-0.7c0.3-0.4,0.8-1,0.6-1.6
		c-0.1-0.3-0.4-0.4-0.7-0.3c-0.1,0-0.1,0-0.2,0c-0.4,0-0.7,0.3-1,0.6c-0.3,0.4-0.4,0.7-0.8,1c-0.3,0.3-0.6,0.4-1,0.6
		c-0.3,0.2-0.9,0.6-0.8,1C469,622.3,469.7,622.4,470.1,622.4z"/>
	<path class="st0" d="M462.8,628.7c0.3,0,0.5,0,0.7,0.2c0.1,0.1,0.2,0.2,0.3,0.3c0.4,0.2,0.9,0.1,1.3-0.2c0.8-0.6,1.3-1.8,1.3-2.8
		c0.1-0.3,0-0.6-0.1-0.8c-0.2-0.3-0.5-0.4-0.7-0.3c0,0-0.1,0-0.1-0.1c-0.5-0.1-1.3,0.3-1.5,0.9c0,0,0,0.1,0,0.1
		c-0.1,0.1-0.3,0.3-0.4,0.4c-0.4,0.3-0.8,0.6-1,1c-0.2,0.3-0.4,0.8-0.2,1.1C462.4,628.7,462.6,628.7,462.8,628.7z"/>
	<path class="st0" d="M472.4,626.4c-0.6,0.4-1.1,1-1.1,1.7c0,0.2,0,0.3,0.1,0.5c0,0.3-0.1,0.5,0,0.7c0.2,0.8,0.9,0.9,1.7,0.8
		c1.3-0.2,1.4-1.4,2.4-2.1c1.2-0.9,2.5-0.8,3.4-2.1c0.3-0.4,0.5-1.1-0.1-1.3c-0.2-0.1-0.5-0.1-0.8,0.1c-0.2,0.1-0.3,0.3-0.4,0.3
		c-0.5,0.4-0.7,0.3-1.2,0.3c-0.3,0-0.6,0-0.9,0.1c-1-0.1-1.9-0.1-2.7,0.7C472.7,626.1,472.6,626.3,472.4,626.4z"/>
	<path class="st0" d="M467.2,632c0.1,0,0.3,0,0.4,0c0.2-0.1,0.4-0.2,0.6-0.3c0,0,0,0,0.1,0c0.2,0,0.4,0,0.6-0.1
		c0.4-0.1,0.6-0.5,0.7-0.8c0.1-0.4,0.3-0.8,0-1.1c-0.3-0.3-0.8-0.3-1.1-0.1c0,0,0,0,0,0c-0.7,0.1-1.3,0.4-1.6,1
		C466.5,631.2,466.7,632,467.2,632z"/>
	<path class="st0" d="M454.7,642.8c0.4-0.4,0.6-0.7,1.1-0.9c0.3-0.1,0.6-0.2,0.9-0.4c0.5-0.4,0.6-1.1,0.4-1.7
		c-0.4-1.1-1.9-2.8-2.8-1.3c-0.3,0.2-0.5,0.4-0.5,0.8c-0.1,0.5-0.2,0.9-0.6,1.2c-0.2,0.2-0.4,0.4-0.6,0.5c-0.2,0.2-0.5,0.4-0.5,0.7
		C451.9,642.9,454,643.6,454.7,642.8z"/>
	<path class="st0" d="M468.3,653.6c0.1,0.1,0.2,0.2,0.3,0.3c0.2,0.2,0.2,0.5,0.3,0.7c0.1,0.2,0.1,0.3,0.2,0.4c0,0,0,0,0,0
		c0.1,0.1,0.2,0.2,0.4,0.2c0.1,0.2,0.2,0.4,0.5,0.4c0.3,0.1,0.7,0,0.9-0.2c0.2-0.2,0.3-0.4,0.4-0.6c0.1-0.1,0.2-0.1,0.2-0.2
		c0.4-0.4,0.6-1.2,0.4-1.7c-0.3-0.9-1.5-1-2.4-0.6c-0.9-0.1-1.8-0.1-1.6,0.7C467.9,653.3,468.1,653.5,468.3,653.6z"/>
	<path class="st0" d="M427.1,702.4c-0.5-0.3-1-0.3-1.6-0.2c-0.5,0.1-0.9,0.1-1.3,0c-0.1-0.1-0.2-0.2-0.3-0.3c-0.2-0.5-1-0.7-1.4-0.6
		c-0.6,0.1-0.7,0.9-0.2,1.2c0.1,0.1,0.2,0.3,0.3,0.4c0.4,0.3,0.9,0.4,1.4,0.4c0,0,0.1,0,0.1,0c0.1,0.1,0.2,0.2,0.4,0.3
		c1,0.7,2.2,0.4,2.7-0.6C427.2,702.7,427.2,702.5,427.1,702.4z M425.1,703.4C425.1,703.4,425.1,703.4,425.1,703.4
		C425.2,703.4,425.2,703.4,425.1,703.4C425.1,703.4,425.1,703.4,425.1,703.4z"/>
	<path class="st0" d="M432.3,699.3c-0.7,0.1-1.1,0.5-1.8,0.8c-0.4,0.2-0.8,0-1.2,0.1c-0.2,0.1-0.3,0.3-0.4,0.5
		c0,0.5,0.5,0.5,0.9,0.5c0.5,0,1-0.2,1.4-0.3c0.3-0.1,0.6-0.2,0.7-0.5c0.1-0.2,0.2-0.2,0.3-0.4c0.1-0.1,0.1-0.1,0.2-0.3
		C432.7,699.5,432.5,699.3,432.3,699.3z"/>
	<path class="st0" d="M392.4,714.5C392.4,714.5,392.4,714.5,392.4,714.5c0,0,0-0.1,0-0.1c-0.3-0.5-0.7-1.1-1.3-1.2
		c-0.3-0.1-0.6,0-0.9,0.1c-0.3,0.1-0.7,0-1,0.1c-0.5,0.1-0.6,0.7-0.3,1.1c0.1,0.2,0.3,0.4,0.6,0.5c0.3,0.2,0.8,0.2,0.9,0.5
		c0.1,0.2,0,0.4,0.2,0.5c0.2,0.1,0.4,0.2,0.6,0.2c0.3,0,0.6-0.3,0.8-0.6C392.4,715.4,392.6,715,392.4,714.5z M389.9,714.5
		C390,714.5,390,714.5,389.9,714.5C390,714.5,390,714.5,389.9,714.5C390,714.5,390,714.5,389.9,714.5z M390.9,715.1
		C391,715.1,391,715.1,390.9,715.1c0.1,0,0.1,0.1,0.1,0.1c0,0.1,0.1,0.2,0.1,0.3C391,715.5,391,715.3,390.9,715.1z"/>
	<path class="st0" d="M399.4,706.8c-0.2-0.5-0.9-1-1.5-0.7c-0.7,0.4-0.3,0.9-0.2,1.4c0,0,0,0.1-0.1,0.1c-0.1,0.1-0.2,0.2-0.4,0.3
		c-0.5,0.1-1.3,0-1.5,0.1c-0.2,0.1-0.4,0.2-0.5,0.4c0,0.1,0,0.3,0,0.4c0.1,0.2,0.2,0.2,0.3,0.4c0.3,0.5,0.3,0.8,0.3,1.4
		c-0.2,1.6,0.9,2.4,2.2,1.9c1.6,0.2,1.5-1.7,1.5-2.9c0,0,0,0,0-0.1C399.7,708.7,399.8,707.7,399.4,706.8z M396.1,709.1
		C396.1,709.1,396.1,709.1,396.1,709.1C396.1,709.1,396.1,709.1,396.1,709.1C396.1,709.1,396.1,709.1,396.1,709.1z"/>
	<path class="st0" d="M460.4,635.3c0,0.2,0,0.3,0.1,0.5c0.4,0.9,1.4,1.3,2.3,1.2c0.6-0.1,1.5-0.3,2-0.6c0.1,0,0.1,0,0.2-0.1
		c0,0,0,0,0.1,0c0.5,0,1.2-0.1,1.6-0.4c0.4-0.3,0.6-0.8,0.3-1.2c-0.1-0.2-0.3-0.3-0.6-0.4c-1.3-1.4-3.4-2.2-5.3-1.9
		c-0.6-0.4-2.1-0.5-2.3,0.3c-0.1,0.5,0.1,1,0.5,1.3C459.6,634.6,459.9,635,460.4,635.3z"/>
	<path class="st0" d="M478.3,640c0-0.4-0.1-1.3-0.3-1.7c-0.4-0.7-1.2-0.3-1.9-0.2c-1.8,0.3-3.5-0.4-5.2-0.6c-0.8-0.1-2-0.4-2.6,0.3
		c-0.1,0.1-0.2,0.3-0.1,0.4c0,0.1,0.1,0.2,0.2,0.3c0,0,0,0,0,0.1c0.5,0.8,0.2,2.1,1.2,2.5c0.4,0.1,0.9,0,1.3,0c1-0.1,1.8,0,2.8,0.3
		C475.2,641.8,478.1,642.1,478.3,640z M477.3,639.5C477.3,639.5,477.2,639.5,477.3,639.5C477.2,639.4,477.3,639.4,477.3,639.5
		C477.3,639.4,477.3,639.4,477.3,639.5z"/>
	<path class="st0" d="M469.6,643.9c-0.4-0.1-0.6,0.2-0.9,0.5c-0.2,0.2-0.3,0.2-0.6,0.3c-0.2,0-0.4,0.1-0.6,0.2
		c-0.2,0.1-0.2,0.3-0.2,0.5c0,0.2,0.1,0.4,0.3,0.6c0,0.1,0,0.2,0.1,0.3c0.1,0.1,0.2,0.3,0.4,0.4c-0.1,0.3,0,0.6,0.5,0.7
		c0.8,0.1,1.4-0.9,1.6-1.5C470.5,645.1,470.5,644.1,469.6,643.9z"/>
	<path class="st0" d="M467.7,671.9c-1-0.6-2-0.1-2.6,0.7c0,0-0.1,0-0.1,0.1c-0.2,0.2-0.3,0.4-0.3,0.6c-0.3,0.4-0.6,0.8-0.8,1.3
		c-0.1,0.1-0.1,0.1-0.2,0.2c-0.1,0.1-0.3,0.2-0.4,0.3c-1,0.3-1.9,0.9-1.4,2.2c0.1,0.2,0.2,0.3,0.4,0.2c0.1,0,0.2,0,0.3-0.1
		c0.1,0,0.2,0.1,0.3,0.1c0.9,0.2,1.8-0.3,2.6-1c0.9-0.4,1.8-0.9,2.4-1.5c0,0,0.1-0.1,0.1-0.1c0.2-0.2,0.4-0.4,0.5-0.6
		c0.1-0.2,0.1-0.4,0-0.7C468.6,673,468.3,672.3,467.7,671.9z"/>
	<path class="st0" d="M458.5,680.9c-0.2,0.1-0.2,0.4,0,0.5c0.3,0.2,0.6,0.1,1,0c0.9-0.2,1.7-0.4,2.6-0.7c1-0.3,2-0.4,2.1-1.6
		c0-0.2-0.3-0.3-0.4-0.2c-1,1-2.1,1.2-3.5,1.3c-0.3,0-0.6,0.1-0.8,0.2c0,0,0,0,0,0C459.1,680.6,458.8,680.7,458.5,680.9z"/>
	<path class="st0" d="M464.8,668.9C464.8,668.9,464.9,668.9,464.8,668.9c0.1,0.1,0.1,0.1,0.2,0.1c0.9,0.1,2.7-0.5,2.5-1.6
		c-0.1-0.5-0.6-0.7-1.1-0.6c-0.5,0.2-0.7,0.7-1,1.1c-0.2,0-0.4,0-0.5,0.1C464.6,668.2,464.5,668.7,464.8,668.9z"/>
	<path class="st0" d="M469.7,670.6c0.7,0,1-0.8,1-1.3c0-0.3,0-0.6-0.3-0.8c-0.3-0.1-0.6,0-0.8,0.2c-0.3,0.2-0.5,0.4-0.4,0.7
		c0,0.1,0.1,0.3,0.2,0.4c0,0,0.1,0.1,0.1,0.1c-0.1,0.1-0.1,0.2-0.1,0.3C469.3,670.4,469.4,670.6,469.7,670.6z"/>
	<path class="st0" d="M397.1,735.1c-0.1,0-0.2,0-0.3,0c-0.2,0-0.4,0-0.5,0.1c-0.2,0.1-0.3,0.2-0.4,0.3c0,0,0,0-0.1,0.1
		c-0.3,0.3-0.9,0.5-1.1,0.9c-0.1,0.2,0,0.5,0.1,0.6c0,0,0,0.1,0,0.1c0,0,0.1,0,0.1,0c0.1,0.1,0.2,0.1,0.3,0.1
		c0.4,0.1,0.9-0.2,1.2-0.4c0.1-0.1,0.2-0.2,0.3-0.2c0.1-0.1,0.3-0.3,0.3-0.4c0,0,0,0,0,0c0.2-0.1,0.3-0.3,0.4-0.5c0,0,0-0.1,0-0.2
		c0,0,0-0.1,0-0.2C397.6,735.2,397.3,735.1,397.1,735.1z"/>
	<path class="st0" d="M391.2,736.9C391.2,736.9,391.1,736.9,391.2,736.9c-0.1-0.1-0.3-0.2-0.4,0c-0.1,0-0.1,0-0.1,0.1
		c-0.1,0.1-0.1,0.4-0.2,0.5c-0.1,0.3-0.2,0.6-0.4,0.8c0,0,0,0-0.1,0.1c-0.1,0.1-0.1,0.1-0.2,0.2c0,0,0,0,0,0c0,0,0,0,0,0
		c0.4,0.1,0.7-0.3,0.9-0.7c0.1-0.2,0.2-0.4,0.3-0.6c0,0,0,0,0,0C391.2,737.2,391.2,737,391.2,736.9L391.2,736.9z"/>
	<path class="st0" d="M403.9,730.1c-0.1,0-0.2,0.1-0.2,0.2c-1.1,0.5-4.2,0.8-3.8,2.4c0,0.1,0.2,0.3,0.3,0.3c0.6,0.1,1.1-0.3,1.6-0.7
		c0.3-0.3,0.6-0.5,1-0.7c0.2,0,0.4-0.1,0.6-0.2c0,0,0,0,0.1,0c0.1-0.1,0.2-0.1,0.2-0.2c0,0,0,0,0.1,0c0,0,0,0,0,0c0,0,0,0,0.1-0.1
		c0,0,0.1,0,0.1-0.1c0,0,0.1-0.1,0.1-0.2c0.1-0.1,0.2-0.2,0.3-0.2c0,0,0.1-0.1,0.1-0.1C404.3,730.2,404.1,730.1,403.9,730.1z"/>
	<path class="st0" d="M421.5,726.2c-0.2,0.1-0.2,0.2-0.2,0.4c0,0.1,0,0.2,0,0.2c0.1,0,0.1,0,0.2,0c0.1,0,0.2,0,0.4,0
		c0.1,0,0.1,0,0.2,0c0.2-0.1,0.1-0.4,0-0.5C421.9,726.2,421.7,726.1,421.5,726.2z"/>
	<path class="st0" d="M417.3,727.4c0-0.1-0.1-0.1-0.2-0.2c-0.2-0.1-0.4-0.1-0.6-0.1c-0.1,0-0.2,0-0.3,0c-0.1,0-0.1,0-0.2,0
		c-0.6,0-1.3,0.1-1.8,0.3c-0.6,0.3-0.5,1,0.2,1c0.3,0,0.5-0.1,0.8-0.2c0.1,0,0.2-0.1,0.3-0.1c0,0,0.1,0,0.1,0c0.2,0,0.4,0,0.6,0
		c0.1,0,0.1,0.1,0.2,0.1c0.3,0.1,0.6,0.1,0.9-0.1c0.2-0.2,0.3-0.6,0.1-0.8C417.3,727.4,417.3,727.4,417.3,727.4z"/>
	<path class="st0" d="M302.3,735.8c-1.7,0.3-3.7,0.6-5.4,0.1c-0.4-0.1-0.8-0.3-1.1-0.5c0,0-0.1-0.1-0.1-0.1
		c-0.6-0.4-1.1-0.9-1.7-1.4c-1.3-1.1-1.8-2.2-3.6-2.7c-0.2-0.1-0.5,0.1-0.6,0.3c-0.2,0.8,0.1,1.2,0.6,1.6c0.3,0.5,0.7,0.9,1.2,1.3
		c1,1,2,2.2,3.3,2.7c2.4,1,5.8,1.1,7.8-0.7C303.1,736.2,302.7,735.7,302.3,735.8z"/>
	<path class="st0" d="M303.1,730.2c-1.2-0.8-2.6-0.8-4-1.2c-0.2-0.1-0.4-0.3-0.6-0.4c-0.3-0.1-0.6-0.2-0.9-0.3
		c-0.1-0.1-0.2-0.2-0.3-0.3c-1.1-1.1-3.2-2.7-3.5-4.4c0-1,0.1-1.9,0.1-2.9c0-0.1,0-0.1,0-0.2c0.1-0.2,0.2-0.3,0.3-0.5
		c0.1-0.3-0.2-0.5-0.4-0.3c-0.9,0.8-1.7,2.2-1.9,3.4c0,0.2,0.1,0.3,0.2,0.3c-0.4,1.6,1,3.5,2.1,4.8c2,2.2,5.2,3.5,8.2,3.6
		C303.5,731.9,304.3,731,303.1,730.2z M293.1,724.3C293.1,724.3,293.1,724.2,293.1,724.3C293.1,724.3,293.1,724.3,293.1,724.3
		C293.1,724.3,293.1,724.3,293.1,724.3z M299.9,730.3C299.9,730.3,299.9,730.3,299.9,730.3c0.2,0,0.3,0.1,0.5,0.1
		C300.2,730.4,300,730.4,299.9,730.3z"/>
	<path class="st0" d="M296.2,741c-1.5-0.6-3.3-0.8-4.8-1.5c-1.1-0.5-1.5-1.1-2.1-2.1c-0.2-0.3-0.3-0.5-0.5-0.8
		c-0.3-0.4-1.1-0.8-1.4-1.1c-0.3-0.4-0.1-0.9-0.1-1.3c0.1-0.2,0.2-0.5,0.1-0.8c-0.1-0.1-0.1-0.3-0.2-0.4c0-0.1,0-0.2,0-0.3
		c0-0.2,0-0.3-0.1-0.4c-0.1-0.1-0.2-0.3-0.3-0.4c0,0,0,0,0,0c0,0,0,0,0,0c0,0-0.1-0.1-0.1-0.1c-0.2-0.2-0.5-0.1-0.5,0.2
		c0,0,0,0,0,0.1c0,0.1-0.1,0.2-0.1,0.2c-0.1,0.2-0.3,0.4-0.3,0.6c0,0.2,0,0.4-0.1,0.6c-0.4,0.6-0.5,1.3-0.3,2.2
		c0.1,0.3,0.3,1.3,0.5,1.7c0.4,0.6,1,0.7,1.3,1.4c0.2,0.5,0.1,1,0.3,1.4c0.3,0.5,1.1,0.7,1.6,0.8c1.9,0.6,4,1.1,6,0.6
		c0.3,0,0.7,0.1,1,0.1C296.5,741.6,296.5,741.1,296.2,741z"/>
	<path class="st0" d="M284.7,749.4c1.3,0,2.5,0.6,3.9,0.6c0.3,0,0.7-0.1,1-0.1c0.6,0.1,1.1,0,1.6-0.3c0.6-0.1,1.4-0.5,0.8-1.2
		c-0.2-0.2-0.4-0.2-0.7-0.2h0c-0.3,0-0.7-0.3-1-0.3c-0.1-0.1-0.2-0.2-0.2-0.2c-0.7-0.4-1.6-0.3-2.3-0.6c-1-0.4-1.8-1.2-2.7-1.8
		c-1.1-0.8-2.5-1.4-2.9-2.9c0-0.2-0.2-0.3-0.3-0.2c-0.2,0.1-0.3,0.3-0.4,0.5c-0.2,0.4-0.4,0.7-0.5,1.2c-0.2,0.5-0.3,0.9-0.4,1.4
		c-0.1,0.5-0.3,0.9-0.4,1.3c-0.1,0-0.1,0.1,0,0.2C281.9,748,282.2,749.5,284.7,749.4z"/>
	<path class="st0" d="M293.9,755.2C293.9,755.2,293.9,755.2,293.9,755.2c0,0.1-0.7,0.1-0.8,0.2c-1.2,0.1-2.4-0.5-3.6-0.4
		c-1.3,0.2-3,0.2-4.4-0.4c-0.1-0.2-0.3-0.3-0.4-0.4c-0.2-0.2-0.3-0.4-0.5-0.6c-0.3-0.4-0.9-0.6-1.3-0.2c-0.7,0.7,0.6,1.9,1.2,2.1
		c0,0,0,0,0.1,0c0.9,0.7,2.2,1.1,3.1,1.6c0.5,0.2,0.9,0.4,1.4,0.4c0.5,0.2,1,0.5,1.5,0.6c0.1,0,0.2,0.1,0.3,0.1c0,0,0,0,0,0
		c0,0,0.1-0.1,0.1-0.1c0.2,0.2,0.7,0.1,1,0.1c0.2,0,0.5-0.1,0.7-0.2c0,0,0,0,0-0.1c0.3,0,0.6-0.2,0.8-0.5c0.3-0.5,0.5-1.2,0.4-1.8
		c0,0,0-0.1,0-0.2C293.5,755.4,293.8,755.3,293.9,755.2C293.8,755,293.9,755,293.9,755.2z"/>
	<path class="st0" d="M279.1,763.7c0.3-0.1,0.7-0.3,1-0.4c1.5,0,2.6,1,4,1.1c0.9,0.1,1.9-0.2,2.7-0.5c1.1-0.4,2.6-1.1,3.4-2.1
		c0.4-0.1,0.8-0.4,0.8-0.9c0,0,0-0.1,0-0.1c0-0.1,0-0.1,0-0.2c0-0.2-0.1-0.3-0.2-0.3c0,0,0,0,0,0c0,0,0,0,0,0
		c-1.3,0-2.5-0.5-3.7-0.8c-1.3-0.3-2.6,0-3.9-0.6c-0.6-0.3-1.1-0.8-1.6-1.3c-0.5-0.8-1-1.7-1.7-2c-0.3-0.2-0.6-0.4-1-0.5
		c0,0,0,0-0.1,0c-0.1,0-0.1,0-0.1,0.1c0,0.4,0,0.8,0.1,1.2c0,0.1,0,0.3,0.1,0.4c0.1,0.3,0.1,0.6,0.2,0.8c0,0.4-0.1,0.9-0.1,1.3
		c-0.1,0.8-0.2,1.5-0.3,2.3c-0.1,0.7-0.3,1.6,0,2.2C278.6,763.6,278.8,763.8,279.1,763.7z M279.1,761.3
		C279.1,761.3,279.1,761.4,279.1,761.3C279.1,761.4,279.1,761.4,279.1,761.3C279,761.4,279.1,761.3,279.1,761.3z"/>
	<path class="st0" d="M286.1,769.3c1.8,0,3.3-0.9,3.8-2.7c0.1-0.3-0.3-0.5-0.5-0.2c-0.3,0.4-0.6,0.9-1,1.3c-1.1,0.4-2.4-0.2-3.7-0.1
		c-1.5,0.1-2.8,0.6-4.3,0c0,0-0.1,0-0.1,0c0,0,0,0-0.1,0c-0.2-0.1-0.5-0.2-0.7-0.1c0,0-0.1,0.1-0.1,0.1c0,0.3,0.2,0.6,0.3,0.9
		c0.2,0.4,0.3,0.7,0.6,1c0,0,0.1,0.1,0.1,0.1c0,0.1,0,0.1,0.1,0.2c0.3,0.3,0.7,0.5,1.2,0.3c0,0,0,0,0.1-0.1c0.1,0,0.1,0,0.2,0
		c0.5,0,1-0.2,1.5-0.3C284.5,769.4,285.2,769.3,286.1,769.3z M280,767.6C280,767.6,280,767.6,280,767.6
		C280,767.6,280,767.6,280,767.6C280.1,767.6,280.1,767.6,280,767.6z M280.5,768.3C280.5,768.3,280.5,768.3,280.5,768.3
		C280.5,768.3,280.5,768.3,280.5,768.3C280.5,768.3,280.5,768.3,280.5,768.3z M281,769.2C280.9,769.2,280.9,769.1,281,769.2
		C280.9,769.1,280.9,769.1,281,769.2C280.9,769.1,281,769.1,281,769.2C281,769.1,281,769.2,281,769.2z"/>
	<path class="st0" d="M479.3,727c-0.7-0.1-1.4,0-2.1,0.2c-0.1,0-0.1,0.3,0,0.3c0.7-0.1,1.5-0.2,2.1,0.2c0.5,0.3,0.6,0.8,1,1.2
		c0.2,0.2,0.5,0.3,0.8,0.5c0.2,0.1,0.3,0.2,0.5,0.3c0.3,0.3,0.5,0.6,0.8,0.8c0.4,0.6,1.2-0.2,0.8-0.8
		C482.1,728.3,481.1,727,479.3,727z"/>
	<path class="st0" d="M486.5,726.2c-0.4-0.5-0.8-0.9-1.4-0.9c-1-0.4-2.6-0.2-3.6,0.2c-0.1,0.1-0.1,0.3,0,0.3
		c1.1,0.2,2.9-0.2,3.6,0.8c0.7,1,1.2,1.7,2.1,2.5c0.4,0.3,1,0,0.9-0.5C487.9,727.5,487.2,727,486.5,726.2z"/>
	<path class="st0" d="M295.9,744.7c-0.1-0.1-0.2-0.1-0.3,0c-0.7,0.3-1.8,0.3-2.9,0.2c-0.8-0.2-1.6-0.4-2.4-0.6
		c-0.6-0.2-1.1-0.6-1.6-0.8c-0.1-0.1-0.3-0.2-0.5-0.3c-0.5-0.3-0.7-0.2-1.2-0.1c-0.3,0.1-0.3,0.4-0.2,0.6c0.3,0.6,0.8,0.8,1.4,0.9
		c2.1,1.5,4.9,2.9,7.3,1.9c0.3,0.1,0.6-0.3,0.6-0.5c0.2-0.4,0.2-0.7-0.1-1.1C296,744.8,296,744.7,295.9,744.7z"/>
	<path class="st0" d="M294,765.3C294,765.3,294,765.3,294,765.3c-0.1-0.2-0.4-0.2-0.5,0c-0.6,0.9-0.9,2-1.4,3
		c-0.5,0.9-1.4,1.4-2.1,2.1c-0.7,0.7-0.9,1.2-1.9,1.5c-1.5,0.5-3,0.4-4.6,0.1c-0.2,0-0.3,0.2-0.1,0.3c0.3,0.1,0.5,0.2,0.8,0.3
		c0,0,0,0.1,0.1,0.1c1.9,0.6,4.2,1.9,6.2,1.1c1.3-0.5,3.5-1.6,3.7-3.2c0,0,0-0.1,0-0.1C294.9,769.1,294.4,766.6,294,765.3z"/>
	<path class="st0" d="M294,774.3c-0.1-0.1-0.3,0-0.3,0.1c-2.1,1.9-5.2,1.1-7.9,0.9c-0.2,0-0.3,0.2-0.3,0.3c0.1,0.3,0.3,0.6,0.5,0.8
		c0,0,0,0,0.1,0.1c0.7,0.6,1.8,0.8,3,0.9c-0.4,0.2-0.9,0.5-1.3,0.7c-1.7,0.8-3.7,0.2-5.5-0.3c-0.2-0.1-0.4-0.2-0.7-0.2
		c-0.2,0-0.4,0-0.5,0.1c0,0-0.1,0-0.1,0c0,0,0,0.1,0,0.1c0,0.1-0.1,0.2-0.1,0.3c0,0.2-0.1,0.4-0.1,0.6c0,0.2,0.1,0.4,0.2,0.6
		c0,0.1,0.1,0.1,0.2,0.1c0.2,0.2,0.4,0.3,0.7,0.3c1.5,1,3.3,2.5,5,2.6c1.9,0.2,4.2-0.8,5.7-1.8c0.1,0,0.1-0.1,0.1-0.2
		c0.3-0.3,0.5-0.6,0.7-1c0.1-0.1,0.2-0.2,0.3-0.3c0.1-0.3,0.2-0.5,0.2-0.7C294.9,777,295.4,775.5,294,774.3z"/>
	<path class="st0" d="M288.7,786.8c-0.7,0.3-1.4,0.7-2,1.2c0,0-0.1,0-0.1,0.1c-0.1,0.1-0.3,0.2-0.5,0.3c-1,0.1-2.1,0-3.1-0.1
		c-0.8-0.1-1.3-0.5-1.8-0.9c-0.1-0.3-0.1-0.5-0.2-0.8c-0.1-0.3-0.3-0.6-0.4-0.9c-0.2-0.6-0.5-1.1-1.2-1c-0.2,0-0.4,0.2-0.4,0.4
		c-0.1,0.2-0.1,0.4,0,0.6c0,0,0,0.1,0,0.1c0,0,0,0,0,0.1c0.1,0.4,0.2,0.7,0.5,0.9c0,0,0,0.1,0.1,0.1c0,0.4-0.1,0.9,0.2,1.3
		c0.5,0.8,1.6,1.2,2.4,1.5c1.3,0.5,3.3,0.8,4.5,0c0,0,0,0,0,0c0.1,0,0.1,0,0.2-0.1c0,0,0.1,0.1,0.1,0c0.5-0.2,1.1-0.5,1.5-0.9
		c0.1-0.1,0.2-0.2,0.3-0.4c0,0,0.1,0,0.1-0.1c0.1-0.3,0.6-1,0.2-1.2C289,786.8,288.9,786.7,288.7,786.8z"/>
	<path class="st0" d="M292.5,782c-0.1,0.2-0.2,0.5-0.4,0.8c-0.2,0.3-0.4,0.7-0.7,1c0,0-0.1,0-0.1,0c-1.7,0.8-3.4,1.1-5.2,1
		c-1.5-0.3-2.9-1-4.3-1.7c-0.6-0.4-1.1-0.9-1.9-1.2c-0.1,0-0.2,0-0.2,0.1c0,0,0,0,0,0c0,0.3-0.2,0.6-0.1,0.9
		c0.1,0.2,0.2,0.3,0.3,0.3c0.6,0.7,1.3,1.2,2.1,1.6c0,0,0,0,0,0c0.6,0.4,1.3,0.7,2,0.8c0.3,0.1,0.7,0.2,1,0.4
		c1.5,0.5,3.3,0.7,4.7,0.1c0,0,0-0.1,0-0.1c0.2-0.1,0.4-0.2,0.6-0.4c1-0.5,1.5-1.8,1.9-2.9c0.1-0.2,0.2-0.4,0.2-0.6
		C292.9,782,292.6,781.8,292.5,782z M280.2,782.4C280.2,782.4,280.2,782.4,280.2,782.4C280.2,782.4,280.2,782.4,280.2,782.4
		C280.2,782.4,280.2,782.4,280.2,782.4z"/>
	<path class="st0" d="M308.8,722.2c-0.1,0.1-0.3,0.1-0.4,0.2c-0.1,0-0.2,0-0.3,0c-0.5,0.3-1,0.5-1.6,0.6c-0.3,0-0.6,0.1-0.8,0.1
		c-0.5,0-1.1,0-1.7-0.1c-1.1-0.3-2.2-1-3.2-1.6c-0.3-0.2-0.6-0.4-0.8-0.6c-0.4-0.3-0.8-1.1-1.3-1.5c0-0.1,0-0.3-0.1-0.5
		c-0.1-0.4-0.7-0.3-0.8,0.1c0,0.1,0,0.2,0,0.4c-0.2,0.4-0.2,0.9-0.1,1.3c-0.1,0.3-0.2,0.6-0.1,0.9c0,0.1,0.1,0.2,0.2,0.3
		c0,0,0,0.1,0,0.1c0.4,0.5,0.9,1.1,1.5,1.6c0.9,0.9,2.1,1.6,3,2c1.2,0.5,2.8,0.6,4.1,0.2c0.6-0.1,1-0.4,1.6-0.8
		c0.4-0.3,0.9-1.1,0.9-1.7v0c0-0.1,0.3-0.2,0.3-0.3C309.4,722.6,309.3,722.1,308.8,722.2z"/>
	<path class="st0" d="M300.9,716.7c0.4,0.5,0.9,0.9,1.4,1.2c0,0,0,0,0,0.1c0.5,0.7,1.1,0.9,1.9,0.9c0.6,0,1.2,0,1.8-0.2
		c0.5,0.2,1.1,0.3,1.4-0.1c0.1-0.1,0.1-0.2,0-0.3c0.3-0.4,0.5-1-0.1-1.3c-0.4-0.2-0.9-0.1-1.3,0c-0.4,0.1-0.7,0.1-1.1,0.2
		c-0.1-0.1-0.1-0.1-0.2-0.1c-0.5-0.1-0.8-0.4-1.1-0.8c-0.1-0.2-0.2-0.4-0.4-0.6c0,0,0,0-0.1-0.1c0.1-0.2,0.3-0.4,0.4-0.6
		c0.1-0.4,0.2-0.9-0.3-1.1c0,0,0,0,0,0c0,0,0,0,0-0.1c-0.7-0.7-1.9-1.7-0.7-2.8c0.3-0.3,0.5-0.3,0.7-0.6c0.2-0.3-0.2-0.5-0.4-0.4
		c-1.1,0.5-2,1.3-2.4,2.4c0,0,0,0,0,0c-0.6,1.1-0.5,2.4,0.2,3.5C300.5,716.2,300.7,716.5,300.9,716.7z M303.1,714.3
		c0,0,0,0.1-0.1,0.1C303.1,714.4,303.1,714.4,303.1,714.3C303.1,714.4,303.1,714.4,303.1,714.3z"/>
	<path class="st0" d="M317.1,715.9c-0.1-0.3-0.3-0.5-0.7-0.6c-0.9-0.2-2.1,0.6-2.9,0.6c-0.9,0-2,0.2-3,0.1c-1.1-0.4-2.1-0.9-3-1.5
		c-0.3-0.2-0.6,0.2-0.4,0.5c0,0,0,0,0,0.1c0.6,1.5,1.9,2.2,3.4,2.3c2.7,0.7,7.8,1.7,7.2-1.1C317.6,716,317.3,715.9,317.1,715.9z"/>
	<path class="st0" d="M471.2,728.7c-0.4,0.1-0.9,0.2-1.3,0.4c-0.3,0.1-0.6,0.1-0.8,0.4c0,0,0,0,0,0.1c-0.1,0.1-0.2,0.1-0.2,0.2
		c-0.1,0.1-0.1,0.3,0,0.4c0.1,0.1,0.2,0.1,0.3,0.1c0.1,0,0.2-0.1,0.3-0.1c0.3-0.2,0.5-0.4,0.8-0.5c0.3-0.1,0.7-0.1,1-0.4
		c0.2-0.2,0.3-0.5,0.3-0.8C471.5,728.5,471.4,728.6,471.2,728.7C471.2,728.7,471.2,728.7,471.2,728.7z M469.9,729.2c0,0,0.1,0,0.1,0
		c-0.1,0-0.2,0.1-0.3,0.1L469.9,729.2z"/>
	<path class="st0" d="M453.9,604.9c-1.8,1.8-2.2,4.7-1.2,7.1c0.5,1.3,1.3,1.9,2.3,2.9c2.2,2.3,2.6,3.8,3.3,6.8
		c0.1,0.4,0.7,0.2,0.6-0.2c-0.4-2.4-0.3-5.4-2-7.3c-1.2-1.3-2.6-2-3.2-3.8c-0.6-1.9-0.3-3.6,0.5-5.4
		C454.2,604.9,454,604.8,453.9,604.9z"/>
	<path class="st0" d="M425.2,735.8c0.2,0.4,0.3,0.7,0.4,1c0,0,0,0.1,0.1,0.3c0.2,0.3,0.4,0.5,0.9,0.4c0.4-0.1,0.8-0.3,0.6-0.8
		c0-0.1,0-0.2-0.1-0.3c-0.8-2.6-4.4-4.5-7-3.9c-0.2,0-0.2,0.3,0,0.4C421.8,734,424.1,733.8,425.2,735.8z"/>
	<path class="st0" d="M432.5,734.5c0,0.2,0,0.5-0.1,0.7c-0.1,0.7,1.4,1.2,1.5,0.5c0-0.3,0.1-0.5,0.1-0.8c0.1-0.9-0.2-1.9-0.8-2.7
		c0.6,0.2,1.3,0.5,1.8,0.8c0.5,0.3,1,0.7,1.4,1.2c0.2,0.2,0.6,0.5,0.7,1c0.3,0.7,2,0.3,1.6-0.9c-0.1-0.2-0.2-0.5-0.4-0.7
		c-1.1-1.7-2.4-3.4-4.4-2.7c-2.3,0.4-4.6,0.5-6.7-0.4c0.1,0.1-1.5-0.4-0.3,0.7C428.5,732.5,432.6,731.7,432.5,734.5z"/>
	<path class="st0" d="M458,636.2c-0.1,0.1,0,0.2,0.1,0.1c4.1-3.7,8-7.2,13.3-9.1c4.6-1.7,9.6-2.7,14.3-3.7c0.1,0,0.1-0.2,0-0.2
		c-5.5,0.6-11.1,1.6-16.2,3.7C465,629,461.4,632.6,458,636.2z"/>
	<path class="st0" d="M487.1,624.3c-5.2,1.6-10.9,2.3-15.6,5.3c-4.5,2.9-8,6.9-11.6,10.9c-0.1,0.1,0,0.2,0.1,0.1
		c3.6-3.7,7.6-7.4,12-10.1c4.7-2.9,9.8-4.6,15.1-6C487.3,624.5,487.2,624.3,487.1,624.3z"/>
	<path class="st0" d="M488,624.7c-4.5,1-9.4,2.7-12.6,6.1c-1.9,2-3.5,4.4-5.3,6.5c-1.7,2-3.4,3.8-4.8,6c0,0.1,0.1,0.2,0.1,0.1
		c3-3.7,6.4-7.2,9.4-10.9c3.3-4.1,8.2-6.5,13.2-7.7C488.1,624.7,488.1,624.6,488,624.7z"/>
	<path class="st0" d="M488.4,624.9c-7.8,4.5-15.8,11.7-17.2,21.1c0,0.1,0.1,0.1,0.1,0c2.8-9.1,9.5-15.8,17.2-21
		C488.6,625,488.5,624.9,488.4,624.9z"/>
	<path class="st0" d="M480,640.1c2.4-5.4,5.4-9.9,8.7-14.8c0,0,0-0.1-0.1,0C484.4,629.6,481.7,634.4,480,640.1
		C479.9,640.1,479.9,640.2,480,640.1z"/>
	<g>
		<g>
			<path class="st0" d="M479.6,643c-1.5-0.1-3.2,0-4.6,0.6c-0.9,0.4-2.1,1.4-1.3,2.5c0.7,1,2.7,0.5,3.5,0c0.6-0.4,1.1-1,1.5-1.6
				c0.7-1,1.4-1.6,2.3-2.4c0.1-0.1,0-0.3-0.2-0.2c-0.9,0.5-1.7,1-2.6,1.5c-0.9,0.4-1.6,1.2-2.5,1.5c-0.8,0.2-0.4,0.2,0.3-0.2
				c0.5-0.3,1-0.5,1.5-0.7C478.3,643.5,479,643.4,479.6,643C479.7,643,479.7,643,479.6,643L479.6,643z"/>
		</g>
	</g>
	<g>
		<g>
			<path class="st0" d="M474.8,645.2c0.2-0.5,1.5-0.6,2-0.8c0.7-0.2,1.4-0.4,2.1-0.7c0.5-0.2,0.3-0.9-0.2-0.8
				c-1.2,0.3-2.3,0.8-3.4,1.5c-0.6,0.4-0.2,1.2,0.5,1.1c0.9-0.2,1.7-0.6,2.5-1.1c0.7-0.4,0.1-1.4-0.6-1.1c-0.9,0.4-1.7,0.8-2.6,1.2
				c-0.6,0.3-0.2,1.4,0.5,1.1c0.7-0.2,1.3-0.6,1.9-1c0.4-0.3,0.2-1-0.3-0.8c-0.6,0.2-1.3,0.4-1.9,0.6c0.2,0.4,0.3,0.8,0.5,1.1
				c0.9-0.4,1.7-0.8,2.6-1.2c-0.2-0.4-0.4-0.7-0.6-1.1c-0.7,0.4-1.4,0.8-2.2,1.1c0.2,0.3,0.4,0.7,0.6,1c0.9-0.7,1.8-1.3,2.9-1.6
				c-0.1-0.3-0.1-0.5-0.2-0.8c-1,0.4-2.1,0.8-3.1,1.2c-0.5,0.2-1,0.3-1.1,0.9C474.5,645.3,474.8,645.4,474.8,645.2L474.8,645.2z"/>
		</g>
	</g>
	<path class="st0" d="M488.2,616.1c0,0-0.7-0.2-1-0.2c-0.6-0.2-1.3-0.4-1.9-0.6c-0.7-0.2-1.1-0.8-1.6-1.2c-0.6-1-1.7-2-2.6-2.5
		c-1.2-0.6-2.4-0.5-3.7-0.6c0,0,0,0,0,0c0,0.3,0.8,0.8,1.4,0.9c0.6,0.1,1.3,0.3,1.8,0.5c-1.2-0.2-2.5,0-3.4,0.6
		c-1.1,0.7-1.8,1.5-2,2.7c-0.1,0.2-0.1,0.7-0.1,0.9c-0.2,1-0.2,2.2,0.9,2.9c0.4,0.3,0.4-0.1,0.1-0.6c-0.2-0.3-0.2-1.1,0.2-1.5
		c0,0,0.7-0.6,2.4-0.2c0.8,0.2,0.8,0.4,1.3,0.5c0.5,0.1,0.9,0.2,1.4,0.2c0.3,0,0.8-0.1,1.1-0.2c0.4-0.1,0.9-0.2,1.3-0.4
		c0.8-0.3,1.5-0.2,2.2-0.2c0.1,0,0.1,0,0.2,0c0.1,0.2,0.1,0.5,0,0.7c-0.7,1-1.1,2.1-2.3,2.7c-0.1,0,0,0.1,0.1,0.1
		c0.9-0.4,1.5-1.2,2.1-1.9c0.3-0.4,0.7-0.8,1-1.2c0.4-0.4,0.9-0.6,1.5-0.9C488.5,616.4,488.4,616.1,488.2,616.1z M480.8,612.9
		c0.5,0.1,0.9,0.4,1.2,0.8c-0.5,0.2-0.7,0.3-1.4,0.1c-0.7-0.3-0.8-0.4-1.1-1C480,612.8,480.4,612.8,480.8,612.9z M482.4,616.3
		c-0.1,0.1-0.2,0.2-0.4,0.3c-1,0.4-2.1,0.5-3.4,0c-1-0.4-2-1.2-3-0.8c0.3-1,0.6-1.9,1.7-2.5c0.3-0.2,0.6-0.3,1-0.4
		c0.4,1.5,2.8,2.4,4.1,1.5c0,0.1,0.1,0.2,0.1,0.4C482.6,615.3,482.7,615.9,482.4,616.3z"/>
	<g>
		<path class="st0" d="M488.1,637.7C488.1,637.7,488.1,637.7,488.1,637.7c-0.1-0.2-0.3-0.7-0.3-0.7l0,0c-0.2-0.4-0.2-1.1-0.3-1.7
			c-0.2-3.3,1.2-6.6,1.9-9.7c0-0.1-0.1-0.1-0.1,0c-1.3,2.5-2.9,6.7-2.3,10.1c0.1,0.6,0.5,1.9,0.7,2.2c0.2,0.4,0.5,0.8,0.9,1.2
			c0.1,0,0.1,0,0.1-0.1C488.4,638.5,488.2,638.1,488.1,637.7z"/>
		<path class="st0" d="M490.4,636.7C490.4,636.7,490.4,636.7,490.4,636.7c0-0.1-0.3-0.4-0.3-1.3l0,0c0-0.5,0-1.2,0-1.8
			c0.1-0.8,0.2-1.6,0.2-2.4c0.2-1.7,0.1-3.5-0.1-5.2c0-0.1-0.2-0.1-0.2,0c-0.1,2.4-0.2,4.6-0.5,7c0,0.3,0,0.6-0.1,0.9
			c0,0.6,0.1,1.4,0.1,1.8c0,0.2,0.1,0.5,0.2,0.7c0.2,0.5,0.4,0.9,0.7,1.4c0.1,0.1,0.3,0,0.2-0.1C490.7,637.4,490.5,637,490.4,636.7z
			"/>
	</g>
	<path class="st0" d="M441.9,639.5c-0.1-0.1-0.1-0.1-0.2-0.1c0,0,0,0-0.1,0c-0.3-0.1-0.7,0-1.1,0.2c-0.5,0.2-1.2,0.5-1.6,0.9
		c0,0,0,0,0,0c-0.1,0-0.2,0.1-0.2,0.1c-0.1,0,0,0.1,0,0.2c0,0,0.2,0,0.2,0c0,0,0-0.1,0-0.1c0,0-0.3,0.1-0.3,0.1
		c-0.5,0.1-1.2,0.3-1.8,0.5c-0.5,0.2-1.8,0.6-1.7,1.3c0.1,0.6,1.7,0.8,2.2,0.8c0.5-0.1,0.9-0.3,1.2-0.6c0.1-0.1,0.2-0.3,0.4-0.5
		c0.1,0,0.2,0.1,0.3,0.1c0.6,0.3,1.3,0.2,1.9-0.2C441.8,641.6,442.5,640.3,441.9,639.5z"/>
	<path class="st0" d="M459.2,608.7c-0.4-0.8-0.8-1.5-1.3-2.1c-0.4-0.7-1-1.2-1.7-1.7c-0.1-0.1-0.2-0.1-0.2,0
		c-0.6-0.5-1.3-0.7-2.2,0.2c0,0,0,0,0,0c0,0,0,0,0.1,0c-1.7,1.8-2,4.7-1.1,7c0.5,1.3,1.3,1.9,2.3,2.9c2.2,2.3,2.6,3.8,3.3,6.8
		c0.1,0.4,0.7,0.2,0.6-0.2c-0.1-0.5-0.2-1-0.2-1.6c0,0,0,0,0-0.1c0-1.1,0.3-2.1,0.5-3.2c0.1,0.8,0.4,1.6,0.9,2.3c0,0.1,0.1,0,0.1,0
		c-0.6-1.3-0.5-2.6-0.2-3.9c0,0,0,0.1,0,0.1c0.1,0.9,0.2,1.7,0.8,2.3c0.1,0.1,0.2,0,0.1-0.1c-0.5-0.8-0.6-1.6-0.6-2.5
		c0.2,0.5,0.5,1,1,1.5c0.1,0.1,0.2,0,0.2-0.1c-0.5-1-0.8-2-1.1-3.1c0-0.1,0-0.2,0-0.3c0.3,0.8,0.7,1.5,1.3,2c0.1,0.1,0.4,0,0.3-0.2
		C461.3,612.7,460.2,610.6,459.2,608.7z M458.4,617.8c-0.2-1.3-0.6-2.6-1.5-3.6c-1.2-1.3-2.6-2-3.2-3.8c-0.6-1.9-0.3-3.6,0.5-5.4
		c0,0,0-0.1,0-0.1c2.3-0.4,4.6,5.9,4.9,7.2C459.4,614,458.7,615.9,458.4,617.8z"/>
	<g>
		<path class="st0" d="M493.2,618.6c0.3,0,0.6,0.1,0.9,0c0,0,0.1,0,0.1,0c0.6-0.3,0.9-1.5,1.6-1.4c0.6,0.1,0.7,0.7,0.6,1.2
			c-0.1,0.5-0.3,0.9-0.6,1.3c-0.3,0.3-0.5,0.3-0.5,1c0,0.8,0.7,0.8,1.4,1.5c0.1,0.1,0.2,0.3,0.2,0.7c0,0.5,0.4,1.5-0.3,1.7
			c-1.2,0.5-2.1,1.3-3.4,1.7c-1.1,0.4-2.3,0.9-3.4,1.2c-2.3,0.7-4.8,1.1-6.4,3.1c-0.2,0.2,0.1,0.5,0.3,0.3c1.6-1.5,3.8-2.3,6-2.9
			c0.9-0.2,1.9-0.4,2.8-0.7c1-0.2,2-0.5,2.8-1c0.1-0.1,0.3-0.1,0.4-0.2c0.6-0.3,1.2-0.3,1.6-0.7c0.7-0.4,0.6,0.6,2.6,1.1
			c0,0,0,0,0,0c0,0.3-0.5,0.6-0.5,0.9c0,0.3-0.4,0.7-0.4,1c0,0.1,0,0.2,0.1,0c0-0.1,0-0.2,0-0.4c0.3-0.5,0.5-1.3,0.3-1.8
			c0-0.1,0-0.1-0.1-0.2c0,0-0.1-0.1-0.1-0.1c-0.1-0.2-0.3-0.4-0.4-0.6c-0.2-0.2-0.5-0.4-0.7-0.6c-0.1-0.1-0.2-0.3-0.3-0.4
			c0-0.1-0.1-0.1-0.1-0.1c-0.1-0.4-0.1-1.5-0.1-1.5s0-0.5,0-0.7c0.1-0.3,0.3-0.5,0.5-0.9c0.5-0.5,0.8-0.5,1.1-1.3
			c0.3-1.6,0.6-2.5-0.4-3.7c-0.7-0.8-1.6-1.8-3.2-1.4c-1.8,0.3-2.6,0.6-2.8,0.8c0,0-0.1,0.3-0.2,0.4c0,0.2-0.1,0.5-0.3,0.6
			c-0.3,0.2-0.6,0.3-1,0.3c-0.5,0.1-0.8,0.2-1.1,0.4c0,0-0.1,0.1-0.2,0.2c-0.3,0.3-0.3,0.7,0.1,1c0.3,0.2,0.7,0.2,1,0.2
			c0.4,0,0.7,0,1.1,0C492.4,618.6,493,618.5,493.2,618.6z M499.2,626.5C499.2,626.5,499.2,626.6,499.2,626.5
			C499.2,626.6,499.2,626.6,499.2,626.5C499.2,626.5,499.2,626.5,499.2,626.5z M499.1,627.5C499.1,627.5,499.1,627.5,499.1,627.5
			C499.1,627.5,499.1,627.5,499.1,627.5C499.1,627.5,499.1,627.5,499.1,627.5z M498.7,626.2C498.7,626.2,498.7,626.2,498.7,626.2
			C498.7,626.2,498.7,626.2,498.7,626.2C498.7,626.2,498.7,626.2,498.7,626.2C498.7,626.2,498.7,626.2,498.7,626.2z"/>
	</g>
</g>
<text transform="matrix(1 0 0 1 36.6616 165.0868)" class="st1 st2 st3">Antonio  Carmen</text>
<circle class="st4" cx="615.5" cy="157.8" r="147.9"/>
<path class="st5" d="M500.2,65.2c-20.4,25.4-32.6,57.6-32.6,92.7s12.2,67.3,32.6,92.7V65.2z"/>
<path class="st5" d="M533.1,280.7c10.2,6.8,21.2,12.4,32.9,16.6V18.4c-11.7,4.2-22.8,9.7-32.9,16.6V280.7z"/>
<path class="st5" d="M615.6,305.8c11.3,0,22.3-1.3,32.9-3.7V13.6c-10.6-2.4-21.6-3.7-32.9-3.7V305.8z"/>
<path class="st5" d="M664.9,297.3c11.7-4.2,22.8-9.7,32.9-16.6V35c-10.2-6.8-21.2-12.4-32.9-16.6V297.3z"/>
<path class="st5" d="M730.7,250.5c20.4-25.4,32.6-57.6,32.6-92.7s-12.2-67.3-32.6-92.7V250.5z"/>
<path class="st6" d="M341.3,157.8c0,13.3,2.3,26.1,6.6,38h211.8c4.3-11.9,6.6-24.6,6.6-38s-2.3-26.1-6.6-38H347.9
	C343.7,131.7,341.3,144.5,341.3,157.8z"/>
<rect x="400.9" y="-3.7" transform="matrix(-1.348645e-10 -1 1 -1.348645e-10 246.1928 562.4839)" class="st7" width="6.8" height="323.8"/>
<path class="st6" d="M453.8,45.3c-26.7,0-51.2,9.3-70.5,24.8h141C505,54.6,480.5,45.3,453.8,45.3z"/>
<path class="st6" d="M453.8,270.3c26.7,0,51.2-9.3,70.5-24.8h-141C402.6,261,427.1,270.3,453.8,270.3z"/>
</svg>
