<?xml version="1.0" encoding="utf-8"?>
<!-- Generator: Adobe Illustrator 19.2.0, SVG Export Plug-In . SVG Version: 6.00 Build 0)  -->
<svg version="1.1" id="Layer_1" xmlns="http://www.w3.org/2000/svg" xmlns:xlink="http://www.w3.org/1999/xlink" x="0px" y="0px"
	 viewBox="0 0 800 670" style="enable-background:new 0 0 800 670;" xml:space="preserve">
<style type="text/css">
	.st0{fill:#373333;}
	.st1{enable-background:new    ;}
	.st2{fill:#010101;}
	.st3{fill:none;}
	.st4{fill:#D8B144;}
	.st5{fill:#DFB4A1;}
	.st6{fill:#CE4244;}
</style>
<g>
	<path class="st0" d="M370.3,540c1.6-0.1,2.7-0.5,3.8-1.4c1.1-0.9,3.3,0.2,5.1-0.3c1.8-0.5,0.3-1.2,1.8-3.1c1.5-1.9,1.1-2.1,0.6-3.7
		c-0.5-1.6-1.2-1.2-3,0s-3,3.4-4,4.1c-1,0.7-2.3-0.3-3.6-0.4c-1.3-0.1-0.5,0.6-1.4,0.8c-0.8,0.1-1.1-0.3-2.8,0.7s0,1.6,0,1.6
		C365.2,540.6,368.6,540.2,370.3,540z"/>
	<path class="st0" d="M384.1,552.8c-0.9-1.5-0.6-3.1,0.5-3c1.2,0.1,1.6,0,1.3-0.8c-0.3-0.8,0-2.9-0.9-2.8c-0.9,0.1-0.6-0.9-1.6-0.2
		c-1.7,1.1-2.1-1.2-2.9,0c-0.9,1.2,0.3,2.3-0.8,2.5c-1.1,0.1-2.9,1.4-0.8,3.1C381,553.2,385,554.3,384.1,552.8z"/>
	<path class="st0" d="M383.9,536.4c-0.5,0.9-0.8,2.7-1.6,3.7c-0.8,1-0.1,2.3,1.4,2.3c1.4,0,1,1.2,3.5,0s2.5-0.9,2-2.9
		c-0.5-2.1-1.9-1.9-1.8-3s0.4-2.1-0.7-1.6C386.6,534.9,384.5,535.5,383.9,536.4z"/>
	<path class="st0" d="M387.7,530.9c1.2,0.2,0.3,1,1.4,1.9c1.2,1,0.9,0.4,1.6,2s1.5,1.6,3.2,1.5s2.8-2.1,2.3-3s0.2-3.1-1.4-2.9
		c-1.6,0.2-0.9-1.4-1-2.2s-1.8-0.3-2.8,0.5c-0.8,0.7-2.3,0.7-3,0.9c-0.2,0-0.3,0.1-0.3,0.1C386.3,530,386.5,530.7,387.7,530.9z"/>
	<path class="st0" d="M387.4,526c1,0.3,3.2,0.4,4.2-0.6s1.5-1.6,3.2-1.6s4.2,0.5,4.3-0.8c0.1-1.3,0.3-1.5-0.7-2.1
		c-1-0.5-2.5-1.1-2.5-1.1s-4.7-0.1-4.7,1.5c0,1.3-1.5,1.6-1.7,2.2C389.3,524.2,386.4,525.7,387.4,526z"/>
	<path class="st0" d="M366.8,533.1c1.5,0.8,5.2-0.8,5.8-2.1c0.5-1.4,1.5-3.5,3.1-3s4.4,0,4.4,0s3.2-0.2,3.5-1.3c0.3-1-0.1-1.6,1-2.6
		c1.2-1,2.4-4.2,1.8-4.1c-0.6,0.1-7.7,1.1-7.9,1.7c-0.2,0.6,0.4,2.7-1.8,2.6c-2.2-0.1-4.1,1-4.1,1s-3.1,1-4.2,2.6
		C367.2,529.6,362.6,530.9,366.8,533.1z"/>
	<path class="st0" d="M398.3,533.3c1,2,4.7-0.9,4.8-2.8c0.1-1.9,3-6.7,4.8-7.4s1-1.3,1.9-1.7c0.9-0.5,1.1-1.4,1.1-1.4l-1.8,0.4
		c0,0-5.4,1.7-7.1,4.1C400.2,526.9,397.3,531.3,398.3,533.3z"/>
	<path class="st0" d="M399.1,544.1c-1.7,2.5,2.2,3.3,3.6,0.9c0,0,6.9-6.3,7.2-9.3c0.3-3.1,1.8-7.4,4.6-8.7s0.7-3.6,2.9-5.1
		s6.8-5,6.6-6.1c-0.2-1.2-7.4,3.3-8.6,6.4c-1.2,3.1-7.5,8.2-8.6,11.2C405.8,536.2,400.9,541.5,399.1,544.1z"/>
	<path class="st0" d="M418.9,524.8c-1.8,1.7-2.7,3.2-3.9,5.7c-1.2,2.4-2.7,2.3-2.3,4.9c0.5,2.5-1.9,3.8-3.4,6.8s-1,3.3,2.1,1
		c3.1-2.4,2.8-6.4,4.5-10.9s4.2-4.6,6.2-5.9s2.7-4.4,2.7-4.4c0.2-2.8,2.6-4.6,2.1-5.6s-1.5,1-4,3.1
		C420.4,521.3,420.7,523,418.9,524.8z"/>
	<path class="st0" d="M428.9,522.5c2.1-1.4,0.4-2.6,3.1-3.8s7.1-3.9,3.5-5.1c0,0-3.7,1-5.5,3.2C428.2,518.9,426.8,523.9,428.9,522.5
		z"/>
	<path class="st0" d="M341.9,557.6c3.1,0.2,2.8-0.1,4.6,0.5c1.8,0.6,3.6-1.7,1.8-3c-1.8-1.3-1.5-4.3-3.2-4.7c0,0-2.7-0.3-3.8,1.9
		C340.2,554.6,338.9,557.4,341.9,557.6z"/>
	<path class="st0" d="M336,559.8c0,0-3.8,1.9-2.3,4.4s4.3,4.1,4.7,1.6c0.4-2.5,0.6-2.7,1.2-3.6C340.3,561.3,338.8,558.8,336,559.8z"
		/>
	<path class="st0" d="M349.1,565.4c0.3-1.3-0.8-0.6-1.1-2.1c-0.3-1.6-1.3-2.7-2.7-2.3c-0.1,0-0.2,0.1-0.2,0.1c-0.1,0-0.1-0.1-0.2,0
		c-0.6,0.1-1.2,0.5-1.7,1c-0.2,0.1-0.3,0.3-0.4,0.5c-0.8,0.9-2,2.8-0.7,3.8c1.8,1.4,1,0.4,3.2,0.7
		C347.4,567.3,348.8,566.7,349.1,565.4z"/>
	<path class="st0" d="M359.1,559.3c-0.9-2.5,1-3.2-0.5-4.1c-1.4-1-2.9,0-2.9,0s-5.7,1.9-4.4,5.3c1.3,3.4,2.3,2.8,4.9,2.4
		C358.7,562.6,360,561.8,359.1,559.3z"/>
	<path class="st0" d="M357.3,551c0.2-1.2,0.8-5.1-1.5-4.5c-2.4,0.5-1.3,1.6-2.2,2c-0.9,0.4-2.1-0.3-2.4,1.1
		c-0.1,0.5,0.7,2.9,2.8,2.8C356,552.4,357.1,552.2,357.3,551z"/>
	<path class="st0" d="M344.6,575.2c1.6-1.8,0.7-1.9,1.4-3.1c0.7-1.3-1.6-3.3-3.6-1c0,0-3.2,0.8-1.5,3.2
		C342.6,576.8,343,577,344.6,575.2z"/>
	<path class="st0" d="M364,579.2c-0.4-2.3-0.1-4.2-2.2-4s-1.4-1-3.4,0c0,0-1.9,1-1,3.6c1,2.5,1.1,5.1,3.4,4.6
		C363.1,582.8,364.4,581.5,364,579.2z"/>
	<path class="st0" d="M361.4,571.2c3.3,1.6,3.2,2.3,4.1,0.6s0.8-2.3,1.2-3.3c0.4-1.1-0.7-1.4-2.7-2.2s-2.5-1-3.4-0.6
		C360.7,565.8,358.1,569.6,361.4,571.2z"/>
	<path class="st0" d="M367.6,563.2c0.5-1.7,0-3.6-1.6-4.3c-1.6-0.6-2.6-1-3.2,0c0,0-2.2,2.6,0,3.6S367.1,564.9,367.6,563.2z"/>
	<path class="st0" d="M353.9,572.8c-0.3-1.2-0.9-3.6-3.6-2.7c-0.3,0.1-1.9,0.9-1.2,3.6c0.7,2.6,2.3,3.2,4.3,2
		C355.4,574.5,354.2,574,353.9,572.8z"/>
	<path class="st0" d="M353.7,541.2c2.8,0.1,4.5-2.8,6-3.9c1.4-1.2,4.3-4.4,0.5-5.1c0,0-4,0.5-4.8,2.7
		C354.4,536.9,350.8,541.1,353.7,541.2z"/>
	<path class="st0" d="M376.3,561.7c1.1-0.8,3.1,0.3,3.9-1.3s-0.5-4.1-1.9-5.3s-3.9-1.7-5.2-0.4c-1.1,1.1,1.6,1.2,0.9,2.8
		S375.2,562.5,376.3,561.7z"/>
	<path class="st0" d="M390,554.7c-1.1-1.2-3.2-1.1-4.2,0s-1.2,1.6-1.2,1.6s-1.7,6.1,0.8,7c2.4,0.9,2.3-0.7,3.6-2.1
		c1.3-1.4,0.3-2.1,0.6-2.9C389.7,557.5,391.1,555.9,390,554.7z"/>
	<path class="st0" d="M365.9,544.6c-0.1,0.9,0.8,1.7,1.8,1.2c0.7-0.3,1-1.1,1.9-1.1c0.5,0,1,0.3,1.5,0.3s1.7-0.4,1.8-1
		c0.1-0.6-0.7-0.9-1.1-1c-0.3-0.1-0.7-0.1-1,0c-0.8,0.1-1.3,0.1-2.1,0C367.9,542.8,365.4,543.5,365.9,544.6z"/>
	<path class="st0" d="M448.1,521.9c0.1,0.5,0.4,0.7,0.8,0.9c0.5,0.2,1.5-0.4,1.7-0.3c0.4,0.2,0.6,1.3,1,1.7s1,0.7,1.6,0.7
		c1.2,0,2.2-1.1,2.1-2.3c-0.1-0.4-0.2-0.9-0.4-1.3c0-0.1,0-0.1,0-0.2c-0.1-1.1,0.5-2.1,1.3-3.1c0.6-0.3,1.1-0.7,1.4-1
		c0.7-0.8,1.4-1.4,2.3-2c0.6-0.3,1-0.5,1.5-1c0.7-0.8,3.1-6.9,1.9-7.5c-0.1-0.1-0.1-0.2-0.2-0.2c-0.2-0.1-0.5-0.1-0.6,0
		c-0.3,0.2-0.5,0.5-0.7,0.8c-0.6,0.4-0.9,1-1.2,1.8l0,0c-0.6,0.9-1.2,1.8-1.8,2.7c-0.5,0.3-1,0.6-1.7,0.7c-0.6,0.1-1.3,0.1-1.9,0.4
		c-0.7,0.5-0.8,1.4-0.9,2.1c-0.3,1.8-1.6,2.6-2.8,3.7c0,0,0,0-0.1,0C450.7,519.2,447.8,520.5,448.1,521.9z M452.1,518.8L452.1,518.8
		C452.1,518.9,452.1,518.9,452.1,518.8C452.1,518.9,452.1,518.9,452.1,518.8z M451.9,519l-0.1,0.1l0,0
		C451.8,519.1,451.8,519,451.9,519z"/>
	<path class="st0" d="M427.3,542.9c-0.2-0.1-0.3-0.2-0.4-0.3c0-0.1,0.1-0.3,0-0.5c-0.2-1.3-1.5-1-2.3-0.5c-0.1,0-0.2,0.1-0.3,0.1
		c-0.6,0.2-1.2,0.4-1.7,0.8c-1,0.8-0.7,1.8-1.3,2.7c-0.1,0.2,0,0.4,0.2,0.4c0.4,0.1,0.8,0.1,1.2-0.1c0.3,0,0.5,0,0.8-0.1
		s0.6-0.3,0.9-0.5c0.2,0,0.5,0,0.8,0c0.3,0.1,0.6,0.1,0.9,0.1c0.8,0,1.7-0.1,2-0.8C428.5,543.5,427.9,543.2,427.3,542.9z"/>
	<path class="st0" d="M431.1,545.6c0.4,0,0.8,0,1.2-0.1c0.1,0,0.2,0,0.3,0c0.7,0,1.5,0.1,2.3,0c0.5,0.1,1,0.4,1.6,0.8
		c1.6,1.1,3.4,3.7,5.7,2.4c1.7-0.9,0.2-1.8-0.9-2.4c-0.1,0-0.1-0.1-0.2-0.1c-0.2-0.1-0.4-0.3-0.7-0.4c-0.4-0.3-0.7-0.5-1.1-0.9
		c-0.2-0.3-0.4-0.5-0.6-0.7c-0.1-0.1-0.2-0.2-0.3-0.3c0-0.1-0.1-0.1-0.1-0.2c-0.1-0.1-0.2-0.1-0.3-0.2c-0.8-0.6-1.8-1.2-2.7-1.2
		c-0.5,0-1,0.2-1.5,0.5c-0.2,0.1-0.3,0.2-0.5,0.2c-1.4,0.4-2.7,1-4.1,0.9c-0.3,0-0.3,0.3-0.2,0.5
		C429.6,545.3,430.2,545.6,431.1,545.6z M431.2,545.1L431.2,545.1L431.2,545.1C431.1,545.1,431.1,545.1,431.2,545.1L431.2,545.1z"/>
	<path class="st0" d="M444.5,525.7c0-0.1,0-0.2-0.1-0.3c-0.5-0.6-0.9-1.8-0.9-2.6c0-0.3,0.1-0.5,0.1-0.7c1.4-0.8,3-1.3,3.4-3.3
		c0-0.1,0-0.2,0-0.3c0.1-0.4,0-0.9-0.4-1.2c-0.1-0.1-0.4-0.1-0.5,0.1c-0.7,1.2-1.9,1.6-3,2.4c-1,0.7-1.7,1.6-2.8,2.1
		c-0.9,0.4-1.9,0.7-2.5,1.4c-0.7,0.2-0.9,1-0.6,1.7c0,0.3,0.1,0.6,0.5,0.7c0.4,0.1,0.8,0.2,1.2,0.3c0.1,0.1,0.2,0.2,0.3,0.3
		c0,0.1,0.1,0.1,0.1,0.2c0.1,0.3,0.1,0.5,0.3,0.8c0.3,0.4,0.8,0.5,1.3,0.5C442.4,527.7,444.1,526.9,444.5,525.7z M446.6,518.1
		L446.6,518.1L446.6,518.1L446.6,518.1z"/>
	<path class="st0" d="M426.7,529.3c-0.1,0.1-0.1,0.3,0.1,0.4c0.7,0.4,1.5,0.6,2.2,0.2c0.5-0.2,1-0.9,0.6-1.4
		c-0.4-0.4-1.3-0.8-1.9-0.6s-0.7,0.7-0.8,1.2C426.8,529.2,426.8,529.2,426.7,529.3z"/>
	<path class="st0" d="M437.2,530.8c0.6,0.3,4.6,0,3.2-1.1c-0.1-0.1-0.2-0.1-0.3-0.2c-0.1-0.2-0.4-0.8-0.7-0.7
		c-0.2,0.1-0.4-0.5-0.6-0.5l0,0c-0.4,0-0.8,0.4-1.2,0.2c-0.6-0.4-1-0.6-1.6-1c-0.4-0.3-0.8-0.3-1.2-0.2c-0.9-0.3-2.3-0.6-3,0.1
		c-0.4,0.4-0.5,1.1,0.1,1.4c0.3,0.2,0.7,0,1,0c0.8-0.1,1.1-0.6,1.9,0c0.1,0.1,0.2,0.4,0.4,0.5c0.4,0.2,0.8,0.4,1.2,0.8
		C436.7,530.3,436.7,530.5,437.2,530.8z"/>
	<path class="st0" d="M398.1,540.9c0.3-0.5,0.6-2.4,0-2.8c0,0,0-0.1-0.1-0.1c0,0,0,0-0.1,0s-0.3,0-0.5,0.1c0,0,0,0-0.1,0.1
		c-1,0.3-2.2,0.5-3,1c-0.2,0.1-0.3,0.3-0.5,0.5c-0.3,0.5-0.5,1.1-0.8,1.6c-0.3,0.4-0.6,0.7-0.9,1c-0.4,0.6-0.4,1.1,0,1.8
		c0.4,0.6,1.6,1.7,2.4,1.7c0.7,0,1.5-0.7,1.9-1.1c0.3-0.4,0.4-0.7,0.5-1.2c0.2-0.6,0.1-1.4,0.4-2
		C397.6,541.2,397.9,541.1,398.1,540.9z"/>
	<path class="st0" d="M398.3,560.1c0.1,0.2,1,0.5,1.2,0.7c0.7,0.5,1.1,0.6,2,0.3c0.4-0.1,0.5-0.2,0.7-0.3c0.4,0.2,1,0.3,1.8,0.3
		c0.1,0,0.2,0.1,0.4,0.1c1.2,0.2,2.7-0.3,3.8-0.8c0.5-0.2,1.6-0.7,1.5-1.4c0-0.5-0.3-0.8-0.8-1.1c-0.3-0.5-1-0.8-1.6-1
		c-0.2-0.1-0.4-0.3-0.5-0.5c-0.1-0.1-0.2-0.2-0.4-0.1c-0.4,0.2-0.8,0.4-1.2,0.6c-0.1,0-0.2,0.1-0.3,0.1c-0.5,0.2-1,0.4-1.4,0.7
		c-0.7,0.3-1.4,0.6-2.1,0.9c-1.1,0-4,0.1-3.5,1.2C398,560,398.3,560,398.3,560.1z M399.5,559.2C399.5,559.2,399.4,559.2,399.5,559.2
		C399.4,559.2,399.4,559.2,399.5,559.2c-0.1,0.1-0.2,0.1-0.3,0.1C399.3,559.2,399.4,559.2,399.5,559.2z"/>
	<path class="st0" d="M412.1,548.9c1.8-1.5,3.4-3.1,4.1-5.4c0-0.1,0-0.1,0-0.2c0.1-0.2,0-0.5-0.3-0.6c-0.7-0.4-1.6,0.9-2,1.3
		c-0.7,0.8-1.4,2.3-2.4,3.2c-0.1,0-0.1,0.1-0.2,0.1c-0.5,0.3-0.9,0.4-1.3,0.5c-0.5,0-1-0.2-1.5,0s-0.8,0.7-1.1,1.1
		c-0.3,0.2-0.7,0.3-1.1,0.4l0,0c-0.3,0-0.6-0.2-0.8-0.4c-0.2-0.2-0.3-0.4-0.4-0.6c-0.1-0.1-0.2-0.2-0.3-0.2c-0.1,0-0.2,0.1-0.3,0.1
		c-0.1,0.1-0.3,0.2-0.4,0.3c-0.2,0-0.4,0.1-0.6,0.1c-0.1,0-0.3,0-0.4,0c-0.8,0.1-2.1,0.8-2.6,1.7h-0.1c-0.9,1,0,1.8,1.1,1.9
		c1.1,0.1,1.7-0.5,2.5-1c0.2-0.1,0.5-0.2,0.7-0.3c1-0.2,2.3,0.6,3.3,0.7c0.7,0.1,2,0.2,2.6-0.4C411.4,550.2,410.6,550.1,412.1,548.9
		z"/>
	<path class="st0" d="M426.3,548.5c-0.8-0.5-1.9-0.3-2.8-0.6c-0.8-0.2-1.1-0.4-2-0.3c-0.9,0.2-1.6,0.6-2.5,0.8c-0.3,0-0.7,0.1-1,0.1
		c-0.9,0.2-1.3,0.5-1.9,1.1c-0.4,0.4-0.8,1.2-1.1,1.6c-0.3,0.4-0.7,0.7-1,1c-0.3,0.2-0.7,0.4-1,0.6c-0.4,0.1-0.7,0.2-1,0.4
		c-0.2,0.2-0.5,0.5-0.4,0.9c0,0.1,0.1,0.2,0.1,0.2c-0.1,0.2-0.1,0.5,0.1,0.7c0.4,0.5,1.5,0.2,2,0c1.4-0.6,1.9-2.1,3.4-2.6
		c0.4-0.1,0.6-0.1,0.9-0.4c0.6-0.4,0.8-0.7,1.5-0.8c0.4-0.1,0.9-0.1,1.3,0c0.5,0.2,0.8,0.5,1.2,0.8c0.2,0.2,0.3,0.3,0.6,0.4
		c0.6,0.2,1.2-0.1,1.8,0.1c0.8,0.3,1.9,0.9,2.5,0v-0.1c0.2-0.2,0.3-0.5,0.3-0.9c0-0.3-0.1-0.6-0.2-0.9
		C427.3,549.9,427.1,549,426.3,548.5z M415.6,551.2C415.6,551.2,415.5,551.2,415.6,551.2c0-0.1,0.1-0.2,0.2-0.3
		C415.7,551,415.7,551.1,415.6,551.2z M415.8,550.9c0.2-0.2,0.3-0.4,0.3-0.4c0.1-0.1,0.2-0.2,0.2-0.2
		C416.2,550.4,416,550.6,415.8,550.9z M416.5,550.1c0.5-0.5,0.9-0.7,1.2-0.9C417.3,549.5,416.9,549.8,416.5,550.1z"/>
	<path class="st0" d="M388.7,575.1c0.7,0.5,2.4,0.2,3.2,0.2c0.2,0,0.3-0.1,0.3-0.3c0.7-0.2,0.7-0.8,0.4-1.4
		c-0.2-0.4-0.7-0.8-0.9-1.3c-0.2-0.6,0.1-1.2-0.1-1.8c-0.1-0.3-0.3-0.5-0.6-0.7c-0.8-0.6-1.5-0.9-2.1-1.8c-0.3-0.5-0.6-0.9-1.1-1.3
		c-0.7-0.4-1.6-0.5-2,0.3v0.1l0,0c0.7,1.2,0.6,1.4,0.3,2.9c-0.1,0.4-0.2,0.6-0.2,1c0.1,0.8,0.8,1.2,1.3,1.8
		C387.9,573.4,388,574.6,388.7,575.1z M386.2,567C386.2,566.9,386.2,566.9,386.2,567L386.2,567c0.1,0.1,0.1,0.1,0.1,0.1
		C386.2,567,386.2,567,386.2,567z M386.8,570.8L386.8,570.8L386.8,570.8L386.8,570.8z"/>
	<path class="st0" d="M393.3,569.3c0.1,0.3,0.2,0.4,0.4,0.5c0.6,0.4,2.2,0.2,3,0c0.5-0.1,1-0.5,0.9-1.1c0-0.4-0.3-0.6-0.5-0.9
		c0-0.1-0.1-0.3-0.2-0.3c-0.5-0.4-0.8-0.7-1.1-1.3c-0.1-0.2-0.2-0.4-0.3-0.6c0.1-0.5,0.2-1.1-0.3-1.6c-0.3-0.2-0.6-0.3-0.9-0.3
		c0,0-0.1-0.1-0.2-0.1c-0.9-0.5-1.5,0.3-1.8,1.1c-0.2,0.1-0.5,0.3-0.6,0.7c-0.3,0.9,0.2,1.8,0.7,2.4c0.2,0.3,0.6,0.6,0.7,1
		C393.4,568.9,393.3,569.1,393.3,569.3z M394.2,569.3c-0.1-0.1-0.2-0.1-0.2-0.2C394.1,569.2,394.1,569.3,394.2,569.3z"/>
	<path class="st0" d="M393.2,553.2c0,0.2,0,0.3,0,0.5c-0.1,0.7-0.3,1.3-0.6,1.9c-0.2,0.4-0.4,0.7-0.4,1.2c0,1.4,1.9,3.1,3.2,2
		c0.6-0.5,0.3-0.9,0.3-1.6c-0.2-1.5,0.2-2.9-0.2-4.5c0-0.2-0.1-4.1-1.2-3c-0.5,0.1-0.4,0.5-0.4,1.1l0,0c0,0.5-0.5,0.9-0.5,1.6
		c0,0.2-0.1,0.3-0.1,0.4C393.3,553,393.2,553.1,393.2,553.2z M394.5,550.5c0,0.1,0,0.1,0.1,0.2C394.5,550.6,394.5,550.6,394.5,550.5
		L394.5,550.5z"/>
	<path class="st0" d="M329.5,569.3c-0.6-1.6-0.4-3-0.6-4.7c0-0.1-0.1-0.6-0.3-1.1c0-0.1,0-0.1,0-0.2c0.1-0.4,0.2-1-0.2-1.3
		c-0.3-0.2-0.8-0.3-1.1-0.2c-0.1,0.1-0.2,0.2-0.3,0.3c-0.1,0.1-0.1,0.1-0.2,0.2c-0.3,0.2-0.5,0.4-0.6,0.8c-0.2,0.5-0.1,1-0.1,1.5
		c0,0.7-0.2,1.3-0.2,1.9c-0.1,1.3,0,3.7,1.6,4.1c0.5,0.1,1.5,0,1.9-0.3C329.9,570,329.7,569.8,329.5,569.3z"/>
	<path class="st0" d="M329.5,575.9c-0.2,0.3-0.1,0.9-0.1,1.2c0,0.5,0.1,0.9,0.3,1.4c0,0.4,0.1,0.8,0.1,1.1c0,0.2,0.1,0.3,0.1,0.5
		v0.1c0,0.2-0.1,0.5-0.1,0.7c0,0.8,0.5,1.1,1.2,1.4c0.5,0.3,1.3,0.9,1.9,0.6c0.4-0.2,0.5-0.7,0.3-1.1c-0.1-0.4-0.5-0.6-0.8-0.9
		c-0.7-0.7-0.8-1.4-0.8-2.4c0-0.4,0-0.7-0.2-1.1c-0.2-0.4-0.5-1.1-0.8-1.4c-0.3-0.4-0.6-0.7-1.1-0.3
		C329.6,575.7,329.5,575.8,329.5,575.9z"/>
	<path class="st0" d="M323.1,574.1c-0.5-0.8-0.3-1.5-0.2-2.4c0.1-1.1,0.1-2.4-1.1-2.8c-0.2-0.1-0.4,0.1-0.3,0.3
		c0,0.2,0.1,0.4,0.2,0.6l0,0c0,0.5,0.1,0.9,0.1,1.4c-0.3,1.2-1,2.3-0.4,3.5c0.3,0.6,1.8,1.8,2.5,1c0.2-0.2,0.2-0.5,0.1-0.8
		C323.7,574.7,323.3,574.4,323.1,574.1z M322,569.8L322,569.8L322,569.8L322,569.8L322,569.8C322,569.9,322,569.9,322,569.8z"/>
	<path class="st0" d="M349.1,578.2c0-0.2-0.1-0.5-0.3-0.7c-0.3-0.4-0.8-0.5-1.2-0.3c-0.1,0-0.2,0.1-0.2,0.1s-0.1,0-0.1,0.1
		c-0.5,0.1-1.1,0.4-1.4,0.8c-0.2,0.4-0.2,0.6-0.3,1c0,0.6,0.1,1.2-0.2,1.8c-0.4,0.8-0.6,0.4-0.9,0.8c-1.3,1.6,0.6,3.1,2.2,3.2
		c0.6,0.1,1.6-0.1,1.8-0.8c0.2-0.6-0.4-1.1-0.6-1.6c-0.4-1.3,0.5-1.7,1.5-2.1C350.6,579.9,350,578.9,349.1,578.2z"/>
	<path class="st0" d="M338.9,582c1.4,0.8,4.1,0.6,4-1.6c0-0.8-0.5-0.9-0.9-1.2c-0.1-0.4-0.2-0.8-0.5-1.1c-0.3-0.4-0.8-0.5-1.3-0.7
		c-0.3-0.1-0.6-0.2-1-0.3c-0.4-0.5-0.7-1.1-1.5-1.2c-0.8-0.1-1.6,0.4-1.9,1.2c-0.3,0.6-0.5,1.6-0.1,2.1s4.4,1,3.1,2.4
		C338.8,581.8,338.8,581.9,338.9,582z"/>
	<path class="st0" d="M338.6,571c0.3-0.5,0.3-0.9,0-1.4c-0.1-0.1-0.3-0.2-0.4-0.1c-0.3,0.1-0.5,0.4-0.7,0.6
		c-0.6,0.1-1.2,0.2-1.8,0.3c-0.5,0.1-1,0.2-1.5,0.5c-1,0.1-2.2,0.3-2.4,1.2c-0.1,0.4,0.1,0.7,0.1,1.1c0.1,0.3,0,1,0.2,1.3
		c0.3,0.4,0.9,0.5,1.4,0.6c1,0.1,3.2,0.2,3.7-1c0.5-1.3-0.6-0.8,0.8-2.4C338.2,571.4,338.4,571.3,338.6,571z"/>
	<path class="st0" d="M337.8,589.6c-0.1-0.1-0.2-0.1-0.2-0.2c-0.2-0.4-0.5-0.7-0.8-0.9c-0.1-0.3-0.2-0.5-0.3-0.8
		c-0.1-0.1,0-0.4-0.2-0.5c-0.3-0.3-0.5-0.3-0.9-0.3s-0.8-0.1-1.2-0.1c-0.9-0.3-1.7-0.5-2.6-0.7c-0.5-0.1-1,0.1-1.4,0.3
		c-1,0.1-1.7,0.6-1.4,1.9c0.5,2.4,2.5,2.2,4.3,1.9c0.1,0,0.1,0.1,0.2,0.1c0.2,0.9,0.6,1.8,1.5,2s3.1-0.8,3.2-1.8
		C338.3,589.8,338.1,590.2,337.8,589.6z"/>
	<path class="st0" d="M342.8,588.5c0-0.4,0-0.8,0-1.2c0.1-0.1,0.1-0.1,0.2-0.2c0-0.1,0.1-0.2,0.2-0.3c0.7-1.9-3.2-1.8-4.1-1.7
		c-0.1,0-0.2,0.1-0.2,0.2c-0.1,0.1-0.1,0.2-0.1,0.3c0.1,0.5,0.9,0.8,1.3,1c0.7,0.5,0.8,1,0.8,1.8c0,0.4,0.1,0.9,0.2,1.2
		c0.2,0.6,0.7,0.8,1.3,0.7c0.5-0.1,1.4-0.3,1.2-0.9C343.5,589.1,342.9,588.9,342.8,588.5z M342.3,587
		C342.3,586.9,342.3,586.9,342.3,587C342.3,586.9,342.4,586.9,342.3,587C342.4,586.9,342.4,586.9,342.3,587z"/>
	<path class="st0" d="M357.5,584.3c-0.2-0.4-0.4-0.8-0.5-1.4c0-0.3,0.1-0.2,0-0.6c-0.4-1.6-3.1-2.2-4-0.8l0,0
		c-0.1,0.1-0.2,0.3-0.2,0.4c0,0.4,0.2,0.3,0.4,0.6c0.3,0.3,0.7,0.6,0.9,1c0.1,0.3,0.1,0.7,0.1,1.1c0,0.2,0,0.4,0,0.6c0,0,0,0,0,0.1
		c-0.1,1.5,1.3,3.1,2.9,2.2c0.7-0.4,1-1.1,0.9-1.9C358,585,357.8,584.8,357.5,584.3z"/>
	<path class="st0" d="M368.1,591.9c-0.1-0.4-0.2-0.9-0.4-1.3c0.2-0.6,0.4-1.3,0.5-1.7c0-0.1,0.1-0.2,0.1-0.3
		c0.6-0.5,1.3-0.7,2.3-0.5c0.2,0.1,0.5,0.1,0.7,0.2c0.4,0.3,0.9,0.5,1.5,0.4c0.4-0.1,0.9-0.2,1.2-0.5c0.3-0.1,0.5-0.3,0.7-0.6
		c0.2-0.2,0.5-0.5,0.6-0.8c1.1-1.6,0.7-3.3-0.7-4.6c-1.2-1-2.6-1.3-4-0.9c0,0-0.1-0.1-0.1,0c0,0,0,0-0.1,0.1c-0.7,0.2-1.3,0.5-1.9,1
		c0,0,0,0.1-0.1,0.1c-0.7,0.2-1.5,0.2-2.3,0.7c-0.5,0.3-1.5,1.1-1.9,1.5c-0.2,0.1-0.4,0.3-0.5,0.4c-0.5,0.6-0.5,1.5-0.3,2.3
		c0.1,0.3,0.5,0.8,0.6,1.1c0.4,1.5,0,1.1-1,2c-3.4,3.2,2.6,4.3,4.1,2.8C367.8,592.9,368.2,592.6,368.1,591.9z"/>
	<path class="st0" d="M342,543.8c0.8,0.2,1.5-0.7,1.6-1.3l0.1-0.1c0-0.1,0.1-0.1,0.1-0.2c1-1.2,1.9-2.3,3.5-2.8
		c1.2-0.4,2.2-1.3,2-2.6c0-0.2-0.3-0.2-0.4-0.1c-1.2,1.4-2.5,2.3-4,3.4c-0.8,0.6-1.3,1.4-2.1,1.9c-0.3,0.2-0.9,0.4-1.1,0.8
		C341.3,543.1,341.4,543.7,342,543.8z"/>
	<path class="st0" d="M343.4,546.9c0,0-0.1,0.1-0.1,0.2c0,0.4,0.2,0.7,0.6,0.7c0.7,0.1,1.3-1,1.7-1.4c0.4-0.4,0.8-0.7,1.2-1.1
		c0.4-0.1,0.8-0.2,1.2-0.4c0.9-0.4,1-0.9,1.4-1.6c0.3-0.5,3.1-2.3,1.6-3s-2.8,2.4-3.5,3.1C346.5,544.5,343.4,545,343.4,546.9z"/>
	<path class="st0" d="M357.4,543c-0.5,0.6-0.9,1.4-0.2,1.8c0,0,0,0,0,0.1s0.2,0.2,0.3,0.2c2.2-0.1,3.7-1.3,5.2-2.7
		c0.6-0.6,2.8-2.5,1-3.1c-0.5-0.2-1,0-1.4,0.3c-1.1,0.8-1.9,1.6-3.2,2.1C358.2,541.9,357.6,542.3,357.4,543z"/>
	<path class="st0" d="M368.2,548.5c-0.1,0.3-0.1,0.6,0.2,0.7c0.2,0.1,0.5,0.3,0.8,0.5c0.2,0.3,0.4,0.5,0.7,0.6
		c0.2,0.1,0.4,0.1,0.6,0c0.5,0.1,1.1,0.1,1.6,0c0.5,0.2,1,0.4,1.5,0.4c0.6,0,1.2,0,1.6-0.5c0.3-0.4,0.2-0.6,0.3-1.1
		c0.1-0.4,0.5-1.3,0.4-1.6c0-0.5-0.1-0.8-0.6-0.9c-0.2,0-0.5,0.1-0.6,0.1c-0.2,0.1-0.3,0.1-0.4,0.2c-0.7,0.3-1.2,0.2-1.8-0.1
		c-1.3-0.3-2.2-0.2-3.6-0.1c-1,0.1-1.8,0-2.5,0.7c-0.1,0.1-0.1,0.3,0.1,0.4c0.5,0.3,1,0.5,1.5,0.6
		C368.2,548.4,368.2,548.5,368.2,548.5z"/>
	<path class="st0" d="M381.8,573c0.5-0.4,0.3-0.8,0-1.2c-0.1-0.2-0.5-0.5-0.7-0.8c-0.4-0.7-0.3-0.9-0.2-1.6c0.1-0.5,0.3-0.7,0.2-1.2
		c-0.2-0.5-0.7-1.1-1.1-1.4c-0.3-0.3-0.6-0.4-1-0.6c-0.6-0.3-2-1.4-2.8-0.9c-0.4,0.2-0.4,0.5-0.2,0.8c-0.1,0.1,0,0.1,0.1,0.6
		c0,0.2,0.2,0.6,0.4,0.9c0.1,0.4,0.2,0.7,0.4,1.1c0,0.2,0.1,0.4,0.1,0.6c0.3,1.3,1.6,2.4,2.6,3.2C380,572.9,381,573.5,381.8,573z"/>
	<path class="st0" d="M368.7,577.3c0.4,0.2,0.7,0.1,0.9,0.6c0.2,0.3,0.2,0.5,0.5,0.7c0.7,0.5,3.6,0.5,3.6-0.7c0-0.3-0.2-0.4-0.4-0.6
		c-0.5-0.6-0.6-1-0.8-1.7c-0.1-0.4-0.2-0.9-0.5-1.2c-0.3-1.1-2.6-1-3.1,0.1c-0.6,0.3-1.1,0.7-1.2,1.5
		C367.8,576.5,368.1,577.1,368.7,577.3z"/>
	<path class="st0" d="M370.9,568.9c-0.1-0.1-0.1-0.2-0.3-0.3l0,0c-0.5-0.4-1.5,0.2-1.5,0.9c-0.2,0.2-0.3,0.3-0.5,0.5
		s-0.3,0.4-0.3,0.6c0,0,0,0,0,0.1c0,0.2,0.1,0.4,0.4,0.5c0.1,0,0.2,0.1,0.3,0.1c0.1,0,0.1,0,0.2,0s0.2,0,0.3,0c0.1,0,0.1,0,0.2,0
		l0,0c0.4,0,0.9,0,1.3,0.2c0.5,0.2,0.9,0.6,1.5,0.3c1.1-0.5,0.1-1.7-0.5-2.1C371.4,569.6,371.2,569.3,370.9,568.9z"/>
	<path class="st0" d="M356,565.5c-0.4,0.2-0.8,0.4-1.2,0.5c-0.2,0.1-0.5,0.1-0.7,0.3c-0.3,0.4-0.2,0.8,0,1.1c0,0.3,0.3,0.6,0.6,0.8
		c0.1,0.2,0.4,0.4,0.6,0.4c0.2,0.1,0.4,0.3,0.6,0.5c0.2,0.3,0.3,0.6,0.6,0.8c0.4,0.2,0.8,0,1-0.4c0.1-0.3,0-0.6-0.1-0.9
		c-0.2-0.6-0.1-0.9,0.1-1.5C358.1,565.9,357.2,565.1,356,565.5z"/>
	<path class="st0" d="M378.4,593.2c0-0.1,0.1-0.3,0.1-0.4c0.2-0.5,0.4-1,0.5-1.5c0.6-0.5,1.2-1.3,0.6-2c-0.7-0.7-1.8-0.7-2.4-0.1
		c-1.1,0.2-2.5,0.7-2.7,1.8c-0.3,1.3,0.5,2.6,1.6,3.3c-0.6,0.7-1.1,1.4-1.7,2.1c-0.1,0.1-0.1,0.4,0.1,0.4c0.6,0.1,2.6,0.8,3.5,0.2
		c0.1,0,0.1,0,0.1,0c0.2,0,0.5-0.1,0.6-0.3c0.7-0.8-0.3-2.1-0.4-2.8c0-0.2,0-0.4,0-0.6C378.4,593.4,378.4,593.3,378.4,593.2z"/>
	<path class="st0" d="M370.4,600c0.3-0.2,0.4-0.4,0.5-0.7c0.1-0.5-0.2-0.9-0.1-1.3c0.2-1,1.6-0.2,1.9-1.1c0.3-0.6-0.3-1.3-0.7-1.6
		c-0.5-0.4-1.3-0.6-1.9-0.2c-0.3,0.2-0.4,0.4-0.6,0.7c-0.3,0.5-0.3,0.7-0.8,1.1c-0.1,0-0.1,0.1-0.2,0.1c-0.4,0-0.8,0.1-0.9,0.5
		c-0.2,0.7,0.8,1.5,1.2,2C369.3,599.9,369.8,600.4,370.4,600z"/>
	<path class="st0" d="M384.3,597.3c0.6-0.2,0.5-1.2-0.2-1.1c-1.8,0-3,1.3-3.8,2.9c-0.5,1-0.7,2.1-1.2,3c-0.7,1.4-1.9,2.1-3.2,3
		c-0.2,0.1-0.1,0.4,0.2,0.4c1.6-0.5,3-1.4,4.1-2.7C381.6,600.8,381.9,598.2,384.3,597.3z"/>
	<path class="st0" d="M376.8,599.4c-0.6-0.6-1.6,0.3-2.1,0.7c-0.2,0.1-0.4,0.3-0.6,0.4c-0.1,0.1-0.3,0.1-0.4,0.2
		c-0.4,0.2-0.7,0.3-1.1,0.4c-0.6,0.1-1.2,0.3-1.7,0.7c-1,0.9-1.5,2.2-0.1,2.8c1.2,0.5,2.7,0.5,3.4-0.5c0.1,0,0.1-0.1,0.1-0.1
		c0.3-0.5,0.7-0.8,1.1-1.2c0.4-0.3,0.7-0.7,1-1.2C376.7,601.1,377.4,599.9,376.8,599.4z"/>
	<path class="st0" d="M401.5,568.3L401.5,568.3C401.5,568.4,401.5,568.4,401.5,568.3c0,0.5,0.1,0.9,0.3,1.1c0,0,0.1,0.1,0.2,0
		c0.5-0.1,0.3-0.1,0.9,0c0.7,0.1,0.6,0.3,1.1,0.6c0.4,0.3,0.9,0.3,1.4,0.3c0.9-0.1,2.2-0.4,2.4-1.4c0.2-1-0.7-1.8-1.5-2.1
		s-1.7-0.1-2.5,0c-0.2,0-0.4,0-0.6,0c-0.5-0.1-0.8-0.6-1.3-0.6c-0.6-0.1-1.1,0.4-0.9,1c0.1,0.3,0.3,0.5,0.5,0.7
		C401.5,568,401.5,568.1,401.5,568.3C401.5,568.2,401.5,568.3,401.5,568.3z"/>
	<path class="st0" d="M413,561.8c0-0.3-0.2-0.5-0.4-0.7c-0.4-0.3-1-0.3-1.4,0.1c-0.2,0.2-0.2,0.5-0.3,0.8c-0.1,0.1-0.2,0.2-0.4,0.3
		c-0.5,0.2-1,0.4-1.4,0.6c-0.4,0.1-0.8,0.2-1.1,0.4c-0.3,0.1-0.6,0.3-0.6,0.6c-0.3,1.3,1.7,1.6,2.5,1.4c0.6-0.2,1.1-0.2,1.7-0.1
		c0.4,0.1,0.7,0.1,1,0c0.5-0.1,1.1-0.3,1.3-0.8c0.2-0.4,0-1.4-0.2-1.8C413.6,562.3,413.3,562,413,561.8z"/>
	<path class="st0" d="M415.9,565.5c-0.1,0.2-0.1,0.3,0,0.5c0.1,0.4,0.5,0.5,0.9,0.5c0.7,0.1,1.9-0.3,1.6-1.2
		c-0.1-0.2-0.3-0.3-0.3-0.5s0.1-0.4,0.1-0.6c0-0.4-0.3-0.2-0.6-0.4l-0.1,0.5l0,0c-0.8,0-1.5,0.2-1.4,1c0,0.2,0.1,0,0,0.2
		C416.1,565.6,416,565.4,415.9,565.5z"/>
	<path class="st0" d="M413.2,572c-0.5-0.2-0.9-0.1-1.4-0.4c-0.3-0.2-0.5-0.4-0.8-0.5c-0.7-0.1-1.6,0.3-2.2,0.7
		c-0.2,0-0.3,0.1-0.5,0.2c-0.1,0.1-0.2,0.1-0.3,0.3c-0.2,0.5,0.5,1.1,0.9,1.3c0.3,0.2,0.7,0.2,1.1,0.3c0.6,0.1,0.9,0.6,1.4,0.8
		c0.1,0,0.2,0.1,0.3,0.1c0.2,0.2,0.5,0.2,0.8,0.2c0.4,0,0.6-0.2,0.8-0.5C414.1,573.9,414.3,572.5,413.2,572z"/>
	<path class="st0" d="M411.8,578.9c1.2-0.2,2-1.5,1-1.9c0-0.1-0.1-0.1-0.1-0.1c-1-0.1-2-0.1-3-0.2c-0.8-0.1-1.1-0.1-1.9-0.6
		c-0.2-0.1-0.1-0.2-0.4-0.3c-0.9-0.3-1.6,0.2-2.3,0.7c-0.1,0.1-0.1,0.4,0.1,0.4c0.5,0.2,0.9,0.2,1.4,0.3c0.2,0,0.4,0.1,0.5,0.1
		c0.1,0.1,0.3,0.2,0.4,0.2c0.6,0.3,1.1,0.8,1.7,1.1c0.1,0,0.1,0.1,0.2,0.1C410.1,579.1,411,579.1,411.8,578.9z M405.8,576.7
		L405.8,576.7L405.8,576.7L405.8,576.7z M405.9,576.7C406,576.7,406,576.7,405.9,576.7C406,576.7,406,576.7,405.9,576.7
		C406,576.7,406,576.7,405.9,576.7z"/>
	<path class="st0" d="M415,584.5c-0.1-0.3-0.3-0.5-0.2-0.8c0-0.2,0.2-0.2,0.1-0.4c0-0.4-0.3-0.5-0.5-0.6c0,0,0,0-0.1-0.1
		c-0.2-0.2-0.4-0.2-0.6-0.2c0,0,0,0-0.1,0c-0.2,0-0.5,0.1-0.7,0.1s-0.5,0-0.7,0.1c-0.1,0-0.1,0-0.2,0c-0.4,0-0.8-0.2-1.2-0.2
		c-0.4,0-0.7,0.2-0.7,0.6c0,0.7,1,0.8,1.4,1.2c0.4,0.5,0.4,1,1.1,1.2C413.2,585.7,415.3,585.6,415,584.5z"/>
	<path class="st0" d="M421.9,535.1c0.1-0.1,0.1-0.2,0.1-0.3c0.2-0.2,0.4-0.4,0.7-0.6c0.4-0.3,0.9-0.4,1.2-0.7c0.1,0,0.1-0.1,0.2-0.2
		c0.2,0,0.3,0,0.6-0.4c0.4-0.6,0.4-1.7,0.4-2.4c0.1-1.7-0.1-2.9,1-4.3c0.1-0.1,0.2-0.2,0.3-0.2c0.1-0.1,0.1-0.2,0-0.3
		c0-0.2-0.3-0.3-0.4-0.1c-0.2,0.2-0.4,0.4-0.6,0.7c-0.7,0.6-1.2,1.4-1.8,2.2c-0.9,1.2-2.3,2.1-3,3.5c-0.4,0.8-0.3,1.8-0.6,2.7
		c-0.4,1.1-1.1,1.9-1.7,2.8c-0.4,0.7-0.8,1.2-0.6,1.9c-0.1,0.5,0.1,0.6,0.5,0.9c0.1,0.1,0.4,0,0.5,0c0.2,0.1,0.5,1.3,0.9,1.5
		c1.4,0.9,3.8-0.7,3.4-2.4c-0.4-1.6-2.4-0.9-1.7-3.2C421.3,536,421.7,535.3,421.9,535.1z"/>
	<path class="st0" d="M443.7,543.1c0.1,0.2,0.1,0.3,0.3,0.5c0.5,0.3,1.6,0.2,2.1,0c0.3-0.1,0.7-0.4,0.5-0.8
		c-0.1-0.4-0.5-0.4-0.7-0.7c0,0,0,0,0-0.1s0-0.1-0.1-0.2c0-0.1-0.1-0.1-0.1-0.2c-0.1-0.3,0.3-0.3,0.4-0.7c0-0.1,0-0.2,0-0.3
		s0-0.2,0-0.2c-0.1-0.3-0.3-0.8-0.6-0.9c-0.4-0.2-0.9,0.1-1.3,0.3c-0.2,0.1-0.6,0.3-1,0.5c-0.2,0.1-0.4,0.2-0.6,0.3
		c-0.4,0.4-0.2,1,0.2,1.4C443.2,542.5,443.5,542.6,443.7,543.1z"/>
	<path class="st0" d="M319.6,570.8c0.1-0.2,0.1-0.3,0-0.5s-0.3-0.4-0.6-0.4c-0.4,0-0.5,0.4-0.6,0.8c-0.6,0.7-1.1,1.2-1.8,1.8
		c0,0-0.1,0-0.1,0.1c-0.5,0.2-0.8,0.4-1,0.7c-0.3,0.2-0.6,0.5-0.8,0.7c-0.2,0.2-0.3,0.4-0.4,0.6c-0.2,0.3-0.4,0.6-0.6,0.9
		c-0.6,1-0.8,2.1,0.1,2.7c0.1,0.2,0.2,0.3,0.3,0.5c0,0.1,0.1,0.2,0.1,0.2c0.1,0.1,0,0.3,0.1,0.5c0.2,0.3,0.4,0.5,0.8,0.3
		c0.3-0.1,0.4-0.3,0.5-0.6c0.2-0.5,0-1.7,0.1-2.2c0.2-0.9,0.6-1.7,1.1-2.4c0.2-0.3,0.5-0.6,0.8-0.8s0.5-0.4,0.7-0.7
		C319.1,572.5,319.7,571.8,319.6,570.8z"/>
	<path class="st0" d="M322.3,583.8c0-0.2,0-0.3-0.1-0.5l-0.1-0.1c0-0.1-0.1-0.2-0.1-0.3c-0.3-0.6-0.4-1-0.4-1.5c0-0.1,0-0.1,0-0.2
		c0-0.4,0.1-0.7,0.1-1.1c0.1-0.6,0.4-1.3,0.1-1.9c-0.3-0.8-1.8-1.4-2.3-0.5c-0.1,0.2,0.1,0.4,0.3,0.3c0.6,0.8,0.1,2,0.1,3
		c0,0.6,0.1,1.3,0.3,1.8c0.3,0.9,0.9,1.4,1.9,1.4C322.2,584.3,322.4,584.1,322.3,583.8C322.3,583.9,322.3,583.8,322.3,583.8z"/>
	<path class="st0" d="M349.3,589.4c0-0.4,0-0.9-0.2-1.3c-0.4-0.7-1.2-0.6-1.6,0c-0.5,0.7-0.9,1.8-0.6,2.7c0.1,0.3,0.3,0.5,0.5,0.7
		c0.3,0.6,1.2,1,1.8,0.6c0.4-0.2,0.5-0.6,0.5-1.1c0-0.4-0.1-0.7-0.3-1C349.3,589.9,349.3,589.6,349.3,589.4z"/>
	<path class="st0" d="M310,578.1c0.3,0.1,0.6-0.1,0.7-0.3c0.3-0.5,0.1-1.3,0.3-1.9c0.2-0.4,0.4-0.8,0.7-1.2c0.1-0.1,0.3-0.3,0.4-0.5
		c0.1,0,0.2,0,0.2-0.1c0.1-0.3,0.1-0.6-0.2-0.8c-0.3-0.2-0.7-0.1-1,0.1c-0.2,0.1-0.3,0.2-0.5,0.4c-0.5,0.3-0.8,0.7-0.9,1.4
		s-0.2,1.4-0.1,2.1C309.6,577.6,309.6,577.9,310,578.1z M311.7,573.7C311.7,573.8,311.7,573.8,311.7,573.7
		C311.7,573.8,311.7,573.8,311.7,573.7C311.7,573.8,311.7,573.8,311.7,573.7z"/>
	<path class="st0" d="M331.7,559.5c0.9,0.1,1.3-0.7,1.6-1.4c0.1-0.4,0.3-0.7,0.5-1.1c0.5-0.9,1-1.8,1.1-2.1c0.5-1.2,0.9-2,2-2.8
		c0.6-0.4,1.2-0.9,1.7-1.4c0.6-0.6,1.7-1.4,1.3-2.4c-0.1-0.2-0.3-0.3-0.5-0.2c-2.1,1.3-4.3,2.7-5.2,5.1c-0.4,1.1-1.2,1.6-1.8,2.5
		c-0.3,0.3-0.6,0.6-0.8,1c-0.3,0.3-0.5,0.8-0.7,1.2C330.6,558.5,330.8,559.4,331.7,559.5z"/>
	<path class="st0" d="M365.4,553.1c-0.3-0.6-0.6-0.7-1.2-1c-0.6-0.2-1.6-0.7-2.3-0.6c-0.2-0.1-0.7-0.3-0.9-0.1
		c-0.4,0.3-0.3,0.8-0.1,1.2c0,0.1,0,0.1,0,0.2c0.1,0.4,0.6,0.6,0.8,0.9c0.2,0.3,0.4,0.5,0.7,0.7l0,0c0.2,0.2,0.2,0.3,0.5,0.4
		c0.1,0,0.2,0.1,0.3,0.1c0.5,0.2,1.1,0.4,1.6,0.3c0.6,0.2,1.2,0.2,1.7-0.2c0.2-0.2,0.2-0.5,0.1-0.7
		C366.6,553.7,365.8,553.8,365.4,553.1z"/>
	<path class="st0" d="M386.6,578.1c-0.1-0.1-0.2-0.2-0.4-0.3c-0.2-0.2-0.2-0.5-0.4-0.8c-0.5-0.8-1.6-0.4-2.2-1.1
		c-0.1-0.1-0.2-0.1-0.2,0c-0.3,0.1-0.5,0.4-0.5,0.7c0,0.1,0,0.1,0.1,0.2c0,0.1,0,0.1,0.1,0.2l0.1,0.1c0.1,0.1,0.1,0.1,0.2,0.2
		c0.1,0.2,0.1,0.3,0.2,0.5c-0.1,0.2-0.1,0.5,0.1,0.7c0.1,0.1,0.2,0.2,0.3,0.3c0,0,0,0.1,0.1,0.2c0.1,0.2,0.2,0.6,0.4,0.7
		c0.1,0,0.2,0,0.3,0c0.1,0,0.3,0.1,0.4,0.1c0.5,0,1,0,1.4-0.4c0.1,0,0.3-0.1,0.3-0.2c0.1-0.2,0-0.5-0.2-0.7
		C386.7,578.3,386.6,578.2,386.6,578.1z M383.5,576.4L383.5,576.4L383.5,576.4L383.5,576.4z"/>
	<path class="st0" d="M414.7,577.3c-0.1,0.3,0,0.5,0.2,0.6c0.1,0.1,0.2,0.1,0.3,0.1c0,0.1,0,0.2,0,0.3c0.1,0.2,0.3,0.5,0.6,0.4
		c0.2,0,0.5-0.1,0.7-0.2c0.3-0.1,0.5-0.2,0.7-0.4c0.3-0.4,0.3-0.9,0-1.3c0-0.1-0.1-0.2-0.1-0.3c-0.2-0.2-0.5-0.2-0.8-0.2
		s-0.5,0.1-0.7,0.2c-0.1,0-0.1,0.1-0.2,0.1h-0.1c0,0-0.1,0-0.1,0.1C414.9,577,414.7,577.1,414.7,577.3z"/>
	<path class="st0" d="M327.5,575.6c-0.2-0.4-0.7-0.4-1-0.1c-0.1,0.1-0.2,0.3-0.2,0.4c-1.1,0.9-1.1,2.6-1.2,3.9c0,0.1,0,0.1,0,0.2
		c-0.1,1.1-0.3,2.6,0.1,3.7c0.4,1.1,1.5,1.6,1.7,0.2c0.1-0.4-0.1-0.7-0.2-1.2c-0.2-1.1-0.1-2.1,0.1-3.2c0.1-0.5,0.1-1.1,0.2-1.6
		c0.2-0.3,0.3-0.6,0.5-1s0.4-1,0.1-1.3C327.6,575.8,327.6,575.7,327.5,575.6z"/>
	<path class="st0" d="M456.2,528.3c-0.2,0-0.4,0-0.7-0.1c-1.6-0.2-1-0.4-2-1c-0.2-0.1-0.4-0.2-0.6-0.3c-0.8-0.2-1.3,0.3-2,0.6
		c-0.7,0.4-1.3,0.5-1.9,0.5c-0.7-0.1-1.5-0.2-2.3-0.3c-0.5-0.1-1-0.1-1.5,0c-0.1,0-0.1,0-0.2,0c-0.2,0-0.4,0.1-0.7,0.3
		c-0.2,0.1-0.4,0.4-0.3,0.6c0,0.1,0,0.2,0,0.3c0,0.2,0.1,0.3,0.2,0.5s0.1,0.4,0.1,0.6c0,0.1,0,0.1,0,0.1c0,0.3,0.2,0.5,0.4,0.6
		c0.1,0.3,0.2,0.6,0.5,0.8c0.6,0.4,1.2-0.1,1.8,0c0.9,0.1,1.6,0.9,2.4,1.3c0.9,0.5,2.4,0.4,3.4,0.1c1.5-0.5,2.5-1.8,4.2-1.8
		c0.9,0,1.1-0.1,1.7-0.5c0.1,0,0.1,0,0.2-0.1c0.1,0,0.1-0.1,0.1-0.1c1.2-0.5,2.5,0.3,3.3-1.1l0.1-0.1c0.1-0.1,0.1-0.3,0.1-0.4
		c0.8-2.4-1.3-1.4-2.8-1.8c-0.1-0.3-0.4-0.7-0.7-1c-0.2-0.2-0.6-0.3-0.9-0.1s-0.4,0.3-0.6,0.5c-0.1,0.2,0,0.3-0.1,0.5
		C457.3,527.7,456.8,528.1,456.2,528.3z"/>
	<path class="st0" d="M428.6,514.7L428.6,514.7c0,0.1,0,0.2,0,0.3c0.4,1.1,2.4-0.9,2.7-1.3c0.7-1.1,0.2-2.3-1.2-2
		c-0.6,0.1-1.2,0.5-1.5,1c-0.1,0.3-0.2,0.6-0.2,0.9c0,0.2,0.1,0.5,0.2,0.8C428.6,514.3,428.6,514.5,428.6,514.7z"/>
	<path class="st0" d="M433,532.4c0.4-0.2,0.7-0.8,0.3-1.2c-0.2-0.2-0.5-0.2-0.7-0.1l0,0c-0.1,0-0.2,0.1-0.3,0.1c0,0-0.1,0-0.1,0.1
		c-0.1,0.1-0.2,0.1-0.3,0.2c-0.2,0.2-0.2,0.4-0.1,0.6C432,532.5,432.6,532.6,433,532.4z"/>
	<path class="st0" d="M424.7,537.7c0.5,0.3,1.3-0.1,1.8-0.4c0.2-0.1,0.5-0.3,0.7-0.5c0.4-0.1,0.8-0.3,1.1-0.5c0.8,0,1.8-0.7,1.5-1.5
		c-0.5-1.3-2.2-0.8-2.9-0.1c-0.4,0.4-0.5,0.9-1,1.1c-0.3,0.2-0.6,0.3-0.9,0.5c-0.2,0.2-0.4,0.4-0.4,0.6c-0.1,0.1-0.1,0.2-0.1,0.4
		C424.5,537.4,424.6,537.6,424.7,537.7z M428.7,534.8c-0.1,0-0.1,0-0.2-0.1C428.7,534.7,428.7,534.7,428.7,534.8z"/>
	<path class="st0" d="M431.2,538.4c-0.1,0.1,0,0.3,0.1,0.4c0.9,0.6,3.1,0.9,3.3-0.6c0.1-0.6-0.2-1.2-0.8-1.3c-0.3,0-0.6,0.1-0.8,0.3
		c-0.2,0.2-0.3,0.3-0.5,0.4C431.9,537.7,431.5,538,431.2,538.4z"/>
	<path class="st0" d="M435.9,532.4c-0.4-0.1-0.7,0.1-0.9,0.4h-0.1c-0.3,0.3-0.1,0.7,0.2,0.8c0.4,0.2,0.9,0,1.1-0.3
		C436.5,533.1,436.3,532.6,435.9,532.4z"/>
	<path class="st0" d="M442.2,534.9c0.1-0.4,0.1-0.7-0.1-0.8c0-0.3-0.2-0.5-0.4-0.6c-0.6-0.6-2.2-0.5-2.7,0c-0.2,0.2-0.3,0.5-0.3,0.8
		c0.1,0.5,0.4,0.8,0.3,1.4c-0.2,0.6,0.1,1,0.7,1.2c0.6,0.1,1.4-0.2,1.9-0.7c0.1-0.1,0.2-0.2,0.2-0.4c0-0.1-0.1-0.4-0.1-0.4
		S442.1,535.2,442.2,534.9z M439.6,534.6L439.6,534.6C439.6,534.5,439.6,534.6,439.6,534.6L439.6,534.6z"/>
	<path class="st0" d="M429.4,539.8c0-0.1-0.1-0.1-0.1-0.2c0-0.2-0.1-0.4-0.3-0.5l0,0l0,0l0,0l0,0l0,0l0,0c-0.4-0.3-1.3,0.1-1.3,0.6
		c0,0.3,0.2,0.4,0.5,0.6c0.3,0.2,0.4,0.5,0.8,0.6c0.2,0.1,0.5,0,0.7-0.2C429.6,540.4,429.5,540.1,429.4,539.8z"/>
	<path class="st0" d="M434.7,541.7c0.4,0.1,0.8,0.1,1.1,0c0.7-0.3,0.1-1.8-0.6-1.5c-0.2,0.1-0.4,0.2-0.6,0.3s-0.5,0-0.7,0.1
		c-0.4,0.1-0.4,0.5-0.1,0.8C434,541.6,434.4,541.7,434.7,541.7z"/>
	<path class="st0" d="M439.8,540.5c0.1-0.1,0.1-0.4,0-0.5c0-0.1-0.1-0.3-0.3-0.3c-0.5,0-0.9,0.1-1.4,0.4c-0.2,0.1-0.2,0.4,0,0.5
		C438.7,540.9,439.4,540.9,439.8,540.5z"/>
	<path class="st0" d="M450.6,547.8c0.3,0.5,0.8,0.9,1.5,0.6c0.6-0.2,0.8-0.9,0.6-1.5c-0.1-0.2-0.2-0.3-0.3-0.4
		c-0.1-0.3-0.4-0.5-0.8-0.6c-0.3,0-0.5,0-0.8,0.1c-0.4,0.1-0.8,0.1-1.3-0.1c-0.3-0.1-0.5,0.3-0.4,0.5c0.1,0.3,0.3,0.4,0.6,0.6
		C450.2,547.2,450.4,547.4,450.6,547.8z"/>
	<path class="st0" d="M435.3,554.4c-0.2-0.2-0.4-0.3-0.5-0.7l0.1-0.7c0-0.4-0.2-0.7-0.4-1c-0.4-0.5-1.1-1.1-1.8-1.2
		c-0.5-0.3-1.2-0.3-1.8-0.1c-0.6,0.2-1.2,0.7-0.7,1.3c0.8,1,2.8,0.4,2.5,2.5c0,0.3-0.3,0.3-0.1,0.6c0.1,0.3,0.6,0.4,0.8,0.5
		C434.4,556.1,436.4,555.7,435.3,554.4z M433.4,552.1L433.4,552.1L433.4,552.1L433.4,552.1z"/>
	<path class="st0" d="M424.6,557.1c0-0.9-0.3-1.9-1.2-2.3c-0.6-0.3-2.4-0.9-3-0.5c-0.3,0.2-0.4,0.6-0.2,0.9l0,0
		c0,0.2,0.1,0.4,0.3,0.5h0.1c0,0,0,0.1,0.1,0.1l0,0c0.5,0.7,1,0.1,1.4,1.3c0.1,0.6-0.2,1.5-0.1,2.1s0.5,1.2,0.6,2c0,0.1,0,0,0,0
		c0,0.1,0,0,0,0l0,0c0.1,3,0.7,3,0.8,0l0,0v0.1v0.1c0-0.1,0-0.1,0-0.1c0-1.2,0.2-1.7,0.7-2.7C424.4,558.2,424.6,557.7,424.6,557.1z"
		/>
	<path class="st0" d="M440.5,563.9L440.5,563.9c-0.3-0.3-0.6-0.3-1-0.3h-0.1c-0.7,0.1-1.3,0.4-1.9,0.9c-0.5,0.4-0.9,0.8-1.3,1.2
		c-0.3,0.2-0.7,0.3-1,0.5c-0.3,0.3-0.4,0.6-0.1,0.9c0.5,0.5,1.8,0.1,2.3,0.1c0.7-0.1,1.1-0.3,1.7-0.8c0.5-0.5,1.5-0.7,1.8-1.4
		C441.1,564.4,440.8,564.1,440.5,563.9z"/>
	<path class="st0" d="M442,567.2c-0.1,0-0.3,0.1-0.5,0.1c-0.1,0-0.2,0-0.2,0c-0.2,0-0.3,0.1-0.4,0.2c-0.3,0.2-0.4,0.4-0.3,0.7
		c0.1,0.2,0.3,0.3,0.4,0.4c0.2,0.2,0.4,0.5,0.7,0.5c0.2,0.1,0.5-0.1,0.7-0.2c0.1,0,0.2-0.1,0.2-0.1c0.1-0.1,0.3-0.3,0.4-0.5
		c0.4-0.4,0.8-1,0.6-1.5C443.4,566.5,442.6,566.9,442,567.2z"/>
	<path class="st0" d="M464.4,554.6c-3.1,1.1-6.1,2.5-9.4,2.6c-0.2,0-0.4,0-0.7,0c-1.2-0.3-4-1.1-4.3,0.4c-0.2,0.9,0.9,1.2,2,1.2
		c1.1,0.3,2.3,0.6,3.4,0.6c1.1,0.3,2.2,0.2,3.3-0.7c1.4-1.3,2.7-1.4,4.3-2.2c0.8-0.4,1.3-0.8,1.7-1.6
		C464.7,554.7,464.6,554.5,464.4,554.6z"/>
	<path class="st0" d="M461.8,567.4L461.8,567.4c-3-1.2-5.6,0.8-7.8,2.9c-0.6,0.5-1.1,1-1.5,1.6c-0.1,0.2-0.3,0.3-0.4,0.4
		c-0.3,0.2-0.6,0.3-0.9,0.6c0,0,0,0.1,0,0.2c0.4,0.8,1.7,0.6,2.9,0.1c2.2-0.3,3.4-2.7,5.4-3.8c0.5-0.1,1.3-0.1,1.8-0.3
		c0.2-0.1,0.3-0.3,0.4-0.4c0.2-0.1,0.5-0.2,0.7-0.4c0.1-0.1,0.1-0.2,0-0.3C462.2,567.5,462.2,567.6,461.8,567.4z M452.1,572.7
		c0,0,0-0.1,0.1-0.1l0,0l0,0C452.2,572.6,452.2,572.6,452.1,572.7L452.1,572.7z"/>
	<path class="st0" d="M449.4,573.4c0.2-0.7,0.3-1.3,0.9-1.9c0.5-0.6,1.1-1.1,1.5-1.8l0,0c0.1,0,0.2-0.2,0.1-0.4
		c0-0.1-0.1-0.1-0.1-0.2c-0.1-0.1-0.2-0.1-0.3-0.1c-1,0.2-1.7,1.5-2.2,2.3c-0.4,0.7-0.6,1.5-1.1,2.2c-0.6,0.9-1.6,1.4-2.4,2.2
		c-0.3,0.3-1,1-0.8,1.5c-0.1,0.3-0.2,0.6,0.2,0.8c0.6,0.3,1.3-0.4,1.7-0.7c0.3-0.4,0.6-0.8,0.9-1.1c0.4-0.5,0.8-0.8,1.3-1.2
		C449.5,574.5,449.8,574,449.4,573.4z M449,573.2C449,573.2,448.9,573.2,449,573.2C449,573.1,449,573.1,449,573.2
		C449,573.1,449,573.1,449,573.2z"/>
	<path class="st0" d="M453.5,577.7c0.3,0,0.7-0.1,1-0.3c0.7-0.4,1-1.2,0.8-2c-0.1-0.2-0.3-0.2-0.4-0.1c-0.4,0.4-0.9,0.8-1.5,1
		s-1,0-1.6,0.1c-0.4,0-0.7,0.2-0.9,0.4c-0.6,0.2-1.3,0.5-1.3,0.9c0,0.3,0.3,0.5,0.6,0.5C451,579.2,452.4,578.4,453.5,577.7z
		 M454.8,576.2L454.8,576.2C454.8,576.2,454.8,576.1,454.8,576.2C454.8,576.1,454.8,576.2,454.8,576.2z M454.8,576
		C454.8,576,454.8,576.1,454.8,576C454.8,576.1,454.8,576,454.8,576L454.8,576z"/>
	<path class="st0" d="M455.2,581c-0.7,0.1-1.2,0.4-1.7,0.9c-0.8,0.4-1.6,0.8-2.1,1.3c-0.2,0.2-0.3,0.5-0.4,0.8s-0.3,1.4-0.1,1.8
		c0.1,0.3,0.1,0.1,0.3,0.3c0.1,0.1,0.3,0.2,0.4,0.3c0,0.1,0,0.2,0,0.3c0.1,0.1,0.1,0.2,0.2,0.2c0.4,0.4,1.2,0.1,1.5-0.2
		c0.2-0.2,0.2-0.5,0.3-0.8c0.4-0.7,0.8-1.5,1.4-2c0.1-0.1,0.2-0.1,0.3-0.2l0.1-0.1c0.3-0.1,0.7-0.3,0.9-0.5c0.4-0.2,0.6-0.6,0.6-1
		C456.7,581.2,455.8,580.9,455.2,581z M451.4,585.7c-0.1,0-0.1-0.1-0.1-0.1C451.3,585.6,451.3,585.7,451.4,585.7L451.4,585.7z"/>
	<path class="st0" d="M464.6,583.2c0.3-0.4,0.2-0.8-0.3-1.1c-0.2-0.1-0.4-0.1-0.7-0.1c-0.1,0-0.2,0-0.3,0c-0.3,0.1-0.6,0.2-0.9,0.3
		h-0.1c-0.7,0.2-1.2,0.5-1.6,1.2c-0.5,0.9-1,1.4-1.8,2c-0.4,0.3-0.9,0.6-1.2,1c-0.5,0.5-0.9,1.3-0.5,1.9c0.3,0.5,1,0.7,1.5,0.5
		c0.4-0.2,0.5-0.5,0.7-0.9c0.4-0.8,0.6-1.5,1.3-2.1c0.7-0.7,1.5-1.2,2.3-1.7C463.5,584,464.3,583.6,464.6,583.2z"/>
	<path class="st0" d="M468.2,588.7c-1,0.2-1.8,0.6-1.3,1.1c0.5,0.4,1.4,0.2,1.9-0.1c0.1,0,0.2-0.1,0.2-0.2c0.2-0.1,0.4-0.2,0.6-0.3
		c0.2,0,0.3,0,0.5-0.1s0.3-0.2,0.4-0.3l0.1-0.1c0.2-0.5-0.3-0.9-0.8-0.8c-0.4,0-0.6,0.3-0.9,0.5
		C468.6,588.5,468.4,588.6,468.2,588.7z"/>
	<path class="st0" d="M415.5,570c-0.3,0.1-0.5,0.4-0.4,0.7c0.1,0.4,0.4,0.6,0.8,0.7c0.4,0.1,0.4,0.3,0.6,0.6
		c0.1,0.1,0.2,0.2,0.4,0.2c1,0.2,1.2-0.9,1.1-1.7c-0.1-0.9-1-0.7-1.6-0.4C416.1,570.1,415.8,570,415.5,570z M417.3,571.8
		L417.3,571.8L417.3,571.8L417.3,571.8z"/>
	<path class="st0" d="M420.6,582c-0.6-0.7-1.5-0.3-2,0.3c-0.3,0.1-0.6,0.2-0.8,0.5c0,0.1-0.1,0.1-0.1,0.2c-0.1,0.3,0,0.6,0.1,0.8
		c0.2,0.4,0.5,0.4,0.8,0.3c0.4-0.1,0.7-0.1,1.1-0.1c0.2,0,0.4,0.1,0.6,0.1C421.5,583.9,421.1,582.5,420.6,582z"/>
	<path class="st0" d="M418.4,588.7c-0.5-0.4-1.3-0.6-1.8-0.2c-0.3,0.2-0.3,0.5,0,0.7s0.6,0.3,0.8,0.6c0.1,0.3,0.1,0.6,0.3,0.9
		c0.4,0.6,1.8,0.4,2-0.3S419.2,588.9,418.4,588.7z"/>
	<path class="st0" d="M411.6,587.4c-0.2-0.1-0.1-0.1-0.1-0.3c0-0.1,0-0.2-0.1-0.2c-0.1-0.1-0.3-0.2-0.4-0.2
		c-0.3-0.1-0.8-0.2-1.1,0.1c-0.3,0.3-0.1,0.8,0,1.1s0.3,0.8,0.7,0.9c0.2,0,0.5,0,0.7-0.1c0.3,0.1,0.6,0.1,0.9-0.1
		c0.2-0.2,0.4-0.5,0.3-0.8C412.2,587.4,411.9,587.5,411.6,587.4z M410.2,587.2L410.2,587.2L410.2,587.2L410.2,587.2z"/>
	<path class="st0" d="M472.2,591.6c-0.3,0-0.6,0-0.9,0.2c-0.2,0.1-0.4,0.3-0.3,0.5c0.1,0.6,0.8,0.4,1.2,0.3c0.3-0.1,1.1-0.5,0.7-0.9
		C472.7,591.6,472.4,591.6,472.2,591.6z"/>
	<path class="st0" d="M447.8,564.3c0.7,0,1.5-0.7,1.8-1.3c0.1-0.3,0.1-0.7-0.2-0.9c-0.3-0.2-0.6-0.3-1-0.2c-0.2,0-0.5,0.1-0.7,0.2
		c0,0,0,0-0.1,0c-0.5,0.1-0.9,0.4-1,1C446.5,563.9,447.1,564.4,447.8,564.3z"/>
	<path class="st0" d="M443.5,553.3c-0.7-0.2-1-0.6-1.4-1.2c-0.5-0.7-1.3-0.9-2.1-1.1c-0.4-0.1-1.2-0.2-1.5,0.3
		c-0.2,0.3-0.1,0.6,0.2,0.9c0,0.1,0,0.1,0,0.2c1.3,0.7,0.5,2.2,2,2.5c1.3,0.2,2.8-0.3,4-0.7c0.2-0.1,0.2-0.3,0-0.4
		C444.3,553.5,443.9,553.5,443.5,553.3z M444.1,554L444.1,554L444.1,554L444.1,554z"/>
	<path class="st0" d="M455.3,537.1c-0.4-0.4-1-0.6-1.6-0.5c-0.4,0.1-1.2,0.3-1.2,0.8c0,0.2,0.1,0.4,0.3,0.5c0.4,0.6,0.5,1.1,0.6,1.8
		c0.1,0.5,0.2,1.1,0.8,1.3c0.6,0.2,1.7,0.1,2.3-0.2c0.6-0.3,0.6-1.2,0.2-1.7c0,0,0-0.1-0.1-0.1C455.9,538.6,455.9,537.7,455.3,537.1
		z"/>
	<path class="st0" d="M462.6,517.5c-0.3,0.3-0.1,0.4-0.7,0.8c-0.4,0.2-0.8,0.4-1.2,0.6c-0.5,0.2-1,0.5-1.3,0.8
		c-0.1,0.1-0.2,0.2-0.3,0.2c-0.5,0.3-0.7,0.8-0.2,1.5c0.3,0.4,1,0.7,1.6,0.5c0.2-0.1,0.4-0.2,0.6-0.4c0,0,0,0,0.1-0.1
		c0.3-0.3,0.4-0.4,0.7-0.4c0.3,0.1,0.7,0.2,0.8,0.1c0.3-0.1,0.2-0.2,0.4-0.3c0.4-0.1,0.8-0.3,1.2-0.5c0,0,0.1,0,0.3-0.1
		c1-0.6,1-1.7,0.2-2.6C463.9,516.9,463.3,516.8,462.6,517.5z"/>
	<path class="st0" d="M472.1,528.3c-0.5-0.6-1-0.8-1.7-0.5c-0.3,0.1-0.4,0.3-0.7,0.2c-0.1,0-0.2-0.1-0.3-0.1c-0.3,0-0.4,0.1-0.6,0.3
		c-0.3,0.3-1.1,1.5-0.8,2.1c0.2,0.4,0.7,0.4,0.9,0.7c0.2,0.4,0.1,1,0.4,1.5c0.3,0.6,1,0.8,1.5,0.4c0.3-0.2,0.4-0.4,0.5-0.7
		c0.1-0.4,0-0.5,0.3-0.8c0.2-0.3,0.4-0.2,0.7-0.4C473.2,530.5,473.3,528.5,472.1,528.3z M470.9,532L470.9,532L470.9,532L470.9,532z"
		/>
	<path class="st0" d="M435.2,519.3c-0.3,0.4,0.1,1,0.5,1.1c0.9,1.1,3.5-1.3,4.1-1.5c1-0.3,1.7-0.2,2.5-1c1.2-1.1,1.5-2.6,2.8-3.7
		c0.9-0.7,2-1.3,2.4-2.3c0.6-1.4,0.4-3.4,0.4-4.8c0.1-2.4,0-4.7,1.7-6.6c0.7-0.8,1.3-1.4,1.6-2.4V498l0,0c0.2-0.2-0.1-0.4-0.3-0.3
		c-1.8,1.6-2.9,3.7-3.8,6c-0.3,0.7-0.6,1.5-0.6,2.3c0,0.1,0.1,0.2,0.1,0.2c-0.1,1-0.6,2-0.5,3.1c0,0.2,0,0.7,0.1,1
		c0,0.3,0,0.5-0.1,0.7c-0.4,1.3-1.2,1.9-2.3,2.5c-0.2,0.1-0.3,0.2-0.5,0.2c-0.2,0.1-0.3,0.1-0.5,0.2c-1.1,0.5-2.2,0.9-3.2,1.5
		c-0.8,0.4-1.7,1-2.3,1.6C436.6,517.5,435.9,518.2,435.2,519.3z M447.5,506.7C447.5,506.8,447.5,506.8,447.5,506.7L447.5,506.7
		L447.5,506.7z"/>
	<path class="st0" d="M386,598.7c-0.1-0.1-0.3-0.1-0.4,0.1c-0.1,0.1-0.1,0.1-0.2,0.2c-0.1,0.1-0.2,0.2-0.3,0.5c0,0.1,0,0.2-0.1,0.3
		c-0.1,0.2-0.3,0.6-0.3,0.9c-0.4,0.5-0.9,0.9-1.3,1.4c-0.3,0.4-0.5,0.8-0.8,1.3c-0.5,0.8-0.9,1.2-1.7,1.7c-0.6,0.4-0.8,1.2,0.1,1.3
		c1.5,0.1,2.8-2.2,3.4-3.2c0.6-0.9,1.7-2.1,1.9-3.2C386.6,599.3,386.5,599,386,598.7z"/>
	<path class="st0" d="M392.2,598.1h0.7l0,0c0-0.1-0.8-0.2-0.9-0.2c-0.3,0.1-0.9,0.2-1.1,0.4h-0.2c-0.3,0.2-0.7,0.4-0.9,0.7
		c-0.1,0.2-0.3,0.5-0.5,0.7c-0.3,0.4-0.7,0.9-0.9,1.3c-0.2,0.2-0.3,0.5-0.4,0.8c0,0.1,0,0.1-0.1,0.2c-0.1,0.1-0.2,0.3-0.2,0.4
		c-0.2,0.4-0.6,1.6,0.3,1.5c0.2,0,0.4-0.2,0.5-0.4s0-0.5,0-0.7c0-0.6,0.2-1.1,0.6-1.6c0.2-0.2,0.4-0.4,0.6-0.7
		c0.4-0.4,0.8-0.9,1.2-1.3c0.3-0.3,0.6-0.6,0.6-1c0,0,0.4-0.1,0.3-0.1C391.9,598.1,392.2,598.1,392.2,598.1z M390.7,598.6
		L390.7,598.6c0.1-0.1,0.1-0.1,0.2-0.2C390.8,598.5,390.7,598.6,390.7,598.6z"/>
	<path class="st0" d="M396.1,598.5c0-0.4-0.4-0.7-0.8-0.8s-0.7,0.1-1,0.4c-0.7,0.4-1.5,0.9-1.8,1.5c-0.1,0.1-0.2,0.2-0.2,0.4
		c-0.1,0.3-0.1,0.5,0,0.6c0.2,0.7,1.1,0.7,1.5,0c0.2-0.4,0.3-0.8,0.8-1c0.3-0.1,0.6-0.1,0.9-0.2
		C395.7,599.2,396.1,598.9,396.1,598.5z"/>
	<path class="st0" d="M414.6,591.8c0.3,0,0.8,0,0.9-0.3c0-0.2-0.1-0.3-0.2-0.4c0-0.1-0.1-0.1-0.2-0.2c-0.1,0-0.2,0-0.3,0
		c-0.1-0.1-0.3-0.2-0.4-0.3c-0.2-0.1-0.4,0-0.6,0c-0.4,0.1-0.9,0.3-0.8,0.8c0.1,0.4,0.5,0.6,0.9,0.5
		C414,592,414.2,591.9,414.6,591.8C414.5,591.8,414.5,591.8,414.6,591.8z"/>
	<path class="st0" d="M421.7,588.6c0.2-0.4,0.2-1-0.1-1.3c-0.4-0.5-1.3-0.5-1.5,0.1l-0.1,0.1c-0.1,0.1-0.1,0.2-0.1,0.3l0,0
		c0,0.3,0.2,0.5,0.5,0.6l0,0c0,0.1,0,0.2,0.1,0.3c0.1,0.3,0.4,0.4,0.7,0.3C421.5,588.9,421.6,588.8,421.7,588.6z M420.9,588.1
		C420.9,588.2,420.9,588.2,420.9,588.1C420.9,588.2,420.9,588.2,420.9,588.1C420.9,588.2,420.9,588.1,420.9,588.1L420.9,588.1z"/>
	<path class="st0" d="M467.5,549c0.2-0.7,0.1-1-0.7-1.2c-0.3,0-0.8,0.2-1.2,0.5c-0.9,0.2-2,1.2-2.5,1.6c-0.4,0.3-0.9,0.6-1.3,0.9
		c-0.9,0.3-1.8,0.6-2.6,0.9c-0.4,0.1-0.9,0.2-1.3,0.3l0,0c-1,0-2.1,0.1-3.1,0.3c-0.7,0.2-1.3,0.5-1.7,1.2c-0.2,0.2-0.2,0.3-0.2,0.5
		v0.1c0.3,0.9,2,0.6,2.7,0.4c0.9-0.2,1.7-0.6,2.4-1.1c1.3-0.4,2.5-0.8,3.7-1.5c0.1-0.1,0.3-0.2,0.4-0.3c0.8-0.2,1.6-0.4,2.4-0.8
		c0.1-0.1,0.2-0.1,0.4-0.2C466.2,550.1,467.3,549.6,467.5,549z"/>
	<path class="st0" d="M459.7,573.2c-0.1,0.1-0.2,0.1-0.3,0.2c-0.2,0.3,0,0.6,0.3,0.7c0.2,0.1,0.6,0,0.8-0.1c0.1-0.1,0.2-0.2,0.2-0.4
		c0.1,0,0.2,0,0.2,0.1c0.1,0,0.2,0.1,0.2,0.1c0.2,0.1,0.4,0.2,0.7,0.2c0.2,0,0.3-0.1,0.4-0.3l0,0c0.1-0.1,0.2-0.2,0.3-0.3
		c0.2-0.3,0.3-0.8,0.1-1.2c-0.2-0.3-0.5-0.2-0.8-0.1C461.3,572.1,460,572.5,459.7,573.2z M461.3,573.4h0.1l0,0
		C461.4,573.4,461.4,573.4,461.3,573.4z"/>
	<path class="st0" d="M457.4,580C457.4,580,457.5,580,457.4,580C457.5,580,457.5,580,457.4,580C457.5,580,457.5,580,457.4,580
		c0.1,0,0.2,0,0.3,0c0.5,0,1-0.1,1.3-0.3s0.3-0.4,0.4-0.7c0.3-0.6,0.5-1,1.3-1.1l0.9,0.1c0.7,0,1.9-0.1,2.3-0.8
		c0.3-0.5-0.1-1.4-0.6-1.7s-0.9-0.2-1.3,0c-1.1,0.1-2.3,0.4-3.3,0.9c-0.6,0.3-1.1,0.8-1.6,1.2c-0.3,0.3-1.1,0.7-1.2,1.1
		C455.8,579.5,456.6,579.9,457.4,580z"/>
	<path class="st0" d="M464.7,589.1c0-0.4-0.4-0.7-0.8-0.8c-0.2,0-0.3-0.1-0.5,0c-0.3,0-0.7,0.1-0.9,0.2c-0.5,0.1-1.1,0.4-1.4,0.8
		c-0.2,0.2-0.4,0.4-0.4,0.7c0,0.1,0,0.2,0.1,0.2v0.1c0,0.3,0.3,0.5,0.6,0.5c0.1,0,0.3,0.1,0.5,0.1c0.8-0.1,1.3-0.7,2-1
		C464.3,589.6,464.7,589.5,464.7,589.1z"/>
	<path class="st0" d="M466.7,586.5c0.4,0.1,0.9,0.2,1.3,0.1c0.3-0.1,0.4-0.3,0.3-0.5c0-0.2-0.1-0.3-0.2-0.4
		c-0.1-0.1-0.2-0.2-0.2-0.2c-0.5-0.4-1.3-0.5-1.7,0l0,0c-0.1,0.1-0.3,0.4-0.2,0.7C465.9,586.5,466.5,586.4,466.7,586.5z"/>
	<path class="st0" d="M467.6,592.2c-0.2-0.1-0.4,0.1-0.6,0.1c0,0,0,0-0.1,0c-0.9-0.1-1.9-0.1-2.6,0.6c-0.1,0-0.1,0.1-0.2,0.1
		c-0.1,0.1-0.1,0.3-0.1,0.4c0,0.1,0.1,0.1,0.2,0.2c0,0,0,0.1,0.1,0.1c0.2,0.2,0.4,0.1,0.6,0.1c0.4,0,0.5,0.3,0.7,0.5
		c0.3,0.3,0.8,0.4,1.2,0.2c0.5-0.2,0.8-0.8,0.9-1.3C467.8,593.1,468,592.4,467.6,592.2z"/>
	<path class="st0" d="M470.1,489.4c0.5,0,1-0.1,1.2-0.5s0.4-0.6,0.7-0.8c0.3-0.2,0.5-0.5,0.7-0.7c0.3-0.4,0.8-1,0.6-1.6
		c-0.1-0.3-0.4-0.4-0.7-0.3c-0.1,0-0.1,0-0.2,0c-0.4,0-0.7,0.3-1,0.6c-0.3,0.4-0.4,0.7-0.8,1c-0.3,0.3-0.6,0.4-1,0.6
		c-0.3,0.2-0.9,0.6-0.8,1C469,489.3,469.7,489.4,470.1,489.4z"/>
	<path class="st0" d="M462.8,495.7c0.3,0,0.5,0,0.7,0.2c0.1,0.1,0.2,0.2,0.3,0.3c0.4,0.2,0.9,0.1,1.3-0.2c0.8-0.6,1.3-1.8,1.3-2.8
		c0.1-0.3,0-0.6-0.1-0.8c-0.2-0.3-0.5-0.4-0.7-0.3c0,0-0.1,0-0.1-0.1c-0.5-0.1-1.3,0.3-1.5,0.9v0.1c-0.1,0.1-0.3,0.3-0.4,0.4
		c-0.4,0.3-0.8,0.6-1,1c-0.2,0.3-0.4,0.8-0.2,1.1C462.4,495.7,462.6,495.7,462.8,495.7z"/>
	<path class="st0" d="M472.4,493.4c-0.6,0.4-1.1,1-1.1,1.7c0,0.2,0,0.3,0.1,0.5c0,0.3-0.1,0.5,0,0.7c0.2,0.8,0.9,0.9,1.7,0.8
		c1.3-0.2,1.4-1.4,2.4-2.1c1.2-0.9,2.5-0.8,3.4-2.1c0.3-0.4,0.5-1.1-0.1-1.3c-0.2-0.1-0.5-0.1-0.8,0.1c-0.2,0.1-0.3,0.3-0.4,0.3
		c-0.5,0.4-0.7,0.3-1.2,0.3c-0.3,0-0.6,0-0.9,0.1c-1-0.1-1.9-0.1-2.7,0.7C472.7,493.1,472.6,493.3,472.4,493.4z"/>
	<path class="st0" d="M467.2,499c0.1,0,0.3,0,0.4,0c0.2-0.1,0.4-0.2,0.6-0.3c0,0,0,0,0.1,0c0.2,0,0.4,0,0.6-0.1
		c0.4-0.1,0.6-0.5,0.7-0.8c0.1-0.4,0.3-0.8,0-1.1s-0.8-0.3-1.1-0.1l0,0c-0.7,0.1-1.3,0.4-1.6,1C466.5,498.2,466.7,499,467.2,499z"/>
	<path class="st0" d="M454.7,509.8c0.4-0.4,0.6-0.7,1.1-0.9c0.3-0.1,0.6-0.2,0.9-0.4c0.5-0.4,0.6-1.1,0.4-1.7
		c-0.4-1.1-1.9-2.8-2.8-1.3c-0.3,0.2-0.5,0.4-0.5,0.8c-0.1,0.5-0.2,0.9-0.6,1.2c-0.2,0.2-0.4,0.4-0.6,0.5c-0.2,0.2-0.5,0.4-0.5,0.7
		C451.9,509.9,454,510.6,454.7,509.8z"/>
	<path class="st0" d="M468.3,520.6c0.1,0.1,0.2,0.2,0.3,0.3c0.2,0.2,0.2,0.5,0.3,0.7c0.1,0.2,0.1,0.3,0.2,0.4l0,0
		c0.1,0.1,0.2,0.2,0.4,0.2c0.1,0.2,0.2,0.4,0.5,0.4c0.3,0.1,0.7,0,0.9-0.2c0.2-0.2,0.3-0.4,0.4-0.6c0.1-0.1,0.2-0.1,0.2-0.2
		c0.4-0.4,0.6-1.2,0.4-1.7c-0.3-0.9-1.5-1-2.4-0.6c-0.9-0.1-1.8-0.1-1.6,0.7C467.9,520.3,468.1,520.5,468.3,520.6z"/>
	<path class="st0" d="M427.1,569.4c-0.5-0.3-1-0.3-1.6-0.2c-0.5,0.1-0.9,0.1-1.3,0c-0.1-0.1-0.2-0.2-0.3-0.3c-0.2-0.5-1-0.7-1.4-0.6
		c-0.6,0.1-0.7,0.9-0.2,1.2c0.1,0.1,0.2,0.3,0.3,0.4c0.4,0.3,0.9,0.4,1.4,0.4h0.1c0.1,0.1,0.2,0.2,0.4,0.3c1,0.7,2.2,0.4,2.7-0.6
		C427.2,569.7,427.2,569.5,427.1,569.4z M425.1,570.4L425.1,570.4C425.2,570.4,425.2,570.4,425.1,570.4L425.1,570.4z"/>
	<path class="st0" d="M432.3,566.3c-0.7,0.1-1.1,0.5-1.8,0.8c-0.4,0.2-0.8,0-1.2,0.1c-0.2,0.1-0.3,0.3-0.4,0.5
		c0,0.5,0.5,0.5,0.9,0.5c0.5,0,1-0.2,1.4-0.3c0.3-0.1,0.6-0.2,0.7-0.5c0.1-0.2,0.2-0.2,0.3-0.4c0.1-0.1,0.1-0.1,0.2-0.3
		C432.7,566.5,432.5,566.3,432.3,566.3z"/>
	<path class="st0" d="M392.4,581.5L392.4,581.5L392.4,581.5c-0.3-0.6-0.7-1.2-1.3-1.3c-0.3-0.1-0.6,0-0.9,0.1s-0.7,0-1,0.1
		c-0.5,0.1-0.6,0.7-0.3,1.1c0.1,0.2,0.3,0.4,0.6,0.5c0.3,0.2,0.8,0.2,0.9,0.5c0.1,0.2,0,0.4,0.2,0.5s0.4,0.2,0.6,0.2
		c0.3,0,0.6-0.3,0.8-0.6C392.4,582.4,392.6,582,392.4,581.5z M389.9,581.5C390,581.5,390,581.5,389.9,581.5
		C390,581.5,390,581.5,389.9,581.5C390,581.5,390,581.5,389.9,581.5z M390.9,582.1C391,582.1,391,582.1,390.9,582.1
		c0.1,0,0.1,0.1,0.1,0.1c0,0.1,0.1,0.2,0.1,0.3C391,582.5,391,582.3,390.9,582.1z"/>
	<path class="st0" d="M399.4,573.8c-0.2-0.5-0.9-1-1.5-0.7c-0.7,0.4-0.3,0.9-0.2,1.4c0,0,0,0.1-0.1,0.1c-0.1,0.1-0.2,0.2-0.4,0.3
		c-0.5,0.1-1.3,0-1.5,0.1s-0.4,0.2-0.5,0.4c0,0.1,0,0.3,0,0.4c0.1,0.2,0.2,0.2,0.3,0.4c0.3,0.5,0.3,0.8,0.3,1.4
		c-0.2,1.6,0.9,2.4,2.2,1.9c1.6,0.2,1.5-1.7,1.5-2.9c0,0,0,0,0-0.1C399.7,575.7,399.8,574.7,399.4,573.8z M396.1,576.1L396.1,576.1
		L396.1,576.1L396.1,576.1z"/>
	<path class="st0" d="M460.4,502.3c0,0.2,0,0.3,0.1,0.5c0.4,0.9,1.4,1.3,2.3,1.2c0.6-0.1,1.5-0.3,2-0.6c0.1,0,0.1,0,0.2-0.1
		c0,0,0,0,0.1,0c0.5,0,1.2-0.1,1.6-0.4c0.4-0.3,0.6-0.8,0.3-1.2c-0.1-0.2-0.3-0.3-0.6-0.4c-1.3-1.4-3.4-2.2-5.3-1.9
		c-0.6-0.4-2.1-0.5-2.3,0.3c-0.1,0.5,0.1,1,0.5,1.3C459.6,501.6,459.9,502,460.4,502.3z"/>
	<path class="st0" d="M478.3,507c0-0.4-0.1-1.3-0.3-1.7c-0.4-0.7-1.2-0.3-1.9-0.2c-1.8,0.3-3.5-0.4-5.2-0.6c-0.8-0.1-2-0.4-2.6,0.3
		c-0.1,0.1-0.2,0.3-0.1,0.4c0,0.1,0.1,0.2,0.2,0.3c0,0,0,0,0,0.1c0.5,0.8,0.2,2.1,1.2,2.5c0.4,0.1,0.9,0,1.3,0c1-0.1,1.8,0,2.8,0.3
		C475.2,508.8,478.1,509.1,478.3,507z M477.3,506.5C477.3,506.5,477.2,506.5,477.3,506.5C477.2,506.4,477.3,506.4,477.3,506.5
		C477.3,506.4,477.3,506.4,477.3,506.5z"/>
	<path class="st0" d="M469.6,510.9c-0.4-0.1-0.6,0.2-0.9,0.5c-0.2,0.2-0.3,0.2-0.6,0.3c-0.2,0-0.4,0.1-0.6,0.2
		c-0.2,0.1-0.2,0.3-0.2,0.5s0.1,0.4,0.3,0.6c0,0.1,0,0.2,0.1,0.3s0.2,0.3,0.4,0.4c-0.1,0.3,0,0.6,0.5,0.7c0.8,0.1,1.4-0.9,1.6-1.5
		C470.5,512.1,470.5,511.1,469.6,510.9z"/>
	<path class="st0" d="M467.7,538.9c-1-0.6-2-0.1-2.6,0.7c0,0-0.1,0-0.1,0.1c-0.2,0.2-0.3,0.4-0.3,0.6c-0.3,0.4-0.6,0.8-0.8,1.3
		c-0.1,0.1-0.1,0.1-0.2,0.2c-0.1,0.1-0.3,0.2-0.4,0.3c-1,0.3-1.9,0.9-1.4,2.2c0.1,0.2,0.2,0.3,0.4,0.2c0.1,0,0.2,0,0.3-0.1
		c0.1,0,0.2,0.1,0.3,0.1c0.9,0.2,1.8-0.3,2.6-1c0.9-0.4,1.8-0.9,2.4-1.5l0.1-0.1c0.2-0.2,0.4-0.4,0.5-0.6c0.1-0.2,0.1-0.4,0-0.7
		C468.6,540,468.3,539.3,467.7,538.9z"/>
	<path class="st0" d="M458.5,547.9c-0.2,0.1-0.2,0.4,0,0.5c0.3,0.2,0.6,0.1,1,0c0.9-0.2,1.7-0.4,2.6-0.7c1-0.3,2-0.4,2.1-1.6
		c0-0.2-0.3-0.3-0.4-0.2c-1,1-2.1,1.2-3.5,1.3c-0.3,0-0.6,0.1-0.8,0.2l0,0C459.1,547.6,458.8,547.7,458.5,547.9z"/>
	<path class="st0" d="M464.8,535.9C464.8,535.9,464.9,535.9,464.8,535.9c0.1,0.1,0.1,0.1,0.2,0.1c0.9,0.1,2.7-0.5,2.5-1.6
		c-0.1-0.5-0.6-0.7-1.1-0.6c-0.5,0.2-0.7,0.7-1,1.1c-0.2,0-0.4,0-0.5,0.1C464.6,535.2,464.5,535.7,464.8,535.9z"/>
	<path class="st0" d="M469.7,537.6c0.7,0,1-0.8,1-1.3c0-0.3,0-0.6-0.3-0.8c-0.3-0.1-0.6,0-0.8,0.2c-0.3,0.2-0.5,0.4-0.4,0.7
		c0,0.1,0.1,0.3,0.2,0.4l0.1,0.1c-0.1,0.1-0.1,0.2-0.1,0.3C469.3,537.4,469.4,537.6,469.7,537.6z"/>
	<path class="st0" d="M397.1,602.1c-0.1,0-0.2,0-0.3,0c-0.2,0-0.4,0-0.5,0.1c-0.2,0.1-0.3,0.2-0.4,0.3c0,0,0,0-0.1,0.1
		c-0.3,0.3-0.9,0.5-1.1,0.9c-0.1,0.2,0,0.5,0.1,0.6v0.1h0.1c0.1,0.1,0.2,0.1,0.3,0.1c0.4,0.1,0.9-0.2,1.2-0.4
		c0.1-0.1,0.2-0.2,0.3-0.2c0.1-0.1,0.3-0.3,0.3-0.4l0,0c0.2-0.1,0.3-0.3,0.4-0.5c0,0,0-0.1,0-0.2c0,0,0-0.1,0-0.2
		C397.6,602.2,397.3,602.1,397.1,602.1z"/>
	<path class="st0" d="M391.2,603.9C391.2,603.9,391.1,603.9,391.2,603.9c-0.1-0.1-0.3-0.2-0.4,0c-0.1,0-0.1,0-0.1,0.1
		c-0.1,0.1-0.1,0.4-0.2,0.5c-0.1,0.3-0.2,0.6-0.4,0.8c0,0,0,0-0.1,0.1s-0.1,0.1-0.2,0.2l0,0l0,0c0.4,0.1,0.7-0.3,0.9-0.7
		c0.1-0.2,0.2-0.4,0.3-0.6l0,0C391.2,604.2,391.2,604,391.2,603.9L391.2,603.9z"/>
	<path class="st0" d="M403.9,597.1c-0.1,0-0.2,0.1-0.2,0.2c-1.1,0.5-4.2,0.8-3.8,2.4c0,0.1,0.2,0.3,0.3,0.3c0.6,0.1,1.1-0.3,1.6-0.7
		c0.3-0.3,0.6-0.5,1-0.7c0.2,0,0.4-0.1,0.6-0.2c0,0,0,0,0.1,0c0.1-0.1,0.2-0.1,0.2-0.2c0,0,0,0,0.1,0l0,0c0,0,0,0,0.1-0.1
		c0,0,0.1,0,0.1-0.1c0,0,0.1-0.1,0.1-0.2c0.1-0.1,0.2-0.2,0.3-0.2l0.1-0.1C404.3,597.2,404.1,597.1,403.9,597.1z"/>
	<path class="st0" d="M421.5,593.2c-0.2,0.1-0.2,0.2-0.2,0.4c0,0.1,0,0.2,0,0.2c0.1,0,0.1,0,0.2,0s0.2,0,0.4,0c0.1,0,0.1,0,0.2,0
		c0.2-0.1,0.1-0.4,0-0.5C421.9,593.2,421.7,593.1,421.5,593.2z"/>
	<path class="st0" d="M417.3,594.4c0-0.1-0.1-0.1-0.2-0.2c-0.2-0.1-0.4-0.1-0.6-0.1c-0.1,0-0.2,0-0.3,0c-0.1,0-0.1,0-0.2,0
		c-0.6,0-1.3,0.1-1.8,0.3c-0.6,0.3-0.5,1,0.2,1c0.3,0,0.5-0.1,0.8-0.2c0.1,0,0.2-0.1,0.3-0.1h0.1c0.2,0,0.4,0,0.6,0
		c0.1,0,0.1,0.1,0.2,0.1c0.3,0.1,0.6,0.1,0.9-0.1c0.2-0.2,0.3-0.6,0.1-0.8C417.3,594.4,417.3,594.4,417.3,594.4z"/>
	<path class="st0" d="M302.3,602.8c-1.7,0.3-3.7,0.6-5.4,0.1c-0.4-0.1-0.8-0.3-1.1-0.5l-0.1-0.1c-0.6-0.4-1.1-0.9-1.7-1.4
		c-1.3-1.1-1.8-2.2-3.6-2.7c-0.2-0.1-0.5,0.1-0.6,0.3c-0.2,0.8,0.1,1.2,0.6,1.6c0.3,0.5,0.7,0.9,1.2,1.3c1,1,2,2.2,3.3,2.7
		c2.4,1,5.8,1.1,7.8-0.7C303.1,603.2,302.7,602.7,302.3,602.8z"/>
	<path class="st0" d="M303.1,597.2c-1.2-0.8-2.6-0.8-4-1.2c-0.2-0.1-0.4-0.3-0.6-0.4c-0.3-0.1-0.6-0.2-0.9-0.3
		c-0.1-0.1-0.2-0.2-0.3-0.3c-1.1-1.1-3.2-2.7-3.5-4.4c0-1,0.1-1.9,0.1-2.9c0-0.1,0-0.1,0-0.2c0.1-0.2,0.2-0.3,0.3-0.5
		c0.1-0.3-0.2-0.5-0.4-0.3c-0.9,0.8-1.7,2.2-1.9,3.4c0,0.2,0.1,0.3,0.2,0.3c-0.4,1.6,1,3.5,2.1,4.8c2,2.2,5.2,3.5,8.2,3.6
		C303.5,598.9,304.3,598,303.1,597.2z M293.1,591.3C293.1,591.3,293.1,591.2,293.1,591.3L293.1,591.3L293.1,591.3z M299.9,597.3
		L299.9,597.3c0.2,0,0.3,0.1,0.5,0.1C300.2,597.4,300,597.4,299.9,597.3z"/>
	<path class="st0" d="M296.2,608c-1.5-0.6-3.3-0.8-4.8-1.5c-1.1-0.5-1.5-1.1-2.1-2.1c-0.2-0.3-0.3-0.5-0.5-0.8
		c-0.3-0.4-1.1-0.8-1.4-1.1c-0.3-0.4-0.1-0.9-0.1-1.3c0.1-0.2,0.2-0.5,0.1-0.8c-0.1-0.1-0.1-0.3-0.2-0.4c0-0.1,0-0.2,0-0.3
		c0-0.2,0-0.3-0.1-0.4c-0.1-0.1-0.2-0.3-0.3-0.4l0,0l0,0l-0.1-0.1c-0.2-0.2-0.5-0.1-0.5,0.2c0,0,0,0,0,0.1s-0.1,0.2-0.1,0.2
		c-0.1,0.2-0.3,0.4-0.3,0.6c0,0.2,0,0.4-0.1,0.6c-0.4,0.6-0.5,1.3-0.3,2.2c0.1,0.3,0.3,1.3,0.5,1.7c0.4,0.6,1,0.7,1.3,1.4
		c0.2,0.5,0.1,1,0.3,1.4c0.3,0.5,1.1,0.7,1.6,0.8c1.9,0.6,4,1.1,6,0.6c0.3,0,0.7,0.1,1,0.1C296.5,608.6,296.5,608.1,296.2,608z"/>
	<path class="st0" d="M284.7,616.4c1.3,0,2.5,0.6,3.9,0.6c0.3,0,0.7-0.1,1-0.1c0.6,0.1,1.1,0,1.6-0.3c0.6-0.1,1.4-0.5,0.8-1.2
		c-0.2-0.2-0.4-0.2-0.7-0.2l0,0c-0.3,0-0.7-0.3-1-0.3c-0.1-0.1-0.2-0.2-0.2-0.2c-0.7-0.4-1.6-0.3-2.3-0.6c-1-0.4-1.8-1.2-2.7-1.8
		c-1.1-0.8-2.5-1.4-2.9-2.9c0-0.2-0.2-0.3-0.3-0.2c-0.2,0.1-0.3,0.3-0.4,0.5c-0.2,0.4-0.4,0.7-0.5,1.2c-0.2,0.5-0.3,0.9-0.4,1.4
		s-0.3,0.9-0.4,1.3c-0.1,0-0.1,0.1,0,0.2C281.9,615,282.2,616.5,284.7,616.4z"/>
	<path class="st0" d="M293.9,622.2L293.9,622.2c0,0.1-0.7,0.1-0.8,0.2c-1.2,0.1-2.4-0.5-3.6-0.4c-1.3,0.2-3,0.2-4.4-0.4
		c-0.1-0.2-0.3-0.3-0.4-0.4c-0.2-0.2-0.3-0.4-0.5-0.6c-0.3-0.4-0.9-0.6-1.3-0.2c-0.7,0.7,0.6,1.9,1.2,2.1c0,0,0,0,0.1,0
		c0.9,0.7,2.2,1.1,3.1,1.6c0.5,0.2,0.9,0.4,1.4,0.4c0.5,0.2,1,0.5,1.5,0.6c0.1,0,0.2,0.1,0.3,0.1l0,0l0.1-0.1c0.2,0.2,0.7,0.1,1,0.1
		c0.2,0,0.5-0.1,0.7-0.2c0,0,0,0,0-0.1c0.3,0,0.6-0.2,0.8-0.5c0.3-0.5,0.5-1.2,0.4-1.8c0,0,0-0.1,0-0.2
		C293.5,622.4,293.8,622.3,293.9,622.2C293.8,622,293.9,622,293.9,622.2z"/>
	<path class="st0" d="M279.1,630.7c0.3-0.1,0.7-0.3,1-0.4c1.5,0,2.6,1,4,1.1c0.9,0.1,1.9-0.2,2.7-0.5c1.1-0.4,2.6-1.1,3.4-2.1
		c0.4-0.1,0.8-0.4,0.8-0.9v-0.1c0-0.1,0-0.1,0-0.2c0-0.2-0.1-0.3-0.2-0.3l0,0l0,0c-1.3,0-2.5-0.5-3.7-0.8c-1.3-0.3-2.6,0-3.9-0.6
		c-0.6-0.3-1.1-0.8-1.6-1.3c-0.5-0.8-1-1.7-1.7-2c-0.3-0.2-0.6-0.4-1-0.5c0,0,0,0-0.1,0s-0.1,0-0.1,0.1c0,0.4,0,0.8,0.1,1.2
		c0,0.1,0,0.3,0.1,0.4c0.1,0.3,0.1,0.6,0.2,0.8c0,0.4-0.1,0.9-0.1,1.3c-0.1,0.8-0.2,1.5-0.3,2.3c-0.1,0.7-0.3,1.6,0,2.2
		C278.6,630.6,278.8,630.8,279.1,630.7z M279.1,628.3C279.1,628.3,279.1,628.4,279.1,628.3C279.1,628.4,279.1,628.4,279.1,628.3
		C279,628.4,279.1,628.3,279.1,628.3z"/>
	<path class="st0" d="M286.1,636.3c1.8,0,3.3-0.9,3.8-2.7c0.1-0.3-0.3-0.5-0.5-0.2c-0.3,0.4-0.6,0.9-1,1.3c-1.1,0.4-2.4-0.2-3.7-0.1
		c-1.5,0.1-2.8,0.6-4.3,0h-0.1c0,0,0,0-0.1,0c-0.2-0.1-0.5-0.2-0.7-0.1l-0.1,0.1c0,0.3,0.2,0.6,0.3,0.9c0.2,0.4,0.3,0.7,0.6,1
		l0.1,0.1c0,0.1,0,0.1,0.1,0.2c0.3,0.3,0.7,0.5,1.2,0.3c0,0,0,0,0.1-0.1c0.1,0,0.1,0,0.2,0c0.5,0,1-0.2,1.5-0.3
		C284.5,636.4,285.2,636.3,286.1,636.3z M280,634.6L280,634.6L280,634.6C280.1,634.6,280.1,634.6,280,634.6z M280.5,635.3
		L280.5,635.3L280.5,635.3L280.5,635.3z M281,636.2C280.9,636.2,280.9,636.1,281,636.2C280.9,636.1,280.9,636.1,281,636.2
		C280.9,636.1,281,636.1,281,636.2C281,636.1,281,636.2,281,636.2z"/>
	<path class="st0" d="M479.3,594c-0.7-0.1-1.4,0-2.1,0.2c-0.1,0-0.1,0.3,0,0.3c0.7-0.1,1.5-0.2,2.1,0.2c0.5,0.3,0.6,0.8,1,1.2
		c0.2,0.2,0.5,0.3,0.8,0.5c0.2,0.1,0.3,0.2,0.5,0.3c0.3,0.3,0.5,0.6,0.8,0.8c0.4,0.6,1.2-0.2,0.8-0.8
		C482.1,595.3,481.1,594,479.3,594z"/>
	<path class="st0" d="M486.5,593.2c-0.4-0.5-0.8-0.9-1.4-0.9c-1-0.4-2.6-0.2-3.6,0.2c-0.1,0.1-0.1,0.3,0,0.3
		c1.1,0.2,2.9-0.2,3.6,0.8s1.2,1.7,2.1,2.5c0.4,0.3,1,0,0.9-0.5C487.9,594.5,487.2,594,486.5,593.2z"/>
	<path class="st0" d="M295.9,611.7c-0.1-0.1-0.2-0.1-0.3,0c-0.7,0.3-1.8,0.3-2.9,0.2c-0.8-0.2-1.6-0.4-2.4-0.6
		c-0.6-0.2-1.1-0.6-1.6-0.8c-0.1-0.1-0.3-0.2-0.5-0.3c-0.5-0.3-0.7-0.2-1.2-0.1c-0.3,0.1-0.3,0.4-0.2,0.6c0.3,0.6,0.8,0.8,1.4,0.9
		c2.1,1.5,4.9,2.9,7.3,1.9c0.3,0.1,0.6-0.3,0.6-0.5c0.2-0.4,0.2-0.7-0.1-1.1C296,611.8,296,611.7,295.9,611.7z"/>
	<path class="st0" d="M294,632.3L294,632.3c-0.1-0.2-0.4-0.2-0.5,0c-0.6,0.9-0.9,2-1.4,3c-0.5,0.9-1.4,1.4-2.1,2.1
		c-0.7,0.7-0.9,1.2-1.9,1.5c-1.5,0.5-3,0.4-4.6,0.1c-0.2,0-0.3,0.2-0.1,0.3c0.3,0.1,0.5,0.2,0.8,0.3c0,0,0,0.1,0.1,0.1
		c1.9,0.6,4.2,1.9,6.2,1.1c1.3-0.5,3.5-1.6,3.7-3.2v-0.1C294.9,636.1,294.4,633.6,294,632.3z"/>
	<path class="st0" d="M294,641.3c-0.1-0.1-0.3,0-0.3,0.1c-2.1,1.9-5.2,1.1-7.9,0.9c-0.2,0-0.3,0.2-0.3,0.3c0.1,0.3,0.3,0.6,0.5,0.8
		c0,0,0,0,0.1,0.1c0.7,0.6,1.8,0.8,3,0.9c-0.4,0.2-0.9,0.5-1.3,0.7c-1.7,0.8-3.7,0.2-5.5-0.3c-0.2-0.1-0.4-0.2-0.7-0.2
		c-0.2,0-0.4,0-0.5,0.1H281v0.1c0,0.1-0.1,0.2-0.1,0.3c0,0.2-0.1,0.4-0.1,0.6c0,0.2,0.1,0.4,0.2,0.6c0,0.1,0.1,0.1,0.2,0.1
		c0.2,0.2,0.4,0.3,0.7,0.3c1.5,1,3.3,2.5,5,2.6c1.9,0.2,4.2-0.8,5.7-1.8c0.1,0,0.1-0.1,0.1-0.2c0.3-0.3,0.5-0.6,0.7-1
		c0.1-0.1,0.2-0.2,0.3-0.3c0.1-0.3,0.2-0.5,0.2-0.7C294.9,644,295.4,642.5,294,641.3z"/>
	<path class="st0" d="M288.7,653.8c-0.7,0.3-1.4,0.7-2,1.2c0,0-0.1,0-0.1,0.1c-0.1,0.1-0.3,0.2-0.5,0.3c-1,0.1-2.1,0-3.1-0.1
		c-0.8-0.1-1.3-0.5-1.8-0.9c-0.1-0.3-0.1-0.5-0.2-0.8s-0.3-0.6-0.4-0.9c-0.2-0.6-0.5-1.1-1.2-1c-0.2,0-0.4,0.2-0.4,0.4
		c-0.1,0.2-0.1,0.4,0,0.6v0.1c0,0,0,0,0,0.1c0.1,0.4,0.2,0.7,0.5,0.9c0,0,0,0.1,0.1,0.1c0,0.4-0.1,0.9,0.2,1.3
		c0.5,0.8,1.6,1.2,2.4,1.5c1.3,0.5,3.3,0.8,4.5,0l0,0c0.1,0,0.1,0,0.2-0.1c0,0,0.1,0.1,0.1,0c0.5-0.2,1.1-0.5,1.5-0.9
		c0.1-0.1,0.2-0.2,0.3-0.4c0,0,0.1,0,0.1-0.1c0.1-0.3,0.6-1,0.2-1.2C289,653.8,288.9,653.7,288.7,653.8z"/>
	<path class="st0" d="M292.5,649c-0.1,0.2-0.2,0.5-0.4,0.8c-0.2,0.3-0.4,0.7-0.7,1h-0.1c-1.7,0.8-3.4,1.1-5.2,1
		c-1.5-0.3-2.9-1-4.3-1.7c-0.6-0.4-1.1-0.9-1.9-1.2c-0.1,0-0.2,0-0.2,0.1l0,0c0,0.3-0.2,0.6-0.1,0.9c0.1,0.2,0.2,0.3,0.3,0.3
		c0.6,0.7,1.3,1.2,2.1,1.6l0,0c0.6,0.4,1.3,0.7,2,0.8c0.3,0.1,0.7,0.2,1,0.4c1.5,0.5,3.3,0.7,4.7,0.1V653c0.2-0.1,0.4-0.2,0.6-0.4
		c1-0.5,1.5-1.8,1.9-2.9c0.1-0.2,0.2-0.4,0.2-0.6C292.9,649,292.6,648.8,292.5,649z M280.2,649.4L280.2,649.4L280.2,649.4
		L280.2,649.4z"/>
	<path class="st0" d="M308.8,589.2c-0.1,0.1-0.3,0.1-0.4,0.2c-0.1,0-0.2,0-0.3,0c-0.5,0.3-1,0.5-1.6,0.6c-0.3,0-0.6,0.1-0.8,0.1
		c-0.5,0-1.1,0-1.7-0.1c-1.1-0.3-2.2-1-3.2-1.6c-0.3-0.2-0.6-0.4-0.8-0.6c-0.4-0.3-0.8-1.1-1.3-1.5c0-0.1,0-0.3-0.1-0.5
		c-0.1-0.4-0.7-0.3-0.8,0.1c0,0.1,0,0.2,0,0.4c-0.2,0.4-0.2,0.9-0.1,1.3c-0.1,0.3-0.2,0.6-0.1,0.9c0,0.1,0.1,0.2,0.2,0.3v0.1
		c0.4,0.5,0.9,1.1,1.5,1.6c0.9,0.9,2.1,1.6,3,2c1.2,0.5,2.8,0.6,4.1,0.2c0.6-0.1,1-0.4,1.6-0.8c0.4-0.3,0.9-1.1,0.9-1.7l0,0
		c0-0.1,0.3-0.2,0.3-0.3C309.4,589.6,309.3,589.1,308.8,589.2z"/>
	<path class="st0" d="M300.9,583.7c0.4,0.5,0.9,0.9,1.4,1.2c0,0,0,0,0,0.1c0.5,0.7,1.1,0.9,1.9,0.9c0.6,0,1.2,0,1.8-0.2
		c0.5,0.2,1.1,0.3,1.4-0.1c0.1-0.1,0.1-0.2,0-0.3c0.3-0.4,0.5-1-0.1-1.3c-0.4-0.2-0.9-0.1-1.3,0s-0.7,0.1-1.1,0.2
		c-0.1-0.1-0.1-0.1-0.2-0.1c-0.5-0.1-0.8-0.4-1.1-0.8c-0.1-0.2-0.2-0.4-0.4-0.6c0,0,0,0-0.1-0.1c0.1-0.2,0.3-0.4,0.4-0.6
		c0.1-0.4,0.2-0.9-0.3-1.1l0,0c0,0,0,0,0-0.1c-0.7-0.7-1.9-1.7-0.7-2.8c0.3-0.3,0.5-0.3,0.7-0.6s-0.2-0.5-0.4-0.4
		c-1.1,0.5-2,1.3-2.4,2.4l0,0c-0.6,1.1-0.5,2.4,0.2,3.5C300.5,583.2,300.7,583.5,300.9,583.7z M303.1,581.3c0,0,0,0.1-0.1,0.1
		C303.1,581.4,303.1,581.4,303.1,581.3C303.1,581.4,303.1,581.4,303.1,581.3z"/>
	<path class="st0" d="M317.1,582.9c-0.1-0.3-0.3-0.5-0.7-0.6c-0.9-0.2-2.1,0.6-2.9,0.6c-0.9,0-2,0.2-3,0.1c-1.1-0.4-2.1-0.9-3-1.5
		c-0.3-0.2-0.6,0.2-0.4,0.5c0,0,0,0,0,0.1c0.6,1.5,1.9,2.2,3.4,2.3c2.7,0.7,7.8,1.7,7.2-1.1C317.6,583,317.3,582.9,317.1,582.9z"/>
	<path class="st0" d="M471.2,595.7c-0.4,0.1-0.9,0.2-1.3,0.4c-0.3,0.1-0.6,0.1-0.8,0.4c0,0,0,0,0,0.1c-0.1,0.1-0.2,0.1-0.2,0.2
		c-0.1,0.1-0.1,0.3,0,0.4c0.1,0.1,0.2,0.1,0.3,0.1c0.1,0,0.2-0.1,0.3-0.1c0.3-0.2,0.5-0.4,0.8-0.5s0.7-0.1,1-0.4
		c0.2-0.2,0.3-0.5,0.3-0.8C471.5,595.5,471.4,595.6,471.2,595.7L471.2,595.7z M469.9,596.2h0.1c-0.1,0-0.2,0.1-0.3,0.1L469.9,596.2z
		"/>
	<path class="st0" d="M453.9,471.9c-1.8,1.8-2.2,4.7-1.2,7.1c0.5,1.3,1.3,1.9,2.3,2.9c2.2,2.3,2.6,3.8,3.3,6.8
		c0.1,0.4,0.7,0.2,0.6-0.2c-0.4-2.4-0.3-5.4-2-7.3c-1.2-1.3-2.6-2-3.2-3.8c-0.6-1.9-0.3-3.6,0.5-5.4
		C454.2,471.9,454,471.8,453.9,471.9z"/>
	<path class="st0" d="M425.2,602.8c0.2,0.4,0.3,0.7,0.4,1c0,0,0,0.1,0.1,0.3c0.2,0.3,0.4,0.5,0.9,0.4c0.4-0.1,0.8-0.3,0.6-0.8
		c0-0.1,0-0.2-0.1-0.3c-0.8-2.6-4.4-4.5-7-3.9c-0.2,0-0.2,0.3,0,0.4C421.8,601,424.1,600.8,425.2,602.8z"/>
	<path class="st0" d="M432.5,601.5c0,0.2,0,0.5-0.1,0.7c-0.1,0.7,1.4,1.2,1.5,0.5c0-0.3,0.1-0.5,0.1-0.8c0.1-0.9-0.2-1.9-0.8-2.7
		c0.6,0.2,1.3,0.5,1.8,0.8s1,0.7,1.4,1.2c0.2,0.2,0.6,0.5,0.7,1c0.3,0.7,2,0.3,1.6-0.9c-0.1-0.2-0.2-0.5-0.4-0.7
		c-1.1-1.7-2.4-3.4-4.4-2.7c-2.3,0.4-4.6,0.5-6.7-0.4c0.1,0.1-1.5-0.4-0.3,0.7C428.5,599.5,432.6,598.7,432.5,601.5z"/>
	<path class="st0" d="M458,503.2c-0.1,0.1,0,0.2,0.1,0.1c4.1-3.7,8-7.2,13.3-9.1c4.6-1.7,9.6-2.7,14.3-3.7c0.1,0,0.1-0.2,0-0.2
		c-5.5,0.6-11.1,1.6-16.2,3.7C465,496,461.4,499.6,458,503.2z"/>
	<path class="st0" d="M487.1,491.3c-5.2,1.6-10.9,2.3-15.6,5.3c-4.5,2.9-8,6.9-11.6,10.9c-0.1,0.1,0,0.2,0.1,0.1
		c3.6-3.7,7.6-7.4,12-10.1c4.7-2.9,9.8-4.6,15.1-6C487.3,491.5,487.2,491.3,487.1,491.3z"/>
	<path class="st0" d="M488,491.7c-4.5,1-9.4,2.7-12.6,6.1c-1.9,2-3.5,4.4-5.3,6.5c-1.7,2-3.4,3.8-4.8,6c0,0.1,0.1,0.2,0.1,0.1
		c3-3.7,6.4-7.2,9.4-10.9C478.1,495.4,483,493,488,491.7C488.1,491.7,488.1,491.6,488,491.7z"/>
	<path class="st0" d="M488.4,491.9c-7.8,4.5-15.8,11.7-17.2,21.1c0,0.1,0.1,0.1,0.1,0c2.8-9.1,9.5-15.8,17.2-21
		C488.6,492,488.5,491.9,488.4,491.9z"/>
	<path class="st0" d="M480,507.1c2.4-5.4,5.4-9.9,8.7-14.8c0,0,0-0.1-0.1,0C484.4,496.6,481.7,501.4,480,507.1
		C479.9,507.1,479.9,507.2,480,507.1z"/>
	<g>
		<g>
			<path class="st0" d="M479.6,510c-1.5-0.1-3.2,0-4.6,0.6c-0.9,0.4-2.1,1.4-1.3,2.5c0.7,1,2.7,0.5,3.5,0c0.6-0.4,1.1-1,1.5-1.6
				c0.7-1,1.4-1.6,2.3-2.4c0.1-0.1,0-0.3-0.2-0.2c-0.9,0.5-1.7,1-2.6,1.5c-0.9,0.4-1.6,1.2-2.5,1.5c-0.8,0.2-0.4,0.2,0.3-0.2
				c0.5-0.3,1-0.5,1.5-0.7C478.3,510.5,479,510.4,479.6,510C479.7,510,479.7,510,479.6,510L479.6,510z"/>
		</g>
	</g>
	<g>
		<g>
			<path class="st0" d="M474.8,512.2c0.2-0.5,1.5-0.6,2-0.8c0.7-0.2,1.4-0.4,2.1-0.7c0.5-0.2,0.3-0.9-0.2-0.8
				c-1.2,0.3-2.3,0.8-3.4,1.5c-0.6,0.4-0.2,1.2,0.5,1.1c0.9-0.2,1.7-0.6,2.5-1.1c0.7-0.4,0.1-1.4-0.6-1.1c-0.9,0.4-1.7,0.8-2.6,1.2
				c-0.6,0.3-0.2,1.4,0.5,1.1c0.7-0.2,1.3-0.6,1.9-1c0.4-0.3,0.2-1-0.3-0.8c-0.6,0.2-1.3,0.4-1.9,0.6c0.2,0.4,0.3,0.8,0.5,1.1
				c0.9-0.4,1.7-0.8,2.6-1.2c-0.2-0.4-0.4-0.7-0.6-1.1c-0.7,0.4-1.4,0.8-2.2,1.1c0.2,0.3,0.4,0.7,0.6,1c0.9-0.7,1.8-1.3,2.9-1.6
				c-0.1-0.3-0.1-0.5-0.2-0.8c-1,0.4-2.1,0.8-3.1,1.2c-0.5,0.2-1,0.3-1.1,0.9C474.5,512.3,474.8,512.4,474.8,512.2L474.8,512.2z"/>
		</g>
	</g>
	<path class="st0" d="M488.2,483.1c0,0-0.7-0.2-1-0.2c-0.6-0.2-1.3-0.4-1.9-0.6c-0.7-0.2-1.1-0.8-1.6-1.2c-0.6-1-1.7-2-2.6-2.5
		c-1.2-0.6-2.4-0.5-3.7-0.6l0,0c0,0.3,0.8,0.8,1.4,0.9c0.6,0.1,1.3,0.3,1.8,0.5c-1.2-0.2-2.5,0-3.4,0.6c-1.1,0.7-1.8,1.5-2,2.7
		c-0.1,0.2-0.1,0.7-0.1,0.9c-0.2,1-0.2,2.2,0.9,2.9c0.4,0.3,0.4-0.1,0.1-0.6c-0.2-0.3-0.2-1.1,0.2-1.5c0,0,0.7-0.6,2.4-0.2
		c0.8,0.2,0.8,0.4,1.3,0.5s0.9,0.2,1.4,0.2c0.3,0,0.8-0.1,1.1-0.2c0.4-0.1,0.9-0.2,1.3-0.4c0.8-0.3,1.5-0.2,2.2-0.2
		c0.1,0,0.1,0,0.2,0c0.1,0.2,0.1,0.5,0,0.7c-0.7,1-1.1,2.1-2.3,2.7c-0.1,0,0,0.1,0.1,0.1c0.9-0.4,1.5-1.2,2.1-1.9
		c0.3-0.4,0.7-0.8,1-1.2c0.4-0.4,0.9-0.6,1.5-0.9C488.5,483.4,488.4,483.1,488.2,483.1z M480.8,479.9c0.5,0.1,0.9,0.4,1.2,0.8
		c-0.5,0.2-0.7,0.3-1.4,0.1c-0.7-0.3-0.8-0.4-1.1-1C480,479.8,480.4,479.8,480.8,479.9z M482.4,483.3c-0.1,0.1-0.2,0.2-0.4,0.3
		c-1,0.4-2.1,0.5-3.4,0c-1-0.4-2-1.2-3-0.8c0.3-1,0.6-1.9,1.7-2.5c0.3-0.2,0.6-0.3,1-0.4c0.4,1.5,2.8,2.4,4.1,1.5
		c0,0.1,0.1,0.2,0.1,0.4C482.6,482.3,482.7,482.9,482.4,483.3z"/>
	<g>
		<path class="st0" d="M488.1,504.7L488.1,504.7c-0.1-0.2-0.3-0.7-0.3-0.7l0,0c-0.2-0.4-0.2-1.1-0.3-1.7c-0.2-3.3,1.2-6.6,1.9-9.7
			c0-0.1-0.1-0.1-0.1,0c-1.3,2.5-2.9,6.7-2.3,10.1c0.1,0.6,0.5,1.9,0.7,2.2c0.2,0.4,0.5,0.8,0.9,1.2c0.1,0,0.1,0,0.1-0.1
			C488.4,505.5,488.2,505.1,488.1,504.7z"/>
		<path class="st0" d="M490.4,503.7L490.4,503.7c0-0.1-0.3-0.4-0.3-1.3l0,0c0-0.5,0-1.2,0-1.8c0.1-0.8,0.2-1.6,0.2-2.4
			c0.2-1.7,0.1-3.5-0.1-5.2c0-0.1-0.2-0.1-0.2,0c-0.1,2.4-0.2,4.6-0.5,7c0,0.3,0,0.6-0.1,0.9c0,0.6,0.1,1.4,0.1,1.8
			c0,0.2,0.1,0.5,0.2,0.7c0.2,0.5,0.4,0.9,0.7,1.4c0.1,0.1,0.3,0,0.2-0.1C490.7,504.4,490.5,504,490.4,503.7z"/>
	</g>
	<path class="st0" d="M441.9,506.5c-0.1-0.1-0.1-0.1-0.2-0.1c0,0,0,0-0.1,0c-0.3-0.1-0.7,0-1.1,0.2c-0.5,0.2-1.2,0.5-1.6,0.9l0,0
		c-0.1,0-0.2,0.1-0.2,0.1c-0.1,0,0,0.1,0,0.2h0.2v-0.1l-0.3,0.1c-0.5,0.1-1.2,0.3-1.8,0.5c-0.5,0.2-1.8,0.6-1.7,1.3
		c0.1,0.6,1.7,0.8,2.2,0.8c0.5-0.1,0.9-0.3,1.2-0.6c0.1-0.1,0.2-0.3,0.4-0.5c0.1,0,0.2,0.1,0.3,0.1c0.6,0.3,1.3,0.2,1.9-0.2
		C441.8,508.6,442.5,507.3,441.9,506.5z"/>
	<path class="st0" d="M459.2,475.7c-0.4-0.8-0.8-1.5-1.3-2.1c-0.4-0.7-1-1.2-1.7-1.7c-0.1-0.1-0.2-0.1-0.2,0
		c-0.6-0.5-1.3-0.7-2.2,0.2l0,0c0,0,0,0,0.1,0c-1.7,1.8-2,4.7-1.1,7c0.5,1.3,1.3,1.9,2.3,2.9c2.2,2.3,2.6,3.8,3.3,6.8
		c0.1,0.4,0.7,0.2,0.6-0.2c-0.1-0.5-0.2-1-0.2-1.6c0,0,0,0,0-0.1c0-1.1,0.3-2.1,0.5-3.2c0.1,0.8,0.4,1.6,0.9,2.3c0,0.1,0.1,0,0.1,0
		c-0.6-1.3-0.5-2.6-0.2-3.9v0.1c0.1,0.9,0.2,1.7,0.8,2.3c0.1,0.1,0.2,0,0.1-0.1c-0.5-0.8-0.6-1.6-0.6-2.5c0.2,0.5,0.5,1,1,1.5
		c0.1,0.1,0.2,0,0.2-0.1c-0.5-1-0.8-2-1.1-3.1c0-0.1,0-0.2,0-0.3c0.3,0.8,0.7,1.5,1.3,2c0.1,0.1,0.4,0,0.3-0.2
		C461.3,479.7,460.2,477.6,459.2,475.7z M458.4,484.8c-0.2-1.3-0.6-2.6-1.5-3.6c-1.2-1.3-2.6-2-3.2-3.8c-0.6-1.9-0.3-3.6,0.5-5.4
		v-0.1c2.3-0.4,4.6,5.9,4.9,7.2C459.4,481,458.7,482.9,458.4,484.8z"/>
	<g>
		<path class="st0" d="M493.2,485.6c0.3,0,0.6,0.1,0.9,0h0.1c0.6-0.3,0.9-1.5,1.6-1.4c0.6,0.1,0.7,0.7,0.6,1.2s-0.3,0.9-0.6,1.3
			c-0.3,0.3-0.5,0.3-0.5,1c0,0.8,0.7,0.8,1.4,1.5c0.1,0.1,0.2,0.3,0.2,0.7c0,0.5,0.4,1.5-0.3,1.7c-1.2,0.5-2.1,1.3-3.4,1.7
			c-1.1,0.4-2.3,0.9-3.4,1.2c-2.3,0.7-4.8,1.1-6.4,3.1c-0.2,0.2,0.1,0.5,0.3,0.3c1.6-1.5,3.8-2.3,6-2.9c0.9-0.2,1.9-0.4,2.8-0.7
			c1-0.2,2-0.5,2.8-1c0.1-0.1,0.3-0.1,0.4-0.2c0.6-0.3,1.2-0.3,1.6-0.7c0.7-0.4,0.6,0.6,2.6,1.1l0,0c0,0.3-0.5,0.6-0.5,0.9
			c0,0.3-0.4,0.7-0.4,1c0,0.1,0,0.2,0.1,0c0-0.1,0-0.2,0-0.4c0.3-0.5,0.5-1.3,0.3-1.8c0-0.1,0-0.1-0.1-0.2l-0.1-0.1
			c-0.1-0.2-0.3-0.4-0.4-0.6c-0.2-0.2-0.5-0.4-0.7-0.6c-0.1-0.1-0.2-0.3-0.3-0.4c0-0.1-0.1-0.1-0.1-0.1c-0.1-0.4-0.1-1.5-0.1-1.5
			s0-0.5,0-0.7c0.1-0.3,0.3-0.5,0.5-0.9c0.5-0.5,0.8-0.5,1.1-1.3c0.3-1.6,0.6-2.5-0.4-3.7c-0.7-0.8-1.6-1.8-3.2-1.4
			c-1.8,0.3-2.6,0.6-2.8,0.8c0,0-0.1,0.3-0.2,0.4c0,0.2-0.1,0.5-0.3,0.6c-0.3,0.2-0.6,0.3-1,0.3c-0.5,0.1-0.8,0.2-1.1,0.4
			c0,0-0.1,0.1-0.2,0.2c-0.3,0.3-0.3,0.7,0.1,1c0.3,0.2,0.7,0.2,1,0.2c0.4,0,0.7,0,1.1,0C492.4,485.6,493,485.5,493.2,485.6z
			 M499.2,493.5C499.2,493.5,499.2,493.6,499.2,493.5C499.2,493.6,499.2,493.6,499.2,493.5L499.2,493.5z M499.1,494.5L499.1,494.5
			L499.1,494.5L499.1,494.5z M498.7,493.2L498.7,493.2L498.7,493.2L498.7,493.2L498.7,493.2z"/>
	</g>
</g>
<g class="st1">
	<path class="st2" d="M42.9,145.8l1.5-0.3l5,13.9l1.2,2.7H48l-1.6-4.2h-6.1l-1.6,4.2h-2.1L42.9,145.8z M41,156h4.8l-2.1-5.7l-0.2-1
		l-0.3,1L41,156z"/>
	<path class="st2" d="M60.8,162.1V155c0-2.3-0.3-3.5-1.8-3.5c-2.6,0-3.8,1.8-3.8,1.8v6.9l0.2,1.9h-2.3v-9.9l-0.3-2.3l2.4-0.3v1.9
		c1-1.1,2.8-1.9,4.4-1.9c1.6,0,3.2,0.9,3.2,2.9v7.8l0.2,1.8L60.8,162.1L60.8,162.1z"/>
	<path class="st2" d="M69.7,149.9h3.8l-0.7,1.7h-3v7.2c0,1.2,0.6,1.6,1.4,1.6c0.9,0,2-0.4,2.7-1l0.3,1.9c-1.1,0.8-2.4,1.1-3.5,1.1
		c-1.6,0-2.9-1-2.9-3.8v-7h-1.5v-1.7h1.5v-2.2l2.3-0.3L69.7,149.9z"/>
	<path class="st2" d="M81.4,149.6c3,0,5.2,2,5.2,6.2c0,3.6-2.2,6.7-6,6.7c-5.1,0-5.2-5.8-5.2-6.2C75.4,152.4,77.7,149.6,81.4,149.6z
		 M81,160.8c2.1,0,3.4-2.2,3.4-4.8s-1.3-4.8-3.4-4.8s-3.3,2.2-3.3,4.8S78.9,160.8,81,160.8z"/>
	<path class="st2" d="M97.9,162.1V155c0-2.3-0.3-3.5-1.8-3.5c-2.6,0-3.8,1.8-3.8,1.8v6.9l0.2,1.9h-2.3v-9.9l-0.3-2.3l2.4-0.3v1.9
		c1-1.1,2.8-1.9,4.4-1.9s3.2,0.9,3.2,2.9v7.8l0.2,1.8L97.9,162.1L97.9,162.1z"/>
	<path class="st2" d="M105.5,145c0.7,0,1.3,0.6,1.3,1.3s-0.6,1.3-1.3,1.3c-0.7,0-1.3-0.6-1.3-1.3S104.7,145,105.5,145z M106.6,160.2
		l0.2,1.9h-2.3v-9.9l-0.3-2.3l2.4-0.3C106.6,149.6,106.6,160.2,106.6,160.2z"/>
	<path class="st2" d="M116.2,149.6c3,0,5.2,2,5.2,6.2c0,3.6-2.2,6.7-6,6.7c-5.1,0-5.2-5.8-5.2-6.2
		C110.2,152.4,112.5,149.6,116.2,149.6z M115.8,160.8c2.1,0,3.4-2.2,3.4-4.8s-1.3-4.8-3.4-4.8s-3.3,2.2-3.3,4.8
		S113.7,160.8,115.8,160.8z"/>
	<path class="st2" d="M137.8,156c0,1.9-1.5,3.3-3.3,3.3c-1.9,0-3.3-1.5-3.3-3.3s1.5-3.3,3.3-3.3S137.8,154.2,137.8,156z"/>
	<path class="st2" d="M159.5,149.2c-1.2-1.2-2.5-1.9-4.2-1.9c-3.2,0-5.4,3.3-5.4,6.7c0,4,2.8,6.4,5.6,6.4c2.2,0,4.8-2.1,4.8-2.1
		l0.5,1.8c0,0-2.4,2.1-5.7,2.1c-3.8,0-7.5-2.8-7.5-8.1c0-5.1,3.5-8.8,7.9-8.8c2.1,0,3.7,0.7,5.2,2L159.5,149.2z"/>
	<path class="st2" d="M163.4,151.5c0,0,1.6-1.9,4.8-1.9c1.9,0,3.7,0.8,3.7,3.2v6.5c0,1.5,1.1,2.8,1.1,2.8l-2.3,0.3
		c0,0-0.7-0.9-0.7-2c-0.7,1-2.4,2-3.9,2c-1.7,0-3.2-1.2-3.2-3.1c0-2.7,2.9-4.6,6.9-4.6v-0.9c0-2-0.8-2.6-1.9-2.6
		c-2.3,0-3.5,1.9-3.5,1.9L163.4,151.5z M169.8,159.1v-2.7c-0.6,0-4.7,0.1-4.7,2.6c0,0.8,0.6,1.7,1.9,1.7
		C168.1,160.6,169.3,159.7,169.8,159.1z"/>
	<path class="st2" d="M183.2,152.3c-0.4-0.3-0.9-0.5-1.3-0.5c-1.6,0-3.3,1.8-3.3,4v4.4l0.2,1.9h-2.3v-9.9l-0.3-2.3l2.4-0.3v2.7
		c0.5-0.8,1.6-2.8,3.9-2.8c0.6,0,1.1,0.2,1.6,0.7L183.2,152.3z"/>
	<path class="st2" d="M193.8,162.1V155c0-2.3-0.3-3.5-1.8-3.5c-2.6,0-3.8,1.8-3.8,1.8v6.9l0.2,1.9h-2.3v-9.9l-0.3-2.3l2.4-0.3v1.9
		c1-1.1,2.8-1.9,4.4-1.9c1.3,0,2.6,0.6,3.1,1.9c1-1.1,2.8-1.9,4.4-1.9c1.6,0,3.2,0.9,3.2,2.9v7.8l0.2,1.8h-2.3V155
		c0-2.3-0.3-3.5-1.8-3.5c-2,0-3.2,1.1-3.6,1.6v7.2l0.2,1.8H193.8z"/>
	<path class="st2" d="M216.5,155.4L216,156h-6.9c0,2.2,1.1,4.5,3.5,4.5c2.1,0,3.9-1.7,3.9-1.7l0.3,1.9c0,0-1.8,1.7-4.8,1.7
		c-3.2,0-5.1-3.1-5.1-6.2c0-3.5,1.7-6.7,5.5-6.7C216.2,149.6,216.5,153.8,216.5,155.4z M209.2,154.4h5.1c-0.1-1.3-0.5-3.3-2.2-3.3
		C210.4,151.2,209.5,152.7,209.2,154.4z"/>
	<path class="st2" d="M227.8,162.1V155c0-2.3-0.3-3.5-1.8-3.5c-2.6,0-3.8,1.8-3.8,1.8v6.9l0.2,1.9h-2.3v-9.9l-0.3-2.3l2.4-0.3v1.9
		c1-1.1,2.8-1.9,4.4-1.9c1.6,0,3.2,0.9,3.2,2.9v7.8l0.2,1.8L227.8,162.1L227.8,162.1z"/>
</g>
<circle class="st3" cx="615.5" cy="154.8" r="147.9"/>
<path class="st4" d="M500.2,62.2c-20.4,25.4-32.6,57.6-32.6,92.7s12.2,67.3,32.6,92.7V62.2z"/>
<path class="st4" d="M533.1,277.7c10.2,6.8,21.2,12.4,32.9,16.6V15.4c-11.7,4.2-22.8,9.7-32.9,16.6V277.7z"/>
<path class="st4" d="M615.6,302.8c11.3,0,22.3-1.3,32.9-3.7V10.6c-10.6-2.4-21.6-3.7-32.9-3.7V302.8z"/>
<path class="st4" d="M664.9,294.3c11.7-4.2,22.8-9.7,32.9-16.6V32c-10.2-6.8-21.2-12.4-32.9-16.6V294.3z"/>
<path class="st4" d="M730.7,247.5c20.4-25.4,32.6-57.6,32.6-92.7s-12.2-67.3-32.6-92.7V247.5z"/>
<path class="st5" d="M341.3,154.8c0,13.3,2.3,26.1,6.6,38h211.8c4.3-11.9,6.6-24.6,6.6-38s-2.3-26.1-6.6-38H347.9
	C343.7,128.7,341.3,141.5,341.3,154.8z"/>
<rect x="242.5" y="151.8" class="st6" width="323.8" height="6.8"/>
<path class="st5" d="M453.8,42.3c-26.7,0-51.2,9.3-70.5,24.8h141C505,51.6,480.5,42.3,453.8,42.3z"/>
<path class="st5" d="M453.8,267.3c26.7,0,51.2-9.3,70.5-24.8h-141C402.6,258,427.1,267.3,453.8,267.3z"/>
</svg>
